SplineFontDB: 3.0
FontName: Antonio-Regular
FullName: Antonio-Regular
FamilyName: Antonio
Weight: Normal
Copyright: Copyright (c) 2011-12 by vernon adams. All rights reserved.
Version: 001.001
ItalicAngle: 0
UnderlinePosition: -256
UnderlineWidth: 102
Ascent: 1638
Descent: 410
sfntRevision: 0x00010041
LayerCount: 2
Layer: 0 0 "Back"  1
Layer: 1 0 "Fore"  0
XUID: [1021 98 616871035 13119316]
FSType: 0
OS2Version: 3
OS2_WeightWidthSlopeOnly: 0
OS2_UseTypoMetrics: 1
CreationTime: 1357633526
ModificationTime: 1357633526
PfmFamily: 17
TTFWeight: 400
TTFWidth: 1
LineGap: 0
VLineGap: 0
Panose: 2 0 5 3 0 0 0 0 0 0
OS2TypoAscent: 1638
OS2TypoAOffset: 0
OS2TypoDescent: -358
OS2TypoDOffset: 0
OS2TypoLinegap: 0
OS2WinAscent: 1690
OS2WinAOffset: 0
OS2WinDescent: 358
OS2WinDOffset: 0
HheadAscent: 1638
HheadAOffset: 0
HheadDescent: -358
HheadDOffset: 0
OS2SubXSize: 1331
OS2SubYSize: 1228
OS2SubXOff: 0
OS2SubYOff: 153
OS2SupXSize: 1331
OS2SupYSize: 1228
OS2SupXOff: 0
OS2SupYOff: 716
OS2StrikeYSize: 102
OS2StrikeYPos: 900
OS2Vendor: 'newt'
OS2CodePages: 20000093.00000000
OS2UnicodeRanges: 000000ef.8000404f.00000002.00000000
Lookup: 1 0 0 ""  {} []
Lookup: 258 0 0 "'kern' Horizontal Kerning lookup 0"  {"'kern' Horizontal Kerning lookup 0 subtable"  } ['kern' ('DFLT' <'dflt' > 'grek' <'dflt' > 'latn' <'dflt' > ) ]
DEI: 91125
LangName: 1033 "" "" "" "1.001;newt;Antonio-Regular" "Antonio" "Version 1.001;PS 001.001;hotconv 1.0.70;makeotf.lib2.5.58329" "" "Antonio is a trademark of vernon adams." "Vernon Adams" "Vernon Adams" "Copyright (c) 2011-12 by vernon adams. All rights reserved." "http://code.newtypography.co.uk" "http://code.newtypography.co.uk" "" "" "" "" "" "Antonio Regular" 
Encoding: UnicodeBmp
Compacted: 1
UnicodeInterp: none
NameList: AGL For New Fonts
DisplaySize: -72
AntiAlias: 1
FitToEm: 1
WinInfo: 0 10 8
BeginPrivate: 3
BlueScale 7 0.01237
BlueShift 2 14
BlueFuzz 1 0
EndPrivate
BeginChars: 65537 432

StartChar: .notdef
Encoding: 65536 -1 0
Width: 1024
Flags: W
LayerCount: 2
Fore
SplineSet
102 1092 m 1
 922 1092 l 1
 922 0 l 1
 102 0 l 1
 102 1092 l 1
820 102 m 1
 820 990 l 1
 204 990 l 1
 204 102 l 1
 820 102 l 1
EndSplineSet
EndChar

StartChar: A
Encoding: 65 65 1
Width: 916
Flags: W
LayerCount: 2
Fore
SplineSet
352 1760 m 1
 536 1760 l 1
 842 0 l 1
 681 0 l 1
 449 1447 l 1
 447 1447 l 1
 234 0 l 1
 74 0 l 1
 352 1760 l 1
256 488 m 1
 657 488 l 1
 657 350 l 1
 256 350 l 1
 256 488 l 1
EndSplineSet
EndChar

StartChar: Aacute
Encoding: 193 193 2
Width: 916
Flags: W
LayerCount: 2
Fore
SplineSet
352 1760 m 1
 536 1760 l 1
 842 0 l 1
 681 0 l 1
 449 1447 l 1
 447 1447 l 1
 234 0 l 1
 74 0 l 1
 352 1760 l 1
256 488 m 1
 657 488 l 1
 657 350 l 1
 256 350 l 1
 256 488 l 1
266 1978 m 1
 671 2141 l 1
 671 1979 l 1
 266 1895 l 1
 266 1978 l 1
EndSplineSet
EndChar

StartChar: Abreve
Encoding: 258 258 3
Width: 916
Flags: W
LayerCount: 2
Fore
SplineSet
352 1760 m 1
 536 1760 l 1
 842 0 l 1
 681 0 l 1
 449 1447 l 1
 447 1447 l 1
 234 0 l 1
 74 0 l 1
 352 1760 l 1
256 488 m 1
 657 488 l 1
 657 350 l 1
 256 350 l 1
 256 488 l 1
570 2094 m 1
 648 2094 l 1
 648 2081 l 2
 648 1958 582 1878 442 1878 c 0
 308 1878 237 1954 237 2079 c 2
 237 2094 l 1
 315 2094 l 1
 315 2000 381 1978 444 1978 c 0
 504 1978 570 1996 570 2094 c 1
EndSplineSet
EndChar

StartChar: Acircumflex
Encoding: 194 194 4
Width: 916
Flags: W
LayerCount: 2
Fore
SplineSet
352 1760 m 1
 536 1760 l 1
 842 0 l 1
 681 0 l 1
 449 1447 l 1
 447 1447 l 1
 234 0 l 1
 74 0 l 1
 352 1760 l 1
256 488 m 1
 657 488 l 1
 657 350 l 1
 256 350 l 1
 256 488 l 1
351 2109 m 1
 539 2109 l 1
 670 1842 l 1
 531 1842 l 1
 445 2027 l 1
 359 1842 l 1
 219 1842 l 1
 351 2109 l 1
EndSplineSet
EndChar

StartChar: Adieresis
Encoding: 196 196 5
Width: 916
Flags: W
LayerCount: 2
Fore
SplineSet
352 1760 m 1
 536 1760 l 1
 842 0 l 1
 681 0 l 1
 449 1447 l 1
 447 1447 l 1
 234 0 l 1
 74 0 l 1
 352 1760 l 1
256 488 m 1
 657 488 l 1
 657 350 l 1
 256 350 l 1
 256 488 l 1
588 2022 m 1
 786 2022 l 1
 786 1874 l 1
 588 1874 l 1
 588 2022 l 1
104 2022 m 1
 302 2022 l 1
 302 1874 l 1
 104 1874 l 1
 104 2022 l 1
EndSplineSet
EndChar

StartChar: Agrave
Encoding: 192 192 6
Width: 916
Flags: W
LayerCount: 2
Fore
SplineSet
352 1760 m 1
 536 1760 l 1
 842 0 l 1
 681 0 l 1
 449 1447 l 1
 447 1447 l 1
 234 0 l 1
 74 0 l 1
 352 1760 l 1
256 488 m 1
 657 488 l 1
 657 350 l 1
 256 350 l 1
 256 488 l 1
276 1933 m 1
 276 2110 l 1
 621 1922 l 1
 621 1839 l 1
 276 1933 l 1
EndSplineSet
EndChar

StartChar: Amacron
Encoding: 256 256 7
Width: 916
Flags: W
LayerCount: 2
Fore
SplineSet
352 1760 m 1
 536 1760 l 1
 842 0 l 1
 681 0 l 1
 449 1447 l 1
 447 1447 l 1
 234 0 l 1
 74 0 l 1
 352 1760 l 1
256 488 m 1
 657 488 l 1
 657 350 l 1
 256 350 l 1
 256 488 l 1
187 1970 m 1
 684 1970 l 1
 684 1851 l 1
 187 1851 l 1
 187 1970 l 1
EndSplineSet
EndChar

StartChar: Aogonek
Encoding: 260 260 8
Width: 916
Flags: W
LayerCount: 2
Fore
SplineSet
352 1760 m 1
 536 1760 l 1
 842 0 l 1
 681 0 l 1
 449 1447 l 1
 447 1447 l 1
 234 0 l 1
 74 0 l 1
 352 1760 l 1
256 488 m 1
 657 488 l 1
 657 350 l 1
 256 350 l 1
 256 488 l 1
649 9 m 1
 720 9 l 1
 590 -115 507 -267 507 -373 c 0
 507 -451 552 -505 655 -505 c 0
 735 -505 800 -483 801 -482 c 1
 801 -582 l 1
 778 -595 700 -617 632 -617 c 0
 452 -617 371 -519 371 -396 c 0
 371 -259 472 -91 649 9 c 1
EndSplineSet
EndChar

StartChar: Aring
Encoding: 197 197 9
Width: 916
Flags: W
LayerCount: 2
Fore
SplineSet
352 1760 m 1
 536 1760 l 1
 842 0 l 1
 681 0 l 1
 449 1447 l 1
 447 1447 l 1
 234 0 l 1
 74 0 l 1
 352 1760 l 1
256 488 m 1
 657 488 l 1
 657 350 l 1
 256 350 l 1
 256 488 l 1
444 2166 m 0
 564 2166 623 2084 623 2002 c 0
 623 1920 564 1838 444 1838 c 0
 325 1838 265 1920 265 2002 c 0
 265 2084 325 2166 444 2166 c 0
444 2109 m 0
 378 2109 344 2056 344 2003 c 0
 344 1949 378 1896 444 1896 c 0
 513 1896 547 1949 547 2003 c 0
 547 2056 513 2109 444 2109 c 0
EndSplineSet
EndChar

StartChar: Atilde
Encoding: 195 195 10
Width: 916
Flags: W
LayerCount: 2
Fore
SplineSet
352 1760 m 1
 536 1760 l 1
 842 0 l 1
 681 0 l 1
 449 1447 l 1
 447 1447 l 1
 234 0 l 1
 74 0 l 1
 352 1760 l 1
256 488 m 1
 657 488 l 1
 657 350 l 1
 256 350 l 1
 256 488 l 1
318 2090 m 0
 399 2090 522 2016 572 2016 c 2
 576 2016 l 1
 595 2019 611 2027 632 2087 c 1
 743 2059 l 1
 734 2029 l 2
 695 1899 656 1879 588 1879 c 0
 500 1879 402 1961 319 1961 c 0
 311 1961 303 1961 296 1959 c 0
 274 1954 263 1935 245 1900 c 1
 146 1947 l 1
 185 2082 250 2090 318 2090 c 0
EndSplineSet
EndChar

StartChar: AE
Encoding: 198 198 11
Width: 1186
Flags: W
LayerCount: 2
Fore
SplineSet
452 1760 m 1
 1075 1760 l 1
 1075 1625 l 1
 758 1625 l 1
 758 966 l 1
 1057 966 l 1
 1057 828 l 1
 758 828 l 1
 758 136 l 1
 1075 136 l 1
 1075 0 l 1
 590 0 l 1
 590 350 l 1
 306 350 l 1
 234 0 l 1
 74 0 l 1
 452 1760 l 1
590 488 m 1
 590 1627 l 1
 571 1626 l 1
 569 1626 l 1
 335 488 l 1
 590 488 l 1
EndSplineSet
EndChar

StartChar: B
Encoding: 66 66 12
Width: 938
Flags: W
LayerCount: 2
Fore
SplineSet
172 1760 m 1
 449 1760 l 2
 722 1760 780 1647 783 1365 c 1
 783 1337 l 2
 783 1134 763 1010 663 949 c 1
 780 895 808 718 808 522 c 2
 808 489 l 1
 804 151 737 0 488 0 c 2
 172 0 l 1
 172 1760 l 1
494 878 m 2
 340 878 l 1
 340 141 l 1
 488 141 l 2
 611 141 640 223 640 524 c 2
 640 533 l 2
 640 780 616 878 494 878 c 2
449 1616 m 2
 340 1616 l 1
 340 1011 l 1
 469 1011 l 2
 592 1011 615 1036 615 1337 c 2
 615 1350 l 1
 613 1585 569 1616 449 1616 c 2
EndSplineSet
EndChar

StartChar: C
Encoding: 67 67 13
Width: 896
Flags: W
LayerCount: 2
Fore
SplineSet
457 1781 m 0
 739 1781 766 1554 766 1251 c 2
 766 1084 l 1
 598 1084 l 1
 598 1263 l 2
 598 1510 579 1636 457 1636 c 0
 329 1636 296 1509 296 1264 c 2
 296 539 l 2
 296 237 322 120 451 120 c 0
 574 120 598 238 598 539 c 2
 598 698 l 1
 766 698 l 1
 766 540 l 2
 766 177 709 -21 451 -21 c 0
 193 -21 128 177 128 540 c 2
 128 1251 l 2
 128 1554 175 1781 457 1781 c 0
EndSplineSet
EndChar

StartChar: Cacute
Encoding: 262 262 14
Width: 896
Flags: W
LayerCount: 2
Fore
SplineSet
457 1781 m 0
 739 1781 766 1554 766 1251 c 2
 766 1084 l 1
 598 1084 l 1
 598 1263 l 2
 598 1510 579 1636 457 1636 c 0
 329 1636 296 1509 296 1264 c 2
 296 539 l 2
 296 237 322 120 451 120 c 0
 574 120 598 238 598 539 c 2
 598 698 l 1
 766 698 l 1
 766 540 l 2
 766 177 709 -21 451 -21 c 0
 193 -21 128 177 128 540 c 2
 128 1251 l 2
 128 1554 175 1781 457 1781 c 0
269 1978 m 1
 674 2141 l 1
 674 1979 l 1
 269 1895 l 1
 269 1978 l 1
EndSplineSet
EndChar

StartChar: Ccaron
Encoding: 268 268 15
Width: 896
Flags: W
LayerCount: 2
Fore
SplineSet
457 1781 m 0
 739 1781 766 1554 766 1251 c 2
 766 1084 l 1
 598 1084 l 1
 598 1263 l 2
 598 1510 579 1636 457 1636 c 0
 329 1636 296 1509 296 1264 c 2
 296 539 l 2
 296 237 322 120 451 120 c 0
 574 120 598 238 598 539 c 2
 598 698 l 1
 766 698 l 1
 766 540 l 2
 766 177 709 -21 451 -21 c 0
 193 -21 128 177 128 540 c 2
 128 1251 l 2
 128 1554 175 1781 457 1781 c 0
534 2109 m 1
 673 2109 l 1
 542 1842 l 1
 354 1842 l 1
 222 2109 l 1
 362 2109 l 1
 448 1924 l 1
 534 2109 l 1
EndSplineSet
EndChar

StartChar: Ccedilla
Encoding: 199 199 16
Width: 896
Flags: W
LayerCount: 2
Fore
SplineSet
457 1781 m 0
 739 1781 766 1554 766 1251 c 2
 766 1084 l 1
 598 1084 l 1
 598 1263 l 2
 598 1510 579 1636 457 1636 c 0
 329 1636 296 1509 296 1264 c 2
 296 539 l 2
 296 237 322 120 451 120 c 0
 574 120 598 238 598 539 c 2
 598 698 l 1
 766 698 l 1
 766 540 l 2
 766 177 709 -21 451 -21 c 0
 193 -21 128 177 128 540 c 2
 128 1251 l 2
 128 1554 175 1781 457 1781 c 0
416 0 m 1
 477 0 l 1
 487 -146 l 1
 619 -208 674 -296 674 -379 c 0
 674 -497 563 -603 402 -603 c 0
 371 -603 339 -599 305 -591 c 1
 305 -501 l 1
 494 -501 536 -434 536 -359 c 0
 536 -269 458 -214 376 -196 c 1
 416 0 l 1
EndSplineSet
EndChar

StartChar: Ccircumflex
Encoding: 264 264 17
Width: 896
Flags: W
LayerCount: 2
Fore
SplineSet
457 1781 m 0
 739 1781 766 1554 766 1251 c 2
 766 1084 l 1
 598 1084 l 1
 598 1263 l 2
 598 1510 579 1636 457 1636 c 0
 329 1636 296 1509 296 1264 c 2
 296 539 l 2
 296 237 322 120 451 120 c 0
 574 120 598 238 598 539 c 2
 598 698 l 1
 766 698 l 1
 766 540 l 2
 766 177 709 -21 451 -21 c 0
 193 -21 128 177 128 540 c 2
 128 1251 l 2
 128 1554 175 1781 457 1781 c 0
354 2109 m 1
 542 2109 l 1
 673 1842 l 1
 534 1842 l 1
 448 2027 l 1
 362 1842 l 1
 222 1842 l 1
 354 2109 l 1
EndSplineSet
EndChar

StartChar: Cdotaccent
Encoding: 266 266 18
Width: 896
Flags: W
LayerCount: 2
Fore
SplineSet
457 1781 m 0
 739 1781 766 1554 766 1251 c 2
 766 1084 l 1
 598 1084 l 1
 598 1263 l 2
 598 1510 579 1636 457 1636 c 0
 329 1636 296 1509 296 1264 c 2
 296 539 l 2
 296 237 322 120 451 120 c 0
 574 120 598 238 598 539 c 2
 598 698 l 1
 766 698 l 1
 766 540 l 2
 766 177 709 -21 451 -21 c 0
 193 -21 128 177 128 540 c 2
 128 1251 l 2
 128 1554 175 1781 457 1781 c 0
365 2006 m 1
 542 2006 l 1
 542 1858 l 1
 365 1858 l 1
 365 2006 l 1
EndSplineSet
EndChar

StartChar: D
Encoding: 68 68 19
Width: 913
Flags: W
LayerCount: 2
Fore
SplineSet
150 1760 m 1
 441 1760 l 2
 723 1760 786 1569 786 1266 c 2
 787 506 l 2
 787 143 693 0 435 0 c 2
 150 0 l 1
 150 1760 l 1
441 1623 m 2
 318 1623 l 1
 318 141 l 1
 435 141 l 2
 558 141 619 204 619 505 c 2
 618 1278 l 2
 618 1525 563 1623 441 1623 c 2
EndSplineSet
EndChar

StartChar: Eth
Encoding: 208 208 20
Width: 913
Flags: W
LayerCount: 2
Fore
SplineSet
150 1760 m 1
 441 1760 l 2
 723 1760 786 1569 786 1266 c 2
 787 506 l 2
 787 143 693 0 435 0 c 2
 150 0 l 1
 150 1760 l 1
441 1623 m 2
 318 1623 l 1
 318 141 l 1
 435 141 l 2
 558 141 619 204 619 505 c 2
 618 1278 l 2
 618 1525 563 1623 441 1623 c 2
88 938 m 1
 524 938 l 1
 524 826 l 1
 88 826 l 1
 88 938 l 1
EndSplineSet
EndChar

StartChar: Dcaron
Encoding: 270 270 21
Width: 913
Flags: W
LayerCount: 2
Fore
SplineSet
150 1760 m 1
 441 1760 l 2
 723 1760 786 1569 786 1266 c 2
 787 506 l 2
 787 143 693 0 435 0 c 2
 150 0 l 1
 150 1760 l 1
441 1623 m 2
 318 1623 l 1
 318 141 l 1
 435 141 l 2
 558 141 619 204 619 505 c 2
 618 1278 l 2
 618 1525 563 1623 441 1623 c 2
531 2109 m 1
 670 2109 l 1
 539 1842 l 1
 351 1842 l 1
 219 2109 l 1
 359 2109 l 1
 445 1924 l 1
 531 2109 l 1
EndSplineSet
EndChar

StartChar: Dcroat
Encoding: 272 272 22
Width: 913
Flags: W
LayerCount: 2
Fore
SplineSet
150 1760 m 1
 441 1760 l 2
 723 1760 786 1569 786 1266 c 2
 787 506 l 2
 787 143 693 0 435 0 c 2
 150 0 l 1
 150 1760 l 1
441 1623 m 2
 318 1623 l 1
 318 141 l 1
 435 141 l 2
 558 141 619 204 619 505 c 2
 618 1278 l 2
 618 1525 563 1623 441 1623 c 2
17 962 m 1
 514 962 l 1
 514 843 l 1
 17 843 l 1
 17 962 l 1
EndSplineSet
EndChar

StartChar: E
Encoding: 69 69 23
Width: 746
Flags: W
LayerCount: 2
Fore
SplineSet
150 1760 m 1
 635 1760 l 1
 635 1625 l 1
 318 1625 l 1
 318 966 l 1
 617 966 l 1
 617 828 l 1
 318 828 l 1
 318 136 l 1
 635 136 l 1
 635 0 l 1
 150 0 l 1
 150 1760 l 1
EndSplineSet
EndChar

StartChar: Eacute
Encoding: 201 201 24
Width: 746
Flags: W
LayerCount: 2
Fore
SplineSet
150 1760 m 1
 635 1760 l 1
 635 1625 l 1
 318 1625 l 1
 318 966 l 1
 617 966 l 1
 617 828 l 1
 318 828 l 1
 318 136 l 1
 635 136 l 1
 635 0 l 1
 150 0 l 1
 150 1760 l 1
220 1978 m 1
 625 2141 l 1
 625 1979 l 1
 220 1895 l 1
 220 1978 l 1
EndSplineSet
EndChar

StartChar: Ebreve
Encoding: 276 276 25
Width: 746
Flags: W
LayerCount: 2
Fore
SplineSet
150 1760 m 1
 635 1760 l 1
 635 1625 l 1
 318 1625 l 1
 318 966 l 1
 617 966 l 1
 617 828 l 1
 318 828 l 1
 318 136 l 1
 635 136 l 1
 635 0 l 1
 150 0 l 1
 150 1760 l 1
524 2094 m 1
 602 2094 l 1
 602 2081 l 2
 602 1958 536 1878 396 1878 c 0
 262 1878 191 1954 191 2079 c 2
 191 2094 l 1
 269 2094 l 1
 269 2000 335 1978 398 1978 c 0
 458 1978 524 1996 524 2094 c 1
EndSplineSet
EndChar

StartChar: Ecaron
Encoding: 282 282 26
Width: 746
Flags: W
LayerCount: 2
Fore
SplineSet
150 1760 m 1
 635 1760 l 1
 635 1625 l 1
 318 1625 l 1
 318 966 l 1
 617 966 l 1
 617 828 l 1
 318 828 l 1
 318 136 l 1
 635 136 l 1
 635 0 l 1
 150 0 l 1
 150 1760 l 1
485 2109 m 1
 624 2109 l 1
 493 1842 l 1
 305 1842 l 1
 173 2109 l 1
 313 2109 l 1
 399 1924 l 1
 485 2109 l 1
EndSplineSet
EndChar

StartChar: Ecircumflex
Encoding: 202 202 27
Width: 746
Flags: W
LayerCount: 2
Fore
SplineSet
150 1760 m 1
 635 1760 l 1
 635 1625 l 1
 318 1625 l 1
 318 966 l 1
 617 966 l 1
 617 828 l 1
 318 828 l 1
 318 136 l 1
 635 136 l 1
 635 0 l 1
 150 0 l 1
 150 1760 l 1
305 2109 m 1
 493 2109 l 1
 624 1842 l 1
 485 1842 l 1
 399 2027 l 1
 313 1842 l 1
 173 1842 l 1
 305 2109 l 1
EndSplineSet
EndChar

StartChar: Edieresis
Encoding: 203 203 28
Width: 746
Flags: W
LayerCount: 2
Fore
SplineSet
150 1760 m 1
 635 1760 l 1
 635 1625 l 1
 318 1625 l 1
 318 966 l 1
 617 966 l 1
 617 828 l 1
 318 828 l 1
 318 136 l 1
 635 136 l 1
 635 0 l 1
 150 0 l 1
 150 1760 l 1
542 2022 m 1
 740 2022 l 1
 740 1874 l 1
 542 1874 l 1
 542 2022 l 1
58 2022 m 1
 256 2022 l 1
 256 1874 l 1
 58 1874 l 1
 58 2022 l 1
EndSplineSet
EndChar

StartChar: Edotaccent
Encoding: 278 278 29
Width: 746
Flags: W
LayerCount: 2
Fore
SplineSet
150 1760 m 1
 635 1760 l 1
 635 1625 l 1
 318 1625 l 1
 318 966 l 1
 617 966 l 1
 617 828 l 1
 318 828 l 1
 318 136 l 1
 635 136 l 1
 635 0 l 1
 150 0 l 1
 150 1760 l 1
316 2006 m 1
 493 2006 l 1
 493 1858 l 1
 316 1858 l 1
 316 2006 l 1
EndSplineSet
EndChar

StartChar: Egrave
Encoding: 200 200 30
Width: 746
Flags: W
LayerCount: 2
Fore
SplineSet
150 1760 m 1
 635 1760 l 1
 635 1625 l 1
 318 1625 l 1
 318 966 l 1
 617 966 l 1
 617 828 l 1
 318 828 l 1
 318 136 l 1
 635 136 l 1
 635 0 l 1
 150 0 l 1
 150 1760 l 1
230 1933 m 1
 230 2110 l 1
 575 1922 l 1
 575 1839 l 1
 230 1933 l 1
EndSplineSet
EndChar

StartChar: Emacron
Encoding: 274 274 31
Width: 746
Flags: W
LayerCount: 2
Fore
SplineSet
150 1760 m 1
 635 1760 l 1
 635 1625 l 1
 318 1625 l 1
 318 966 l 1
 617 966 l 1
 617 828 l 1
 318 828 l 1
 318 136 l 1
 635 136 l 1
 635 0 l 1
 150 0 l 1
 150 1760 l 1
141 1970 m 1
 638 1970 l 1
 638 1851 l 1
 141 1851 l 1
 141 1970 l 1
EndSplineSet
EndChar

StartChar: Eogonek
Encoding: 280 280 32
Width: 746
Flags: W
LayerCount: 2
Fore
SplineSet
150 1760 m 1
 635 1760 l 1
 635 1625 l 1
 318 1625 l 1
 318 966 l 1
 617 966 l 1
 617 828 l 1
 318 828 l 1
 318 136 l 1
 635 136 l 1
 635 0 l 1
 150 0 l 1
 150 1760 l 1
494 9 m 1
 565 9 l 1
 435 -115 352 -267 352 -373 c 0
 352 -451 397 -505 500 -505 c 0
 580 -505 645 -483 646 -482 c 1
 646 -582 l 1
 623 -595 545 -617 477 -617 c 0
 297 -617 216 -519 216 -396 c 0
 216 -259 317 -91 494 9 c 1
EndSplineSet
EndChar

StartChar: F
Encoding: 70 70 33
Width: 727
Flags: W
LayerCount: 2
Fore
SplineSet
150 1760 m 1
 635 1760 l 1
 635 1625 l 1
 318 1625 l 1
 318 1014 l 1
 617 1014 l 1
 617 876 l 1
 318 876 l 1
 318 0 l 1
 150 0 l 1
 150 1760 l 1
EndSplineSet
EndChar

StartChar: G
Encoding: 71 71 34
Width: 923
Flags: W
LayerCount: 2
Fore
SplineSet
460 1781 m 0
 742 1781 766 1554 766 1251 c 2
 766 1107 l 1
 598 1107 l 1
 598 1365 l 2
 598 1544 574 1636 457 1636 c 0
 335 1636 296 1540 296 1264 c 2
 296 539 l 2
 296 237 322 120 451 120 c 0
 574 120 604 238 604 539 c 2
 604 763 l 1
 456 763 l 1
 456 901 l 1
 766 901 l 1
 766 0 l 1
 664 0 l 1
 644 113 l 1
 600 28 533 -16 422 -16 c 0
 223 -16 128 139 128 529 c 2
 128 1251 l 2
 128 1554 178 1781 460 1781 c 0
EndSplineSet
EndChar

StartChar: Gbreve
Encoding: 286 286 35
Width: 923
Flags: W
LayerCount: 2
Fore
SplineSet
460 1781 m 0
 742 1781 766 1554 766 1251 c 2
 766 1107 l 1
 598 1107 l 1
 598 1365 l 2
 598 1544 574 1636 457 1636 c 0
 335 1636 296 1540 296 1264 c 2
 296 539 l 2
 296 237 322 120 451 120 c 0
 574 120 604 238 604 539 c 2
 604 763 l 1
 456 763 l 1
 456 901 l 1
 766 901 l 1
 766 0 l 1
 664 0 l 1
 644 113 l 1
 600 28 533 -16 422 -16 c 0
 223 -16 128 139 128 529 c 2
 128 1251 l 2
 128 1554 178 1781 460 1781 c 0
586 2094 m 1
 664 2094 l 1
 664 2081 l 2
 664 1958 598 1878 458 1878 c 0
 324 1878 253 1954 253 2079 c 2
 253 2094 l 1
 331 2094 l 1
 331 2000 397 1978 460 1978 c 0
 520 1978 586 1996 586 2094 c 1
EndSplineSet
EndChar

StartChar: Gcircumflex
Encoding: 284 284 36
Width: 923
Flags: W
LayerCount: 2
Fore
SplineSet
460 1781 m 0
 742 1781 766 1554 766 1251 c 2
 766 1107 l 1
 598 1107 l 1
 598 1365 l 2
 598 1544 574 1636 457 1636 c 0
 335 1636 296 1540 296 1264 c 2
 296 539 l 2
 296 237 322 120 451 120 c 0
 574 120 604 238 604 539 c 2
 604 763 l 1
 456 763 l 1
 456 901 l 1
 766 901 l 1
 766 0 l 1
 664 0 l 1
 644 113 l 1
 600 28 533 -16 422 -16 c 0
 223 -16 128 139 128 529 c 2
 128 1251 l 2
 128 1554 178 1781 460 1781 c 0
367 2109 m 1
 555 2109 l 1
 686 1842 l 1
 547 1842 l 1
 461 2027 l 1
 375 1842 l 1
 235 1842 l 1
 367 2109 l 1
EndSplineSet
EndChar

StartChar: Gcommaaccent
Encoding: 290 290 37
Width: 923
Flags: W
LayerCount: 2
Fore
SplineSet
460 1781 m 0
 742 1781 766 1554 766 1251 c 2
 766 1107 l 1
 598 1107 l 1
 598 1365 l 2
 598 1544 574 1636 457 1636 c 0
 335 1636 296 1540 296 1264 c 2
 296 539 l 2
 296 237 322 120 451 120 c 0
 574 120 604 238 604 539 c 2
 604 763 l 1
 456 763 l 1
 456 901 l 1
 766 901 l 1
 766 0 l 1
 664 0 l 1
 644 113 l 1
 600 28 533 -16 422 -16 c 0
 223 -16 128 139 128 529 c 2
 128 1251 l 2
 128 1554 178 1781 460 1781 c 0
340 -150 m 1
 550 -150 l 1
 550 -345 l 1
 469 -632 l 1
 398 -632 l 1
 443 -354 l 1
 340 -354 l 1
 340 -150 l 1
EndSplineSet
EndChar

StartChar: Gdotaccent
Encoding: 288 288 38
Width: 923
Flags: W
LayerCount: 2
Fore
SplineSet
460 1781 m 0
 742 1781 766 1554 766 1251 c 2
 766 1107 l 1
 598 1107 l 1
 598 1365 l 2
 598 1544 574 1636 457 1636 c 0
 335 1636 296 1540 296 1264 c 2
 296 539 l 2
 296 237 322 120 451 120 c 0
 574 120 604 238 604 539 c 2
 604 763 l 1
 456 763 l 1
 456 901 l 1
 766 901 l 1
 766 0 l 1
 664 0 l 1
 644 113 l 1
 600 28 533 -16 422 -16 c 0
 223 -16 128 139 128 529 c 2
 128 1251 l 2
 128 1554 178 1781 460 1781 c 0
378 2006 m 1
 555 2006 l 1
 555 1858 l 1
 378 1858 l 1
 378 2006 l 1
EndSplineSet
EndChar

StartChar: H
Encoding: 72 72 39
Width: 949
Flags: W
LayerCount: 2
Fore
SplineSet
629 1760 m 1
 797 1760 l 1
 797 0 l 1
 629 0 l 1
 629 875 l 1
 320 875 l 1
 320 0 l 1
 152 0 l 1
 152 1760 l 1
 320 1760 l 1
 320 1006 l 1
 629 1006 l 1
 629 1760 l 1
EndSplineSet
EndChar

StartChar: Hbar
Encoding: 294 294 40
Width: 949
Flags: W
LayerCount: 2
Fore
SplineSet
629 1760 m 1
 797 1760 l 1
 797 0 l 1
 629 0 l 1
 629 875 l 1
 320 875 l 1
 320 0 l 1
 152 0 l 1
 152 1760 l 1
 320 1760 l 1
 320 1006 l 1
 629 1006 l 1
 629 1760 l 1
EndSplineSet
EndChar

StartChar: Hcircumflex
Encoding: 292 292 41
Width: 949
Flags: W
LayerCount: 2
Fore
SplineSet
629 1760 m 1
 797 1760 l 1
 797 0 l 1
 629 0 l 1
 629 875 l 1
 320 875 l 1
 320 0 l 1
 152 0 l 1
 152 1760 l 1
 320 1760 l 1
 320 1006 l 1
 629 1006 l 1
 629 1760 l 1
387 2109 m 1
 575 2109 l 1
 706 1842 l 1
 567 1842 l 1
 481 2027 l 1
 395 1842 l 1
 255 1842 l 1
 387 2109 l 1
EndSplineSet
EndChar

StartChar: I
Encoding: 73 73 42
Width: 512
Flags: W
LayerCount: 2
Fore
SplineSet
172 1760 m 1
 340 1760 l 1
 340 0 l 1
 172 0 l 1
 172 1760 l 1
EndSplineSet
EndChar

StartChar: IJ
Encoding: 306 306 43
Width: 1350
Flags: W
LayerCount: 2
Fore
SplineSet
172 1760 m 1
 340 1760 l 1
 340 0 l 1
 172 0 l 1
 172 1760 l 1
1014 1760 m 1
 1182 1760 l 1
 1182 422 l 2
 1182 122 1098 -21 898 -21 c 0
 679 -21 602 113 602 389 c 2
 602 566 l 1
 770 566 l 1
 770 402 l 2
 770 250 769 120 892 120 c 0
 1017 120 1014 243 1014 418 c 2
 1014 1760 l 1
EndSplineSet
EndChar

StartChar: Iacute
Encoding: 205 205 44
Width: 512
Flags: W
LayerCount: 2
Fore
SplineSet
172 1760 m 1
 340 1760 l 1
 340 0 l 1
 172 0 l 1
 172 1760 l 1
77 1978 m 1
 482 2141 l 1
 482 1979 l 1
 77 1895 l 1
 77 1978 l 1
EndSplineSet
EndChar

StartChar: Ibreve
Encoding: 300 300 45
Width: 512
Flags: W
LayerCount: 2
Fore
SplineSet
172 1760 m 1
 340 1760 l 1
 340 0 l 1
 172 0 l 1
 172 1760 l 1
381 2094 m 1
 459 2094 l 1
 459 2081 l 2
 459 1958 393 1878 253 1878 c 0
 119 1878 48 1954 48 2079 c 2
 48 2094 l 1
 126 2094 l 1
 126 2000 192 1978 255 1978 c 0
 315 1978 381 1996 381 2094 c 1
EndSplineSet
EndChar

StartChar: Icircumflex
Encoding: 206 206 46
Width: 512
Flags: W
LayerCount: 2
Fore
SplineSet
172 1760 m 1
 340 1760 l 1
 340 0 l 1
 172 0 l 1
 172 1760 l 1
162 2109 m 1
 350 2109 l 1
 481 1842 l 1
 342 1842 l 1
 256 2027 l 1
 170 1842 l 1
 30 1842 l 1
 162 2109 l 1
EndSplineSet
EndChar

StartChar: Idieresis
Encoding: 207 207 47
Width: 512
Flags: W
LayerCount: 2
Fore
SplineSet
172 1760 m 1
 340 1760 l 1
 340 0 l 1
 172 0 l 1
 172 1760 l 1
399 2022 m 1
 597 2022 l 1
 597 1874 l 1
 399 1874 l 1
 399 2022 l 1
-85 2022 m 1
 113 2022 l 1
 113 1874 l 1
 -85 1874 l 1
 -85 2022 l 1
EndSplineSet
EndChar

StartChar: Idotaccent
Encoding: 304 304 48
Width: 512
Flags: W
LayerCount: 2
Fore
SplineSet
172 1760 m 1
 340 1760 l 1
 340 0 l 1
 172 0 l 1
 172 1760 l 1
173 2006 m 1
 350 2006 l 1
 350 1858 l 1
 173 1858 l 1
 173 2006 l 1
EndSplineSet
EndChar

StartChar: Igrave
Encoding: 204 204 49
Width: 512
Flags: W
LayerCount: 2
Fore
SplineSet
172 1760 m 1
 340 1760 l 1
 340 0 l 1
 172 0 l 1
 172 1760 l 1
87 1933 m 1
 87 2110 l 1
 432 1922 l 1
 432 1839 l 1
 87 1933 l 1
EndSplineSet
EndChar

StartChar: Imacron
Encoding: 298 298 50
Width: 512
Flags: W
LayerCount: 2
Fore
SplineSet
172 1760 m 1
 340 1760 l 1
 340 0 l 1
 172 0 l 1
 172 1760 l 1
-2 1970 m 1
 495 1970 l 1
 495 1851 l 1
 -2 1851 l 1
 -2 1970 l 1
EndSplineSet
EndChar

StartChar: Iogonek
Encoding: 302 302 51
Width: 512
Flags: W
LayerCount: 2
Fore
SplineSet
172 1760 m 1
 340 1760 l 1
 340 0 l 1
 172 0 l 1
 172 1760 l 1
236 9 m 1
 307 9 l 1
 177 -115 94 -267 94 -373 c 0
 94 -451 139 -505 242 -505 c 0
 322 -505 387 -483 388 -482 c 1
 388 -582 l 1
 365 -595 287 -617 219 -617 c 0
 39 -617 -42 -519 -42 -396 c 0
 -42 -259 59 -91 236 9 c 1
EndSplineSet
EndChar

StartChar: Itilde
Encoding: 296 296 52
Width: 512
Flags: W
LayerCount: 2
Fore
SplineSet
172 1760 m 1
 340 1760 l 1
 340 0 l 1
 172 0 l 1
 172 1760 l 1
129 2090 m 0
 210 2090 333 2016 383 2016 c 2
 387 2016 l 1
 406 2019 422 2027 443 2087 c 1
 554 2059 l 1
 545 2029 l 2
 506 1899 467 1879 399 1879 c 0
 311 1879 213 1961 130 1961 c 0
 122 1961 114 1961 107 1959 c 0
 85 1954 74 1935 56 1900 c 1
 -43 1947 l 1
 -4 2082 61 2090 129 2090 c 0
EndSplineSet
EndChar

StartChar: J
Encoding: 74 74 53
Width: 838
Flags: W
LayerCount: 2
Fore
SplineSet
502 1760 m 1
 670 1760 l 1
 670 422 l 2
 670 122 586 -21 386 -21 c 0
 167 -21 90 113 90 389 c 2
 90 566 l 1
 258 566 l 1
 258 402 l 2
 258 250 257 120 380 120 c 0
 505 120 502 243 502 418 c 2
 502 1760 l 1
EndSplineSet
EndChar

StartChar: Jcircumflex
Encoding: 308 308 54
Width: 838
Flags: W
LayerCount: 2
Fore
SplineSet
502 1760 m 1
 670 1760 l 1
 670 422 l 2
 670 122 586 -21 386 -21 c 0
 167 -21 90 113 90 389 c 2
 90 566 l 1
 258 566 l 1
 258 402 l 2
 258 250 257 120 380 120 c 0
 505 120 502 243 502 418 c 2
 502 1760 l 1
355 2109 m 1
 543 2109 l 1
 674 1842 l 1
 535 1842 l 1
 449 2027 l 1
 363 1842 l 1
 223 1842 l 1
 355 2109 l 1
EndSplineSet
EndChar

StartChar: K
Encoding: 75 75 55
Width: 882
Flags: W
LayerCount: 2
Fore
SplineSet
661 1760 m 1
 827 1760 l 1
 476 891 l 1
 850 0 l 1
 675 0 l 1
 322 854 l 1
 322 0 l 1
 152 0 l 1
 152 1760 l 1
 320 1760 l 1
 320 902 l 1
 661 1760 l 1
EndSplineSet
EndChar

StartChar: Kcommaaccent
Encoding: 310 310 56
Width: 882
Flags: W
LayerCount: 2
Fore
SplineSet
661 1760 m 1
 827 1760 l 1
 476 891 l 1
 850 0 l 1
 675 0 l 1
 322 854 l 1
 322 0 l 1
 152 0 l 1
 152 1760 l 1
 320 1760 l 1
 320 902 l 1
 661 1760 l 1
310 -150 m 1
 520 -150 l 1
 520 -345 l 1
 439 -632 l 1
 368 -632 l 1
 413 -354 l 1
 310 -354 l 1
 310 -150 l 1
EndSplineSet
EndChar

StartChar: L
Encoding: 76 76 57
Width: 719
Flags: W
LayerCount: 2
Fore
SplineSet
152 1760 m 1
 320 1760 l 1
 320 136 l 1
 637 136 l 1
 637 0 l 1
 152 0 l 1
 152 1760 l 1
EndSplineSet
EndChar

StartChar: Lacute
Encoding: 313 313 58
Width: 719
Flags: W
LayerCount: 2
Fore
SplineSet
152 1760 m 1
 320 1760 l 1
 320 136 l 1
 637 136 l 1
 637 0 l 1
 152 0 l 1
 152 1760 l 1
171 1978 m 1
 576 2141 l 1
 576 1979 l 1
 171 1895 l 1
 171 1978 l 1
EndSplineSet
EndChar

StartChar: Lcaron
Encoding: 317 317 59
Width: 719
Flags: W
LayerCount: 2
Fore
SplineSet
152 1760 m 1
 320 1760 l 1
 320 136 l 1
 637 136 l 1
 637 0 l 1
 152 0 l 1
 152 1760 l 1
EndSplineSet
EndChar

StartChar: Lcommaaccent
Encoding: 315 315 60
Width: 719
Flags: W
LayerCount: 2
Fore
SplineSet
152 1760 m 1
 320 1760 l 1
 320 136 l 1
 637 136 l 1
 637 0 l 1
 152 0 l 1
 152 1760 l 1
279 -150 m 1
 489 -150 l 1
 489 -345 l 1
 408 -632 l 1
 337 -632 l 1
 382 -354 l 1
 279 -354 l 1
 279 -150 l 1
EndSplineSet
EndChar

StartChar: Ldot
Encoding: 319 319 61
Width: 719
Flags: W
LayerCount: 2
Fore
SplineSet
152 1760 m 1
 320 1760 l 1
 320 136 l 1
 637 136 l 1
 637 0 l 1
 152 0 l 1
 152 1760 l 1
466 992 m 1
 646 992 l 1
 646 806 l 1
 466 806 l 1
 466 992 l 1
EndSplineSet
EndChar

StartChar: Lslash
Encoding: 321 321 62
Width: 719
Flags: W
LayerCount: 2
Fore
SplineSet
-1 916 m 1
 516 1135 l 1
 516 1003 l 1
 -1 784 l 1
 -1 916 l 1
152 1760 m 1
 320 1760 l 1
 320 136 l 1
 637 136 l 1
 637 0 l 1
 152 0 l 1
 152 1760 l 1
EndSplineSet
EndChar

StartChar: M
Encoding: 77 77 63
Width: 1220
Flags: W
LayerCount: 2
Fore
SplineSet
857 1760 m 1
 1068 1760 l 1
 1068 0 l 1
 919 0 l 1
 919 738 l 1
 940 1430 l 1
 700 0 l 1
 530 0 l 1
 280 1430 l 1
 301 738 l 1
 301 0 l 1
 152 0 l 1
 152 1760 l 1
 363 1760 l 1
 615 212 l 1
 857 1760 l 1
EndSplineSet
EndChar

StartChar: N
Encoding: 78 78 64
Width: 980
Flags: W
LayerCount: 2
Fore
SplineSet
682 1760 m 1
 828 1760 l 1
 828 0 l 1
 700 0 l 1
 297 1280 l 1
 308 848 l 1
 308 0 l 1
 152 0 l 1
 152 1760 l 1
 273 1760 l 1
 704 473 l 1
 682 1000 l 1
 682 1760 l 1
EndSplineSet
EndChar

StartChar: Nacute
Encoding: 323 323 65
Width: 980
Flags: W
LayerCount: 2
Fore
SplineSet
682 1760 m 1
 828 1760 l 1
 828 0 l 1
 700 0 l 1
 297 1280 l 1
 308 848 l 1
 308 0 l 1
 152 0 l 1
 152 1760 l 1
 273 1760 l 1
 704 473 l 1
 682 1000 l 1
 682 1760 l 1
311 1978 m 1
 716 2141 l 1
 716 1979 l 1
 311 1895 l 1
 311 1978 l 1
EndSplineSet
EndChar

StartChar: Ncaron
Encoding: 327 327 66
Width: 980
Flags: W
LayerCount: 2
Fore
SplineSet
682 1760 m 1
 828 1760 l 1
 828 0 l 1
 700 0 l 1
 297 1280 l 1
 308 848 l 1
 308 0 l 1
 152 0 l 1
 152 1760 l 1
 273 1760 l 1
 704 473 l 1
 682 1000 l 1
 682 1760 l 1
576 2109 m 1
 715 2109 l 1
 584 1842 l 1
 396 1842 l 1
 264 2109 l 1
 404 2109 l 1
 490 1924 l 1
 576 2109 l 1
EndSplineSet
EndChar

StartChar: Ncommaaccent
Encoding: 325 325 67
Width: 980
Flags: W
LayerCount: 2
Fore
SplineSet
682 1760 m 1
 828 1760 l 1
 828 0 l 1
 700 0 l 1
 297 1280 l 1
 308 848 l 1
 308 0 l 1
 152 0 l 1
 152 1760 l 1
 273 1760 l 1
 704 473 l 1
 682 1000 l 1
 682 1760 l 1
369 -150 m 1
 579 -150 l 1
 579 -345 l 1
 498 -632 l 1
 427 -632 l 1
 472 -354 l 1
 369 -354 l 1
 369 -150 l 1
EndSplineSet
EndChar

StartChar: Ntilde
Encoding: 209 209 68
Width: 980
Flags: W
LayerCount: 2
Fore
SplineSet
682 1760 m 1
 828 1760 l 1
 828 0 l 1
 700 0 l 1
 297 1280 l 1
 308 848 l 1
 308 0 l 1
 152 0 l 1
 152 1760 l 1
 273 1760 l 1
 704 473 l 1
 682 1000 l 1
 682 1760 l 1
363 2090 m 0
 444 2090 567 2016 617 2016 c 2
 621 2016 l 1
 640 2019 656 2027 677 2087 c 1
 788 2059 l 1
 779 2029 l 2
 740 1899 701 1879 633 1879 c 0
 545 1879 447 1961 364 1961 c 0
 356 1961 348 1961 341 1959 c 0
 319 1954 308 1935 290 1900 c 1
 191 1947 l 1
 230 2082 295 2090 363 2090 c 0
EndSplineSet
EndChar

StartChar: O
Encoding: 79 79 69
Width: 900
Flags: W
LayerCount: 2
Fore
SplineSet
458 1782 m 0
 740 1782 772 1576 772 1273 c 2
 772 515 l 2
 772 152 710 -20 452 -20 c 0
 194 -20 128 152 128 515 c 2
 128 1273 l 2
 128 1576 176 1782 458 1782 c 0
458 1638 m 0
 330 1638 296 1531 296 1286 c 2
 296 514 l 2
 296 212 323 124 452 124 c 0
 575 124 604 213 604 514 c 2
 604 1285 l 2
 604 1532 580 1638 458 1638 c 0
EndSplineSet
EndChar

StartChar: Oacute
Encoding: 211 211 70
Width: 900
Flags: W
LayerCount: 2
Fore
SplineSet
458 1782 m 0
 740 1782 772 1576 772 1273 c 2
 772 515 l 2
 772 152 710 -20 452 -20 c 0
 194 -20 128 152 128 515 c 2
 128 1273 l 2
 128 1576 176 1782 458 1782 c 0
458 1638 m 0
 330 1638 296 1531 296 1286 c 2
 296 514 l 2
 296 212 323 124 452 124 c 0
 575 124 604 213 604 514 c 2
 604 1285 l 2
 604 1532 580 1638 458 1638 c 0
271 1978 m 1
 676 2141 l 1
 676 1979 l 1
 271 1895 l 1
 271 1978 l 1
EndSplineSet
EndChar

StartChar: Obreve
Encoding: 334 334 71
Width: 900
Flags: W
LayerCount: 2
Fore
SplineSet
458 1782 m 0
 740 1782 772 1576 772 1273 c 2
 772 515 l 2
 772 152 710 -20 452 -20 c 0
 194 -20 128 152 128 515 c 2
 128 1273 l 2
 128 1576 176 1782 458 1782 c 0
458 1638 m 0
 330 1638 296 1531 296 1286 c 2
 296 514 l 2
 296 212 323 124 452 124 c 0
 575 124 604 213 604 514 c 2
 604 1285 l 2
 604 1532 580 1638 458 1638 c 0
575 2094 m 1
 653 2094 l 1
 653 2081 l 2
 653 1958 587 1878 447 1878 c 0
 313 1878 242 1954 242 2079 c 2
 242 2094 l 1
 320 2094 l 1
 320 2000 386 1978 449 1978 c 0
 509 1978 575 1996 575 2094 c 1
EndSplineSet
EndChar

StartChar: Ocircumflex
Encoding: 212 212 72
Width: 900
Flags: W
LayerCount: 2
Fore
SplineSet
458 1782 m 0
 740 1782 772 1576 772 1273 c 2
 772 515 l 2
 772 152 710 -20 452 -20 c 0
 194 -20 128 152 128 515 c 2
 128 1273 l 2
 128 1576 176 1782 458 1782 c 0
458 1638 m 0
 330 1638 296 1531 296 1286 c 2
 296 514 l 2
 296 212 323 124 452 124 c 0
 575 124 604 213 604 514 c 2
 604 1285 l 2
 604 1532 580 1638 458 1638 c 0
356 2109 m 1
 544 2109 l 1
 675 1842 l 1
 536 1842 l 1
 450 2027 l 1
 364 1842 l 1
 224 1842 l 1
 356 2109 l 1
EndSplineSet
EndChar

StartChar: Odieresis
Encoding: 214 214 73
Width: 900
Flags: W
LayerCount: 2
Fore
SplineSet
458 1782 m 0
 740 1782 772 1576 772 1273 c 2
 772 515 l 2
 772 152 710 -20 452 -20 c 0
 194 -20 128 152 128 515 c 2
 128 1273 l 2
 128 1576 176 1782 458 1782 c 0
458 1638 m 0
 330 1638 296 1531 296 1286 c 2
 296 514 l 2
 296 212 323 124 452 124 c 0
 575 124 604 213 604 514 c 2
 604 1285 l 2
 604 1532 580 1638 458 1638 c 0
593 2022 m 1
 791 2022 l 1
 791 1874 l 1
 593 1874 l 1
 593 2022 l 1
109 2022 m 1
 307 2022 l 1
 307 1874 l 1
 109 1874 l 1
 109 2022 l 1
EndSplineSet
EndChar

StartChar: Ograve
Encoding: 210 210 74
Width: 900
Flags: W
LayerCount: 2
Fore
SplineSet
458 1782 m 0
 740 1782 772 1576 772 1273 c 2
 772 515 l 2
 772 152 710 -20 452 -20 c 0
 194 -20 128 152 128 515 c 2
 128 1273 l 2
 128 1576 176 1782 458 1782 c 0
458 1638 m 0
 330 1638 296 1531 296 1286 c 2
 296 514 l 2
 296 212 323 124 452 124 c 0
 575 124 604 213 604 514 c 2
 604 1285 l 2
 604 1532 580 1638 458 1638 c 0
281 1933 m 1
 281 2110 l 1
 626 1922 l 1
 626 1839 l 1
 281 1933 l 1
EndSplineSet
EndChar

StartChar: Ohungarumlaut
Encoding: 336 336 75
Width: 900
Flags: W
LayerCount: 2
Fore
SplineSet
458 1782 m 0
 740 1782 772 1576 772 1273 c 2
 772 515 l 2
 772 152 710 -20 452 -20 c 0
 194 -20 128 152 128 515 c 2
 128 1273 l 2
 128 1576 176 1782 458 1782 c 0
458 1638 m 0
 330 1638 296 1531 296 1286 c 2
 296 514 l 2
 296 212 323 124 452 124 c 0
 575 124 604 213 604 514 c 2
 604 1285 l 2
 604 1532 580 1638 458 1638 c 0
487 1955 m 1
 658 2354 l 1
 832 2263 l 1
 562 1913 l 1
 487 1955 l 1
222 1955 m 1
 336 2354 l 1
 507 2273 l 1
 298 1923 l 1
 222 1955 l 1
EndSplineSet
EndChar

StartChar: Omacron
Encoding: 332 332 76
Width: 900
Flags: W
LayerCount: 2
Fore
SplineSet
458 1782 m 0
 740 1782 772 1576 772 1273 c 2
 772 515 l 2
 772 152 710 -20 452 -20 c 0
 194 -20 128 152 128 515 c 2
 128 1273 l 2
 128 1576 176 1782 458 1782 c 0
458 1638 m 0
 330 1638 296 1531 296 1286 c 2
 296 514 l 2
 296 212 323 124 452 124 c 0
 575 124 604 213 604 514 c 2
 604 1285 l 2
 604 1532 580 1638 458 1638 c 0
192 1970 m 1
 689 1970 l 1
 689 1851 l 1
 192 1851 l 1
 192 1970 l 1
EndSplineSet
EndChar

StartChar: Oslash
Encoding: 216 216 77
Width: 900
Flags: W
LayerCount: 2
Fore
SplineSet
63 -166 m 1
 791 1906 l 1
 898 1870 l 1
 162 -206 l 1
 63 -166 l 1
458 1782 m 0
 740 1782 772 1576 772 1273 c 2
 772 515 l 2
 772 152 710 -20 452 -20 c 0
 194 -20 128 152 128 515 c 2
 128 1273 l 2
 128 1576 176 1782 458 1782 c 0
458 1638 m 0
 330 1638 296 1531 296 1286 c 2
 296 514 l 2
 296 212 323 124 452 124 c 0
 575 124 604 213 604 514 c 2
 604 1285 l 2
 604 1532 580 1638 458 1638 c 0
EndSplineSet
EndChar

StartChar: Otilde
Encoding: 213 213 78
Width: 900
Flags: W
LayerCount: 2
Fore
SplineSet
458 1782 m 0
 740 1782 772 1576 772 1273 c 2
 772 515 l 2
 772 152 710 -20 452 -20 c 0
 194 -20 128 152 128 515 c 2
 128 1273 l 2
 128 1576 176 1782 458 1782 c 0
458 1638 m 0
 330 1638 296 1531 296 1286 c 2
 296 514 l 2
 296 212 323 124 452 124 c 0
 575 124 604 213 604 514 c 2
 604 1285 l 2
 604 1532 580 1638 458 1638 c 0
323 2090 m 0
 404 2090 527 2016 577 2016 c 2
 581 2016 l 1
 600 2019 616 2027 637 2087 c 1
 748 2059 l 1
 739 2029 l 2
 700 1899 661 1879 593 1879 c 0
 505 1879 407 1961 324 1961 c 0
 316 1961 308 1961 301 1959 c 0
 279 1954 268 1935 250 1900 c 1
 151 1947 l 1
 190 2082 255 2090 323 2090 c 0
EndSplineSet
EndChar

StartChar: OE
Encoding: 338 338 79
Width: 1200
Flags: W
LayerCount: 2
Fore
SplineSet
458 1760 m 2
 1089 1760 l 1
 1089 1625 l 1
 772 1625 l 1
 772 966 l 1
 1071 966 l 1
 1071 828 l 1
 772 828 l 1
 772 136 l 1
 1089 136 l 1
 1089 0 l 1
 452 0 l 2
 194 0 128 152 128 515 c 2
 128 1273 l 2
 128 1576 176 1760 458 1760 c 2
604 143 m 1
 604 1616 l 1
 458 1616 l 2
 330 1616 296 1531 296 1286 c 2
 296 514 l 2
 296 212 323 144 452 143 c 1
 604 143 l 1
EndSplineSet
EndChar

StartChar: P
Encoding: 80 80 80
Width: 873
Flags: W
LayerCount: 2
Fore
SplineSet
152 1760 m 1
 474 1760 l 2
 756 1760 788 1554 788 1251 c 2
 788 1230 l 2
 788 867 726 690 468 690 c 2
 320 690 l 1
 320 0 l 1
 152 0 l 1
 152 1760 l 1
474 1623 m 2
 320 1623 l 1
 320 831 l 1
 468 831 l 2
 591 831 620 928 620 1229 c 2
 620 1263 l 2
 620 1510 596 1623 474 1623 c 2
EndSplineSet
EndChar

StartChar: Thorn
Encoding: 222 222 81
Width: 893
Flags: W
LayerCount: 2
Fore
SplineSet
172 1760 m 1
 340 1760 l 1
 340 1500 l 1
 494 1500 l 2
 776 1500 808 1294 808 991 c 2
 808 970 l 2
 808 607 746 430 488 430 c 2
 340 430 l 1
 340 0 l 1
 172 0 l 1
 172 1760 l 1
494 1363 m 2
 340 1363 l 1
 340 571 l 1
 488 571 l 2
 611 571 640 668 640 969 c 2
 640 1003 l 2
 640 1250 616 1363 494 1363 c 2
EndSplineSet
EndChar

StartChar: Q
Encoding: 81 81 82
Width: 900
Flags: W
LayerCount: 2
Fore
SplineSet
416 -15 m 1
 535 37 l 1
 719 -176 l 1
 637 -254 l 1
 416 -15 l 1
458 1782 m 0
 740 1782 772 1576 772 1273 c 2
 772 515 l 2
 772 152 710 -20 452 -20 c 0
 194 -20 128 152 128 515 c 2
 128 1273 l 2
 128 1576 176 1782 458 1782 c 0
458 1638 m 0
 330 1638 296 1531 296 1286 c 2
 296 514 l 2
 296 212 323 124 452 124 c 0
 575 124 604 213 604 514 c 2
 604 1285 l 2
 604 1532 580 1638 458 1638 c 0
EndSplineSet
EndChar

StartChar: R
Encoding: 82 82 83
Width: 952
Flags: W
LayerCount: 2
Fore
SplineSet
152 1760 m 1
 474 1760 l 2
 756 1760 788 1624 788 1321 c 0
 788 1098 750 961 626 926 c 1
 760 904 788 768 788 210 c 0
 788 137 788 53 808 0 c 1
 640 0 l 1
 621 37 620 137 620 569 c 0
 620 796 619 853 467 853 c 1
 320 862 l 1
 320 0 l 1
 152 0 l 1
 152 1760 l 1
474 1623 m 2
 320 1623 l 1
 320 979 l 1
 468 979 l 2
 591 979 620 1019 620 1320 c 2
 620 1333 l 2
 620 1580 596 1623 474 1623 c 2
EndSplineSet
EndChar

StartChar: Racute
Encoding: 340 340 84
Width: 952
Flags: W
LayerCount: 2
Fore
SplineSet
152 1760 m 1
 474 1760 l 2
 756 1760 788 1624 788 1321 c 0
 788 1098 750 961 626 926 c 1
 760 904 788 768 788 210 c 0
 788 137 788 53 808 0 c 1
 640 0 l 1
 621 37 620 137 620 569 c 0
 620 796 619 853 467 853 c 1
 320 862 l 1
 320 0 l 1
 152 0 l 1
 152 1760 l 1
474 1623 m 2
 320 1623 l 1
 320 979 l 1
 468 979 l 2
 591 979 620 1019 620 1320 c 2
 620 1333 l 2
 620 1580 596 1623 474 1623 c 2
287 1978 m 1
 692 2141 l 1
 692 1979 l 1
 287 1895 l 1
 287 1978 l 1
EndSplineSet
EndChar

StartChar: Rcaron
Encoding: 344 344 85
Width: 952
Flags: W
LayerCount: 2
Fore
SplineSet
152 1760 m 1
 474 1760 l 2
 756 1760 788 1624 788 1321 c 0
 788 1098 750 961 626 926 c 1
 760 904 788 768 788 210 c 0
 788 137 788 53 808 0 c 1
 640 0 l 1
 621 37 620 137 620 569 c 0
 620 796 619 853 467 853 c 1
 320 862 l 1
 320 0 l 1
 152 0 l 1
 152 1760 l 1
474 1623 m 2
 320 1623 l 1
 320 979 l 1
 468 979 l 2
 591 979 620 1019 620 1320 c 2
 620 1333 l 2
 620 1580 596 1623 474 1623 c 2
552 2109 m 1
 691 2109 l 1
 560 1842 l 1
 372 1842 l 1
 240 2109 l 1
 380 2109 l 1
 466 1924 l 1
 552 2109 l 1
EndSplineSet
EndChar

StartChar: Rcommaaccent
Encoding: 342 342 86
Width: 952
Flags: W
LayerCount: 2
Fore
SplineSet
152 1760 m 1
 474 1760 l 2
 756 1760 788 1624 788 1321 c 0
 788 1098 750 961 626 926 c 1
 760 904 788 768 788 210 c 0
 788 137 788 53 808 0 c 1
 640 0 l 1
 621 37 620 137 620 569 c 0
 620 796 619 853 467 853 c 1
 320 862 l 1
 320 0 l 1
 152 0 l 1
 152 1760 l 1
474 1623 m 2
 320 1623 l 1
 320 979 l 1
 468 979 l 2
 591 979 620 1019 620 1320 c 2
 620 1333 l 2
 620 1580 596 1623 474 1623 c 2
345 -150 m 1
 555 -150 l 1
 555 -345 l 1
 474 -632 l 1
 403 -632 l 1
 448 -354 l 1
 345 -354 l 1
 345 -150 l 1
EndSplineSet
EndChar

StartChar: S
Encoding: 83 83 87
Width: 867
Flags: W
LayerCount: 2
Fore
SplineSet
439 1782 m 0
 727 1782 742 1554 742 1251 c 2
 742 1150 l 1
 574 1150 l 1
 574 1263 l 2
 574 1510 562 1638 440 1638 c 0
 328 1638 284 1556 284 1372 c 0
 284 1212 342 1170 452 1056 c 2
 556 949 l 2
 674 827 770 667 770 440 c 0
 770 164 715 -20 448 -20 c 0
 166 -20 131 215 131 518 c 2
 131 697 l 1
 299 697 l 1
 299 518 l 2
 299 234 323 124 455 124 c 0
 592 124 601 215 601 449 c 0
 601 622 543 728 444 825 c 2
 338 928 l 2
 242 1022 119 1146 119 1347 c 0
 119 1604 171 1782 439 1782 c 0
EndSplineSet
EndChar

StartChar: Sacute
Encoding: 346 346 88
Width: 867
Flags: W
LayerCount: 2
Fore
SplineSet
439 1782 m 0
 727 1782 742 1554 742 1251 c 2
 742 1150 l 1
 574 1150 l 1
 574 1263 l 2
 574 1510 562 1638 440 1638 c 0
 328 1638 284 1556 284 1372 c 0
 284 1212 342 1170 452 1056 c 2
 556 949 l 2
 674 827 770 667 770 440 c 0
 770 164 715 -20 448 -20 c 0
 166 -20 131 215 131 518 c 2
 131 697 l 1
 299 697 l 1
 299 518 l 2
 299 234 323 124 455 124 c 0
 592 124 601 215 601 449 c 0
 601 622 543 728 444 825 c 2
 338 928 l 2
 242 1022 119 1146 119 1347 c 0
 119 1604 171 1782 439 1782 c 0
255 1978 m 1
 660 2141 l 1
 660 1979 l 1
 255 1895 l 1
 255 1978 l 1
EndSplineSet
EndChar

StartChar: Scaron
Encoding: 352 352 89
Width: 867
Flags: W
LayerCount: 2
Fore
SplineSet
439 1782 m 0
 727 1782 742 1554 742 1251 c 2
 742 1150 l 1
 574 1150 l 1
 574 1263 l 2
 574 1510 562 1638 440 1638 c 0
 328 1638 284 1556 284 1372 c 0
 284 1212 342 1170 452 1056 c 2
 556 949 l 2
 674 827 770 667 770 440 c 0
 770 164 715 -20 448 -20 c 0
 166 -20 131 215 131 518 c 2
 131 697 l 1
 299 697 l 1
 299 518 l 2
 299 234 323 124 455 124 c 0
 592 124 601 215 601 449 c 0
 601 622 543 728 444 825 c 2
 338 928 l 2
 242 1022 119 1146 119 1347 c 0
 119 1604 171 1782 439 1782 c 0
520 2109 m 1
 659 2109 l 1
 528 1842 l 1
 340 1842 l 1
 208 2109 l 1
 348 2109 l 1
 434 1924 l 1
 520 2109 l 1
EndSplineSet
EndChar

StartChar: Scedilla
Encoding: 350 350 90
Width: 867
Flags: W
LayerCount: 2
Fore
SplineSet
439 1782 m 0
 727 1782 742 1554 742 1251 c 2
 742 1150 l 1
 574 1150 l 1
 574 1263 l 2
 574 1510 562 1638 440 1638 c 0
 328 1638 284 1556 284 1372 c 0
 284 1212 342 1170 452 1056 c 2
 556 949 l 2
 674 827 770 667 770 440 c 0
 770 164 715 -20 448 -20 c 0
 166 -20 131 215 131 518 c 2
 131 697 l 1
 299 697 l 1
 299 518 l 2
 299 234 323 124 455 124 c 0
 592 124 601 215 601 449 c 0
 601 622 543 728 444 825 c 2
 338 928 l 2
 242 1022 119 1146 119 1347 c 0
 119 1604 171 1782 439 1782 c 0
402 0 m 1
 463 0 l 1
 473 -146 l 1
 605 -208 660 -296 660 -379 c 0
 660 -497 549 -603 388 -603 c 0
 357 -603 325 -599 291 -591 c 1
 291 -501 l 1
 480 -501 522 -434 522 -359 c 0
 522 -269 444 -214 362 -196 c 1
 402 0 l 1
EndSplineSet
EndChar

StartChar: Scircumflex
Encoding: 348 348 91
Width: 867
Flags: W
LayerCount: 2
Fore
SplineSet
439 1782 m 0
 727 1782 742 1554 742 1251 c 2
 742 1150 l 1
 574 1150 l 1
 574 1263 l 2
 574 1510 562 1638 440 1638 c 0
 328 1638 284 1556 284 1372 c 0
 284 1212 342 1170 452 1056 c 2
 556 949 l 2
 674 827 770 667 770 440 c 0
 770 164 715 -20 448 -20 c 0
 166 -20 131 215 131 518 c 2
 131 697 l 1
 299 697 l 1
 299 518 l 2
 299 234 323 124 455 124 c 0
 592 124 601 215 601 449 c 0
 601 622 543 728 444 825 c 2
 338 928 l 2
 242 1022 119 1146 119 1347 c 0
 119 1604 171 1782 439 1782 c 0
340 2109 m 1
 528 2109 l 1
 659 1842 l 1
 520 1842 l 1
 434 2027 l 1
 348 1842 l 1
 208 1842 l 1
 340 2109 l 1
EndSplineSet
EndChar

StartChar: Scommaaccent
Encoding: 536 536 92
Width: 867
Flags: W
LayerCount: 2
Fore
SplineSet
439 1782 m 0
 727 1782 742 1554 742 1251 c 2
 742 1150 l 1
 574 1150 l 1
 574 1263 l 2
 574 1510 562 1638 440 1638 c 0
 328 1638 284 1556 284 1372 c 0
 284 1212 342 1170 452 1056 c 2
 556 949 l 2
 674 827 770 667 770 440 c 0
 770 164 715 -20 448 -20 c 0
 166 -20 131 215 131 518 c 2
 131 697 l 1
 299 697 l 1
 299 518 l 2
 299 234 323 124 455 124 c 0
 592 124 601 215 601 449 c 0
 601 622 543 728 444 825 c 2
 338 928 l 2
 242 1022 119 1146 119 1347 c 0
 119 1604 171 1782 439 1782 c 0
313 -150 m 1
 523 -150 l 1
 523 -345 l 1
 442 -632 l 1
 371 -632 l 1
 416 -354 l 1
 313 -354 l 1
 313 -150 l 1
EndSplineSet
EndChar

StartChar: T
Encoding: 84 84 93
Width: 589
Flags: W
LayerCount: 2
Fore
SplineSet
32 1760 m 1
 557 1760 l 1
 557 1625 l 1
 387 1625 l 1
 387 0 l 1
 219 0 l 1
 219 1625 l 1
 32 1625 l 1
 32 1760 l 1
EndSplineSet
EndChar

StartChar: Tcaron
Encoding: 356 356 94
Width: 589
Flags: W
LayerCount: 2
Fore
SplineSet
32 1760 m 1
 557 1760 l 1
 557 1625 l 1
 387 1625 l 1
 387 0 l 1
 219 0 l 1
 219 1625 l 1
 32 1625 l 1
 32 1760 l 1
381 2109 m 1
 520 2109 l 1
 389 1842 l 1
 201 1842 l 1
 69 2109 l 1
 209 2109 l 1
 295 1924 l 1
 381 2109 l 1
EndSplineSet
EndChar

StartChar: U
Encoding: 85 85 95
Width: 948
Flags: W
LayerCount: 2
Fore
SplineSet
628 1760 m 1
 796 1760 l 1
 796 452 l 2
 796 132 729 -21 476 -21 c 0
 223 -21 152 132 152 452 c 2
 152 1760 l 1
 320 1760 l 1
 320 457 l 2
 320 241 326 119 476 119 c 0
 627 119 628 240 628 456 c 2
 628 1760 l 1
EndSplineSet
EndChar

StartChar: Uacute
Encoding: 218 218 96
Width: 948
Flags: W
LayerCount: 2
Fore
SplineSet
628 1760 m 1
 796 1760 l 1
 796 452 l 2
 796 132 729 -21 476 -21 c 0
 223 -21 152 132 152 452 c 2
 152 1760 l 1
 320 1760 l 1
 320 457 l 2
 320 241 326 119 476 119 c 0
 627 119 628 240 628 456 c 2
 628 1760 l 1
295 1978 m 1
 700 2141 l 1
 700 1979 l 1
 295 1895 l 1
 295 1978 l 1
EndSplineSet
EndChar

StartChar: Ubreve
Encoding: 364 364 97
Width: 948
Flags: W
LayerCount: 2
Fore
SplineSet
628 1760 m 1
 796 1760 l 1
 796 452 l 2
 796 132 729 -21 476 -21 c 0
 223 -21 152 132 152 452 c 2
 152 1760 l 1
 320 1760 l 1
 320 457 l 2
 320 241 326 119 476 119 c 0
 627 119 628 240 628 456 c 2
 628 1760 l 1
599 2094 m 1
 677 2094 l 1
 677 2081 l 2
 677 1958 611 1878 471 1878 c 0
 337 1878 266 1954 266 2079 c 2
 266 2094 l 1
 344 2094 l 1
 344 2000 410 1978 473 1978 c 0
 533 1978 599 1996 599 2094 c 1
EndSplineSet
EndChar

StartChar: Ucircumflex
Encoding: 219 219 98
Width: 948
Flags: W
LayerCount: 2
Fore
SplineSet
628 1760 m 1
 796 1760 l 1
 796 452 l 2
 796 132 729 -21 476 -21 c 0
 223 -21 152 132 152 452 c 2
 152 1760 l 1
 320 1760 l 1
 320 457 l 2
 320 241 326 119 476 119 c 0
 627 119 628 240 628 456 c 2
 628 1760 l 1
380 2109 m 1
 568 2109 l 1
 699 1842 l 1
 560 1842 l 1
 474 2027 l 1
 388 1842 l 1
 248 1842 l 1
 380 2109 l 1
EndSplineSet
EndChar

StartChar: Udieresis
Encoding: 220 220 99
Width: 948
Flags: W
LayerCount: 2
Fore
SplineSet
628 1760 m 1
 796 1760 l 1
 796 452 l 2
 796 132 729 -21 476 -21 c 0
 223 -21 152 132 152 452 c 2
 152 1760 l 1
 320 1760 l 1
 320 457 l 2
 320 241 326 119 476 119 c 0
 627 119 628 240 628 456 c 2
 628 1760 l 1
617 2022 m 1
 815 2022 l 1
 815 1874 l 1
 617 1874 l 1
 617 2022 l 1
133 2022 m 1
 331 2022 l 1
 331 1874 l 1
 133 1874 l 1
 133 2022 l 1
EndSplineSet
EndChar

StartChar: Ugrave
Encoding: 217 217 100
Width: 948
Flags: W
LayerCount: 2
Fore
SplineSet
628 1760 m 1
 796 1760 l 1
 796 452 l 2
 796 132 729 -21 476 -21 c 0
 223 -21 152 132 152 452 c 2
 152 1760 l 1
 320 1760 l 1
 320 457 l 2
 320 241 326 119 476 119 c 0
 627 119 628 240 628 456 c 2
 628 1760 l 1
305 1933 m 1
 305 2110 l 1
 650 1922 l 1
 650 1839 l 1
 305 1933 l 1
EndSplineSet
EndChar

StartChar: Uhungarumlaut
Encoding: 368 368 101
Width: 948
Flags: W
LayerCount: 2
Fore
SplineSet
628 1760 m 1
 796 1760 l 1
 796 452 l 2
 796 132 729 -21 476 -21 c 0
 223 -21 152 132 152 452 c 2
 152 1760 l 1
 320 1760 l 1
 320 457 l 2
 320 241 326 119 476 119 c 0
 627 119 628 240 628 456 c 2
 628 1760 l 1
511 1955 m 1
 682 2354 l 1
 856 2263 l 1
 586 1913 l 1
 511 1955 l 1
246 1955 m 1
 360 2354 l 1
 531 2273 l 1
 322 1923 l 1
 246 1955 l 1
EndSplineSet
EndChar

StartChar: Umacron
Encoding: 362 362 102
Width: 948
Flags: W
LayerCount: 2
Fore
SplineSet
628 1760 m 1
 796 1760 l 1
 796 452 l 2
 796 132 729 -21 476 -21 c 0
 223 -21 152 132 152 452 c 2
 152 1760 l 1
 320 1760 l 1
 320 457 l 2
 320 241 326 119 476 119 c 0
 627 119 628 240 628 456 c 2
 628 1760 l 1
216 1970 m 1
 713 1970 l 1
 713 1851 l 1
 216 1851 l 1
 216 1970 l 1
EndSplineSet
EndChar

StartChar: Uogonek
Encoding: 370 370 103
Width: 948
Flags: W
LayerCount: 2
Fore
SplineSet
628 1760 m 1
 796 1760 l 1
 796 452 l 2
 796 132 729 -21 476 -21 c 0
 223 -21 152 132 152 452 c 2
 152 1760 l 1
 320 1760 l 1
 320 457 l 2
 320 241 326 119 476 119 c 0
 627 119 628 240 628 456 c 2
 628 1760 l 1
467 9 m 1
 538 9 l 1
 408 -115 325 -267 325 -373 c 0
 325 -451 370 -505 473 -505 c 0
 553 -505 618 -483 619 -482 c 1
 619 -582 l 1
 596 -595 518 -617 450 -617 c 0
 270 -617 189 -519 189 -396 c 0
 189 -259 290 -91 467 9 c 1
EndSplineSet
EndChar

StartChar: Uring
Encoding: 366 366 104
Width: 948
Flags: W
LayerCount: 2
Fore
SplineSet
628 1760 m 1
 796 1760 l 1
 796 452 l 2
 796 132 729 -21 476 -21 c 0
 223 -21 152 132 152 452 c 2
 152 1760 l 1
 320 1760 l 1
 320 457 l 2
 320 241 326 119 476 119 c 0
 627 119 628 240 628 456 c 2
 628 1760 l 1
473 2166 m 0
 593 2166 652 2084 652 2002 c 0
 652 1920 593 1838 473 1838 c 0
 354 1838 294 1920 294 2002 c 0
 294 2084 354 2166 473 2166 c 0
473 2109 m 0
 407 2109 373 2056 373 2003 c 0
 373 1949 407 1896 473 1896 c 0
 542 1896 576 1949 576 2003 c 0
 576 2056 542 2109 473 2109 c 0
EndSplineSet
EndChar

StartChar: Utilde
Encoding: 360 360 105
Width: 948
Flags: W
LayerCount: 2
Fore
SplineSet
628 1760 m 1
 796 1760 l 1
 796 452 l 2
 796 132 729 -21 476 -21 c 0
 223 -21 152 132 152 452 c 2
 152 1760 l 1
 320 1760 l 1
 320 457 l 2
 320 241 326 119 476 119 c 0
 627 119 628 240 628 456 c 2
 628 1760 l 1
347 2090 m 0
 428 2090 551 2016 601 2016 c 2
 605 2016 l 1
 624 2019 640 2027 661 2087 c 1
 772 2059 l 1
 763 2029 l 2
 724 1899 685 1879 617 1879 c 0
 529 1879 431 1961 348 1961 c 0
 340 1961 332 1961 325 1959 c 0
 303 1954 292 1935 274 1900 c 1
 175 1947 l 1
 214 2082 279 2090 347 2090 c 0
EndSplineSet
EndChar

StartChar: V
Encoding: 86 86 106
Width: 892
Flags: W
LayerCount: 2
Fore
SplineSet
670 1760 m 1
 830 1760 l 1
 552 0 l 1
 368 0 l 1
 62 1760 l 1
 223 1760 l 1
 342 1046 l 1
 459 332 l 1
 461 332 l 1
 565 1046 l 1
 670 1760 l 1
EndSplineSet
EndChar

StartChar: W
Encoding: 87 87 107
Width: 1369
Flags: W
LayerCount: 2
Fore
SplineSet
1132 1760 m 1
 1289 1760 l 1
 1078 0 l 1
 912 0 l 1
 704 1379 l 1
 481 0 l 1
 323 0 l 1
 80 1760 l 1
 241 1760 l 1
 404 352 l 1
 627 1760 l 1
 766 1760 l 1
 996 352 l 1
 1132 1760 l 1
EndSplineSet
EndChar

StartChar: Wacute
Encoding: 7810 7810 108
Width: 1369
Flags: W
LayerCount: 2
Fore
SplineSet
1132 1760 m 1
 1289 1760 l 1
 1078 0 l 1
 912 0 l 1
 704 1379 l 1
 481 0 l 1
 323 0 l 1
 80 1760 l 1
 241 1760 l 1
 404 352 l 1
 627 1760 l 1
 766 1760 l 1
 996 352 l 1
 1132 1760 l 1
515 1978 m 1
 920 2141 l 1
 920 1979 l 1
 515 1895 l 1
 515 1978 l 1
EndSplineSet
EndChar

StartChar: Wcircumflex
Encoding: 372 372 109
Width: 1369
Flags: W
LayerCount: 2
Fore
SplineSet
1132 1760 m 1
 1289 1760 l 1
 1078 0 l 1
 912 0 l 1
 704 1379 l 1
 481 0 l 1
 323 0 l 1
 80 1760 l 1
 241 1760 l 1
 404 352 l 1
 627 1760 l 1
 766 1760 l 1
 996 352 l 1
 1132 1760 l 1
600 2109 m 1
 788 2109 l 1
 919 1842 l 1
 780 1842 l 1
 694 2027 l 1
 608 1842 l 1
 468 1842 l 1
 600 2109 l 1
EndSplineSet
EndChar

StartChar: Wdieresis
Encoding: 7812 7812 110
Width: 1369
Flags: W
LayerCount: 2
Fore
SplineSet
1132 1760 m 1
 1289 1760 l 1
 1078 0 l 1
 912 0 l 1
 704 1379 l 1
 481 0 l 1
 323 0 l 1
 80 1760 l 1
 241 1760 l 1
 404 352 l 1
 627 1760 l 1
 766 1760 l 1
 996 352 l 1
 1132 1760 l 1
837 2022 m 1
 1035 2022 l 1
 1035 1874 l 1
 837 1874 l 1
 837 2022 l 1
353 2022 m 1
 551 2022 l 1
 551 1874 l 1
 353 1874 l 1
 353 2022 l 1
EndSplineSet
EndChar

StartChar: Wgrave
Encoding: 7808 7808 111
Width: 1369
Flags: W
LayerCount: 2
Fore
SplineSet
1132 1760 m 1
 1289 1760 l 1
 1078 0 l 1
 912 0 l 1
 704 1379 l 1
 481 0 l 1
 323 0 l 1
 80 1760 l 1
 241 1760 l 1
 404 352 l 1
 627 1760 l 1
 766 1760 l 1
 996 352 l 1
 1132 1760 l 1
525 1933 m 1
 525 2110 l 1
 870 1922 l 1
 870 1839 l 1
 525 1933 l 1
EndSplineSet
EndChar

StartChar: X
Encoding: 88 88 112
Width: 774
Flags: W
LayerCount: 2
Fore
SplineSet
560 1760 m 1
 705 1760 l 1
 460 794 l 1
 413 788 l 1
 213 0 l 1
 68 0 l 1
 316 959 l 1
 361 959 l 1
 560 1760 l 1
80 1760 m 1
 232 1760 l 1
 706 0 l 1
 557 0 l 1
 80 1760 l 1
EndSplineSet
EndChar

StartChar: Y
Encoding: 89 89 113
Width: 828
Flags: W
LayerCount: 2
Fore
SplineSet
628 1760 m 1
 798 1760 l 1
 512 762 l 1
 512 0 l 1
 344 0 l 1
 344 761 l 1
 30 1760 l 1
 197 1760 l 1
 427 1001 l 1
 430 1001 l 1
 628 1760 l 1
EndSplineSet
EndChar

StartChar: Yacute
Encoding: 221 221 114
Width: 828
Flags: W
LayerCount: 2
Fore
SplineSet
628 1760 m 1
 798 1760 l 1
 512 762 l 1
 512 0 l 1
 344 0 l 1
 344 761 l 1
 30 1760 l 1
 197 1760 l 1
 427 1001 l 1
 430 1001 l 1
 628 1760 l 1
242 1978 m 1
 647 2141 l 1
 647 1979 l 1
 242 1895 l 1
 242 1978 l 1
EndSplineSet
EndChar

StartChar: Ycircumflex
Encoding: 374 374 115
Width: 828
Flags: W
LayerCount: 2
Fore
SplineSet
628 1760 m 1
 798 1760 l 1
 512 762 l 1
 512 0 l 1
 344 0 l 1
 344 761 l 1
 30 1760 l 1
 197 1760 l 1
 427 1001 l 1
 430 1001 l 1
 628 1760 l 1
327 2109 m 1
 515 2109 l 1
 646 1842 l 1
 507 1842 l 1
 421 2027 l 1
 335 1842 l 1
 195 1842 l 1
 327 2109 l 1
EndSplineSet
EndChar

StartChar: Ydieresis
Encoding: 376 376 116
Width: 828
Flags: W
LayerCount: 2
Fore
SplineSet
628 1760 m 1
 798 1760 l 1
 512 762 l 1
 512 0 l 1
 344 0 l 1
 344 761 l 1
 30 1760 l 1
 197 1760 l 1
 427 1001 l 1
 430 1001 l 1
 628 1760 l 1
564 2022 m 1
 762 2022 l 1
 762 1874 l 1
 564 1874 l 1
 564 2022 l 1
80 2022 m 1
 278 2022 l 1
 278 1874 l 1
 80 1874 l 1
 80 2022 l 1
EndSplineSet
EndChar

StartChar: Ygrave
Encoding: 7922 7922 117
Width: 828
Flags: W
LayerCount: 2
Fore
SplineSet
628 1760 m 1
 798 1760 l 1
 512 762 l 1
 512 0 l 1
 344 0 l 1
 344 761 l 1
 30 1760 l 1
 197 1760 l 1
 427 1001 l 1
 430 1001 l 1
 628 1760 l 1
252 1933 m 1
 252 2110 l 1
 597 1922 l 1
 597 1839 l 1
 252 1933 l 1
EndSplineSet
EndChar

StartChar: Z
Encoding: 90 90 118
Width: 736
Flags: W
LayerCount: 2
Fore
SplineSet
159 1760 m 1
 660 1760 l 1
 660 1639 l 1
 297 136 l 1
 652 136 l 1
 652 0 l 1
 126 0 l 1
 126 143 l 1
 487 1625 l 1
 159 1625 l 1
 159 1760 l 1
EndSplineSet
EndChar

StartChar: Zacute
Encoding: 377 377 119
Width: 736
Flags: W
LayerCount: 2
Fore
SplineSet
159 1760 m 1
 660 1760 l 1
 660 1639 l 1
 297 136 l 1
 652 136 l 1
 652 0 l 1
 126 0 l 1
 126 143 l 1
 487 1625 l 1
 159 1625 l 1
 159 1760 l 1
239 1978 m 1
 644 2141 l 1
 644 1979 l 1
 239 1895 l 1
 239 1978 l 1
EndSplineSet
EndChar

StartChar: Zcaron
Encoding: 381 381 120
Width: 736
Flags: W
LayerCount: 2
Fore
SplineSet
159 1760 m 1
 660 1760 l 1
 660 1639 l 1
 297 136 l 1
 652 136 l 1
 652 0 l 1
 126 0 l 1
 126 143 l 1
 487 1625 l 1
 159 1625 l 1
 159 1760 l 1
504 2109 m 1
 643 2109 l 1
 512 1842 l 1
 324 1842 l 1
 192 2109 l 1
 332 2109 l 1
 418 1924 l 1
 504 2109 l 1
EndSplineSet
EndChar

StartChar: Zdotaccent
Encoding: 379 379 121
Width: 736
Flags: W
LayerCount: 2
Fore
SplineSet
159 1760 m 1
 660 1760 l 1
 660 1639 l 1
 297 136 l 1
 652 136 l 1
 652 0 l 1
 126 0 l 1
 126 143 l 1
 487 1625 l 1
 159 1625 l 1
 159 1760 l 1
335 2006 m 1
 512 2006 l 1
 512 1858 l 1
 335 1858 l 1
 335 2006 l 1
EndSplineSet
EndChar

StartChar: uni01C4
Encoding: 452 452 122
Width: 1649
Flags: W
LayerCount: 2
Fore
SplineSet
150 1760 m 1
 441 1760 l 2
 723 1760 786 1569 786 1266 c 2
 787 506 l 2
 787 143 693 0 435 0 c 2
 150 0 l 1
 150 1760 l 1
441 1623 m 2
 318 1623 l 1
 318 141 l 1
 435 141 l 2
 558 141 619 204 619 505 c 2
 618 1278 l 2
 618 1525 563 1623 441 1623 c 2
1072 1760 m 1
 1573 1760 l 1
 1573 1639 l 1
 1210 136 l 1
 1565 136 l 1
 1565 0 l 1
 1039 0 l 1
 1039 143 l 1
 1400 1625 l 1
 1072 1625 l 1
 1072 1760 l 1
1417 2109 m 1
 1556 2109 l 1
 1425 1842 l 1
 1237 1842 l 1
 1105 2109 l 1
 1245 2109 l 1
 1331 1924 l 1
 1417 2109 l 1
EndSplineSet
EndChar

StartChar: uni01C5
Encoding: 453 453 123
Width: 1563
Flags: W
LayerCount: 2
Fore
SplineSet
150 1760 m 1
 441 1760 l 2
 723 1760 786 1569 786 1266 c 2
 787 506 l 2
 787 143 693 0 435 0 c 2
 150 0 l 1
 150 1760 l 1
441 1623 m 2
 318 1623 l 1
 318 141 l 1
 435 141 l 2
 558 141 619 204 619 505 c 2
 618 1278 l 2
 618 1525 563 1623 441 1623 c 2
1018 1500 m 1
 1499 1500 l 1
 1499 1391 l 1
 1166 145 l 1
 1480 145 l 1
 1480 0 l 1
 993 0 l 1
 993 123 l 1
 1322 1355 l 1
 1018 1355 l 1
 1018 1500 l 1
1371 1849 m 1
 1510 1849 l 1
 1379 1582 l 1
 1191 1582 l 1
 1059 1849 l 1
 1199 1849 l 1
 1285 1664 l 1
 1371 1849 l 1
EndSplineSet
EndChar

StartChar: uni01C7
Encoding: 455 455 124
Width: 1557
Flags: W
LayerCount: 2
Fore
SplineSet
152 1760 m 1
 320 1760 l 1
 320 136 l 1
 637 136 l 1
 637 0 l 1
 152 0 l 1
 152 1760 l 1
1221 1760 m 1
 1389 1760 l 1
 1389 422 l 2
 1389 122 1305 -21 1105 -21 c 0
 886 -21 809 113 809 389 c 2
 809 566 l 1
 977 566 l 1
 977 402 l 2
 977 250 976 120 1099 120 c 0
 1224 120 1221 243 1221 418 c 2
 1221 1760 l 1
EndSplineSet
EndChar

StartChar: uni01C8
Encoding: 456 456 125
Width: 1233
Flags: W
LayerCount: 2
Fore
SplineSet
152 1760 m 1
 320 1760 l 1
 320 136 l 1
 637 136 l 1
 637 0 l 1
 152 0 l 1
 152 1760 l 1
909 1500 m 1
 1077 1500 l 1
 1077 -16 l 2
 1077 -177 987 -212 939 -217 c 0
 868 -225 801 -212 801 -212 c 1
 801 -92 l 1
 801 -92 840 -96 868 -93 c 1
 900 -88 909 -63 909 -26 c 2
 909 1500 l 1
909 1800 m 1
 1077 1800 l 1
 1077 1614 l 1
 909 1614 l 1
 909 1800 l 1
EndSplineSet
EndChar

StartChar: uni01CA
Encoding: 458 458 126
Width: 1818
Flags: W
LayerCount: 2
Fore
SplineSet
682 1760 m 1
 828 1760 l 1
 828 0 l 1
 700 0 l 1
 297 1280 l 1
 308 848 l 1
 308 0 l 1
 152 0 l 1
 152 1760 l 1
 273 1760 l 1
 704 473 l 1
 682 1000 l 1
 682 1760 l 1
1482 1760 m 1
 1650 1760 l 1
 1650 422 l 2
 1650 122 1566 -21 1366 -21 c 0
 1147 -21 1070 113 1070 389 c 2
 1070 566 l 1
 1238 566 l 1
 1238 402 l 2
 1238 250 1237 120 1360 120 c 0
 1485 120 1482 243 1482 418 c 2
 1482 1760 l 1
EndSplineSet
EndChar

StartChar: uni01CB
Encoding: 459 459 127
Width: 1494
Flags: W
LayerCount: 2
Fore
SplineSet
682 1760 m 1
 828 1760 l 1
 828 0 l 1
 700 0 l 1
 297 1280 l 1
 308 848 l 1
 308 0 l 1
 152 0 l 1
 152 1760 l 1
 273 1760 l 1
 704 473 l 1
 682 1000 l 1
 682 1760 l 1
1170 1500 m 1
 1338 1500 l 1
 1338 -16 l 2
 1338 -177 1248 -212 1200 -217 c 0
 1129 -225 1062 -212 1062 -212 c 1
 1062 -92 l 1
 1062 -92 1101 -96 1129 -93 c 1
 1161 -88 1170 -63 1170 -26 c 2
 1170 1500 l 1
1170 1800 m 1
 1338 1800 l 1
 1338 1614 l 1
 1170 1614 l 1
 1170 1800 l 1
EndSplineSet
EndChar

StartChar: uni01F1
Encoding: 497 497 128
Width: 1649
Flags: W
LayerCount: 2
Fore
SplineSet
150 1760 m 1
 441 1760 l 2
 723 1760 786 1569 786 1266 c 2
 787 506 l 2
 787 143 693 0 435 0 c 2
 150 0 l 1
 150 1760 l 1
441 1623 m 2
 318 1623 l 1
 318 141 l 1
 435 141 l 2
 558 141 619 204 619 505 c 2
 618 1278 l 2
 618 1525 563 1623 441 1623 c 2
1072 1760 m 1
 1573 1760 l 1
 1573 1639 l 1
 1210 136 l 1
 1565 136 l 1
 1565 0 l 1
 1039 0 l 1
 1039 143 l 1
 1400 1625 l 1
 1072 1625 l 1
 1072 1760 l 1
EndSplineSet
EndChar

StartChar: uni01F2
Encoding: 498 498 129
Width: 1563
Flags: W
LayerCount: 2
Fore
SplineSet
150 1760 m 1
 441 1760 l 2
 723 1760 786 1569 786 1266 c 2
 787 506 l 2
 787 143 693 0 435 0 c 2
 150 0 l 1
 150 1760 l 1
441 1623 m 2
 318 1623 l 1
 318 141 l 1
 435 141 l 2
 558 141 619 204 619 505 c 2
 618 1278 l 2
 618 1525 563 1623 441 1623 c 2
1018 1500 m 1
 1499 1500 l 1
 1499 1391 l 1
 1166 145 l 1
 1480 145 l 1
 1480 0 l 1
 993 0 l 1
 993 123 l 1
 1322 1355 l 1
 1018 1355 l 1
 1018 1500 l 1
EndSplineSet
EndChar

StartChar: uni01F4
Encoding: 500 500 130
Width: 923
Flags: W
LayerCount: 2
Fore
SplineSet
460 1781 m 0
 742 1781 766 1554 766 1251 c 2
 766 1107 l 1
 598 1107 l 1
 598 1365 l 2
 598 1544 574 1636 457 1636 c 0
 335 1636 296 1540 296 1264 c 2
 296 539 l 2
 296 237 322 120 451 120 c 0
 574 120 604 238 604 539 c 2
 604 763 l 1
 456 763 l 1
 456 901 l 1
 766 901 l 1
 766 0 l 1
 664 0 l 1
 644 113 l 1
 600 28 533 -16 422 -16 c 0
 223 -16 128 139 128 529 c 2
 128 1251 l 2
 128 1554 178 1781 460 1781 c 0
282 1978 m 1
 687 2141 l 1
 687 1979 l 1
 282 1895 l 1
 282 1978 l 1
EndSplineSet
EndChar

StartChar: uni0200
Encoding: 512 512 131
Width: 916
Flags: W
LayerCount: 2
Fore
SplineSet
352 1760 m 1
 536 1760 l 1
 842 0 l 1
 681 0 l 1
 449 1447 l 1
 447 1447 l 1
 234 0 l 1
 74 0 l 1
 352 1760 l 1
256 488 m 1
 657 488 l 1
 657 350 l 1
 256 350 l 1
 256 488 l 1
41 2187 m 1
 185 2285 l 1
 376 1946 l 1
 300 1898 l 1
 41 2187 l 1
354 2187 m 1
 494 2285 l 1
 648 1946 l 1
 572 1898 l 1
 354 2187 l 1
EndSplineSet
EndChar

StartChar: uni0202
Encoding: 514 514 132
Width: 916
Flags: W
LayerCount: 2
Fore
SplineSet
352 1760 m 1
 536 1760 l 1
 842 0 l 1
 681 0 l 1
 449 1447 l 1
 447 1447 l 1
 234 0 l 1
 74 0 l 1
 352 1760 l 1
256 488 m 1
 657 488 l 1
 657 350 l 1
 256 350 l 1
 256 488 l 1
437 2085 m 1
 571 2089 644 2015 647 1890 c 1
 647 1875 l 1
 569 1873 l 1
 567 1967 500 1987 437 1985 c 0
 378 1984 312 1964 314 1866 c 1
 236 1864 l 1
 236 1877 l 1
 233 2000 297 2082 437 2085 c 1
EndSplineSet
EndChar

StartChar: uni0204
Encoding: 516 516 133
Width: 746
Flags: W
LayerCount: 2
Fore
SplineSet
150 1760 m 1
 635 1760 l 1
 635 1625 l 1
 318 1625 l 1
 318 966 l 1
 617 966 l 1
 617 828 l 1
 318 828 l 1
 318 136 l 1
 635 136 l 1
 635 0 l 1
 150 0 l 1
 150 1760 l 1
-5 2187 m 1
 139 2285 l 1
 330 1946 l 1
 254 1898 l 1
 -5 2187 l 1
308 2187 m 1
 448 2285 l 1
 602 1946 l 1
 526 1898 l 1
 308 2187 l 1
EndSplineSet
EndChar

StartChar: uni0206
Encoding: 518 518 134
Width: 746
Flags: W
LayerCount: 2
Fore
SplineSet
150 1760 m 1
 635 1760 l 1
 635 1625 l 1
 318 1625 l 1
 318 966 l 1
 617 966 l 1
 617 828 l 1
 318 828 l 1
 318 136 l 1
 635 136 l 1
 635 0 l 1
 150 0 l 1
 150 1760 l 1
391 2085 m 1
 525 2089 598 2015 601 1890 c 1
 601 1875 l 1
 523 1873 l 1
 521 1967 454 1987 391 1985 c 0
 332 1984 266 1964 268 1866 c 1
 190 1864 l 1
 190 1877 l 1
 187 2000 251 2082 391 2085 c 1
EndSplineSet
EndChar

StartChar: uni0208
Encoding: 520 520 135
Width: 512
Flags: W
LayerCount: 2
Fore
SplineSet
172 1760 m 1
 340 1760 l 1
 340 0 l 1
 172 0 l 1
 172 1760 l 1
-148 2187 m 1
 -4 2285 l 1
 187 1946 l 1
 111 1898 l 1
 -148 2187 l 1
165 2187 m 1
 305 2285 l 1
 459 1946 l 1
 383 1898 l 1
 165 2187 l 1
EndSplineSet
EndChar

StartChar: uni020A
Encoding: 522 522 136
Width: 512
Flags: W
LayerCount: 2
Fore
SplineSet
172 1760 m 1
 340 1760 l 1
 340 0 l 1
 172 0 l 1
 172 1760 l 1
248 2085 m 1
 382 2089 455 2015 458 1890 c 1
 458 1875 l 1
 380 1873 l 1
 378 1967 311 1987 248 1985 c 0
 189 1984 123 1964 125 1866 c 1
 47 1864 l 1
 47 1877 l 1
 44 2000 108 2082 248 2085 c 1
EndSplineSet
EndChar

StartChar: uni020C
Encoding: 524 524 137
Width: 900
Flags: W
LayerCount: 2
Fore
SplineSet
458 1782 m 0
 740 1782 772 1576 772 1273 c 2
 772 515 l 2
 772 152 710 -20 452 -20 c 0
 194 -20 128 152 128 515 c 2
 128 1273 l 2
 128 1576 176 1782 458 1782 c 0
458 1638 m 0
 330 1638 296 1531 296 1286 c 2
 296 514 l 2
 296 212 323 124 452 124 c 0
 575 124 604 213 604 514 c 2
 604 1285 l 2
 604 1532 580 1638 458 1638 c 0
46 2187 m 1
 190 2285 l 1
 381 1946 l 1
 305 1898 l 1
 46 2187 l 1
359 2187 m 1
 499 2285 l 1
 653 1946 l 1
 577 1898 l 1
 359 2187 l 1
EndSplineSet
EndChar

StartChar: uni020E
Encoding: 526 526 138
Width: 900
Flags: W
LayerCount: 2
Fore
SplineSet
458 1782 m 0
 740 1782 772 1576 772 1273 c 2
 772 515 l 2
 772 152 710 -20 452 -20 c 0
 194 -20 128 152 128 515 c 2
 128 1273 l 2
 128 1576 176 1782 458 1782 c 0
458 1638 m 0
 330 1638 296 1531 296 1286 c 2
 296 514 l 2
 296 212 323 124 452 124 c 0
 575 124 604 213 604 514 c 2
 604 1285 l 2
 604 1532 580 1638 458 1638 c 0
442 2085 m 1
 576 2089 649 2015 652 1890 c 1
 652 1875 l 1
 574 1873 l 1
 572 1967 505 1987 442 1985 c 0
 383 1984 317 1964 319 1866 c 1
 241 1864 l 1
 241 1877 l 1
 238 2000 302 2082 442 2085 c 1
EndSplineSet
EndChar

StartChar: uni0210
Encoding: 528 528 139
Width: 952
Flags: W
LayerCount: 2
Fore
SplineSet
152 1760 m 1
 474 1760 l 2
 756 1760 788 1624 788 1321 c 0
 788 1098 750 961 626 926 c 1
 760 904 788 768 788 210 c 0
 788 137 788 53 808 0 c 1
 640 0 l 1
 621 37 620 137 620 569 c 0
 620 796 619 853 467 853 c 1
 320 862 l 1
 320 0 l 1
 152 0 l 1
 152 1760 l 1
474 1623 m 2
 320 1623 l 1
 320 979 l 1
 468 979 l 2
 591 979 620 1019 620 1320 c 2
 620 1333 l 2
 620 1580 596 1623 474 1623 c 2
62 2187 m 1
 206 2285 l 1
 397 1946 l 1
 321 1898 l 1
 62 2187 l 1
375 2187 m 1
 515 2285 l 1
 669 1946 l 1
 593 1898 l 1
 375 2187 l 1
EndSplineSet
EndChar

StartChar: uni0212
Encoding: 530 530 140
Width: 952
Flags: W
LayerCount: 2
Fore
SplineSet
152 1760 m 1
 474 1760 l 2
 756 1760 788 1624 788 1321 c 0
 788 1098 750 961 626 926 c 1
 760 904 788 768 788 210 c 0
 788 137 788 53 808 0 c 1
 640 0 l 1
 621 37 620 137 620 569 c 0
 620 796 619 853 467 853 c 1
 320 862 l 1
 320 0 l 1
 152 0 l 1
 152 1760 l 1
474 1623 m 2
 320 1623 l 1
 320 979 l 1
 468 979 l 2
 591 979 620 1019 620 1320 c 2
 620 1333 l 2
 620 1580 596 1623 474 1623 c 2
458 2085 m 1
 592 2089 665 2015 668 1890 c 1
 668 1875 l 1
 590 1873 l 1
 588 1967 521 1987 458 1985 c 0
 399 1984 333 1964 335 1866 c 1
 257 1864 l 1
 257 1877 l 1
 254 2000 318 2082 458 2085 c 1
EndSplineSet
EndChar

StartChar: uni0214
Encoding: 532 532 141
Width: 948
Flags: W
LayerCount: 2
Fore
SplineSet
628 1760 m 1
 796 1760 l 1
 796 452 l 2
 796 132 729 -21 476 -21 c 0
 223 -21 152 132 152 452 c 2
 152 1760 l 1
 320 1760 l 1
 320 457 l 2
 320 241 326 119 476 119 c 0
 627 119 628 240 628 456 c 2
 628 1760 l 1
70 2187 m 1
 214 2285 l 1
 405 1946 l 1
 329 1898 l 1
 70 2187 l 1
383 2187 m 1
 523 2285 l 1
 677 1946 l 1
 601 1898 l 1
 383 2187 l 1
EndSplineSet
EndChar

StartChar: uni0216
Encoding: 534 534 142
Width: 948
Flags: W
LayerCount: 2
Fore
SplineSet
628 1760 m 1
 796 1760 l 1
 796 452 l 2
 796 132 729 -21 476 -21 c 0
 223 -21 152 132 152 452 c 2
 152 1760 l 1
 320 1760 l 1
 320 457 l 2
 320 241 326 119 476 119 c 0
 627 119 628 240 628 456 c 2
 628 1760 l 1
466 2085 m 1
 600 2089 673 2015 676 1890 c 1
 676 1875 l 1
 598 1873 l 1
 596 1967 529 1987 466 1985 c 0
 407 1984 341 1964 343 1866 c 1
 265 1864 l 1
 265 1877 l 1
 262 2000 326 2082 466 2085 c 1
EndSplineSet
EndChar

StartChar: uni021A
Encoding: 538 538 143
Width: 589
Flags: W
LayerCount: 2
Fore
SplineSet
32 1760 m 1
 557 1760 l 1
 557 1625 l 1
 387 1625 l 1
 387 0 l 1
 219 0 l 1
 219 1625 l 1
 32 1625 l 1
 32 1760 l 1
174 -150 m 1
 384 -150 l 1
 384 -345 l 1
 303 -632 l 1
 232 -632 l 1
 277 -354 l 1
 174 -354 l 1
 174 -150 l 1
EndSplineSet
EndChar

StartChar: uni1E02
Encoding: 7682 7682 144
Width: 938
Flags: W
LayerCount: 2
Fore
SplineSet
172 1760 m 1
 449 1760 l 2
 722 1760 780 1647 783 1365 c 1
 783 1337 l 2
 783 1134 763 1010 663 949 c 1
 780 895 808 718 808 522 c 2
 808 489 l 1
 804 151 737 0 488 0 c 2
 172 0 l 1
 172 1760 l 1
494 878 m 2
 340 878 l 1
 340 141 l 1
 488 141 l 2
 611 141 640 223 640 524 c 2
 640 533 l 2
 640 780 616 878 494 878 c 2
449 1616 m 2
 340 1616 l 1
 340 1011 l 1
 469 1011 l 2
 592 1011 615 1036 615 1337 c 2
 615 1350 l 1
 613 1585 569 1616 449 1616 c 2
368 2006 m 1
 545 2006 l 1
 545 1858 l 1
 368 1858 l 1
 368 2006 l 1
EndSplineSet
EndChar

StartChar: uni1E0A
Encoding: 7690 7690 145
Width: 913
Flags: W
LayerCount: 2
Fore
SplineSet
150 1760 m 1
 441 1760 l 2
 723 1760 786 1569 786 1266 c 2
 787 506 l 2
 787 143 693 0 435 0 c 2
 150 0 l 1
 150 1760 l 1
441 1623 m 2
 318 1623 l 1
 318 141 l 1
 435 141 l 2
 558 141 619 204 619 505 c 2
 618 1278 l 2
 618 1525 563 1623 441 1623 c 2
362 2006 m 1
 539 2006 l 1
 539 1858 l 1
 362 1858 l 1
 362 2006 l 1
EndSplineSet
EndChar

StartChar: uni1E1E
Encoding: 7710 7710 146
Width: 727
Flags: W
LayerCount: 2
Fore
SplineSet
150 1760 m 1
 635 1760 l 1
 635 1625 l 1
 318 1625 l 1
 318 1014 l 1
 617 1014 l 1
 617 876 l 1
 318 876 l 1
 318 0 l 1
 150 0 l 1
 150 1760 l 1
203 246 m 1
 380 246 l 1
 380 98 l 1
 203 98 l 1
 203 246 l 1
EndSplineSet
EndChar

StartChar: uni1E40
Encoding: 7744 7744 147
Width: 1220
Flags: W
LayerCount: 2
Fore
SplineSet
857 1760 m 1
 1068 1760 l 1
 1068 0 l 1
 919 0 l 1
 919 738 l 1
 940 1430 l 1
 700 0 l 1
 530 0 l 1
 280 1430 l 1
 301 738 l 1
 301 0 l 1
 152 0 l 1
 152 1760 l 1
 363 1760 l 1
 615 212 l 1
 857 1760 l 1
533 2006 m 1
 710 2006 l 1
 710 1858 l 1
 533 1858 l 1
 533 2006 l 1
EndSplineSet
EndChar

StartChar: uni1E56
Encoding: 7766 7766 148
Width: 873
Flags: W
LayerCount: 2
Fore
SplineSet
152 1760 m 1
 474 1760 l 2
 756 1760 788 1554 788 1251 c 2
 788 1230 l 2
 788 867 726 690 468 690 c 2
 320 690 l 1
 320 0 l 1
 152 0 l 1
 152 1760 l 1
474 1623 m 2
 320 1623 l 1
 320 831 l 1
 468 831 l 2
 591 831 620 928 620 1229 c 2
 620 1263 l 2
 620 1510 596 1623 474 1623 c 2
366 2006 m 1
 543 2006 l 1
 543 1858 l 1
 366 1858 l 1
 366 2006 l 1
EndSplineSet
EndChar

StartChar: uni1E60
Encoding: 7776 7776 149
Width: 867
Flags: W
LayerCount: 2
Fore
SplineSet
439 1782 m 0
 727 1782 742 1554 742 1251 c 2
 742 1150 l 1
 574 1150 l 1
 574 1263 l 2
 574 1510 562 1638 440 1638 c 0
 328 1638 284 1556 284 1372 c 0
 284 1212 342 1170 452 1056 c 2
 556 949 l 2
 674 827 770 667 770 440 c 0
 770 164 715 -20 448 -20 c 0
 166 -20 131 215 131 518 c 2
 131 697 l 1
 299 697 l 1
 299 518 l 2
 299 234 323 124 455 124 c 0
 592 124 601 215 601 449 c 0
 601 622 543 728 444 825 c 2
 338 928 l 2
 242 1022 119 1146 119 1347 c 0
 119 1604 171 1782 439 1782 c 0
351 2006 m 1
 528 2006 l 1
 528 1858 l 1
 351 1858 l 1
 351 2006 l 1
EndSplineSet
EndChar

StartChar: uni1E6A
Encoding: 7786 7786 150
Width: 589
Flags: W
LayerCount: 2
Fore
SplineSet
32 1760 m 1
 557 1760 l 1
 557 1625 l 1
 387 1625 l 1
 387 0 l 1
 219 0 l 1
 219 1625 l 1
 32 1625 l 1
 32 1760 l 1
212 2006 m 1
 389 2006 l 1
 389 1858 l 1
 212 1858 l 1
 212 2006 l 1
EndSplineSet
EndChar

StartChar: a
Encoding: 97 97 151
Width: 891
Flags: W
LayerCount: 2
Fore
SplineSet
458 1518 m 0
 737 1518 750 1332 750 991 c 2
 750 0 l 1
 582 0 l 1
 582 118 l 1
 568 73 504 -12 383 -12 c 0
 216 -12 138 130 138 380 c 2
 138 556 l 2
 138 793 342 855 604 967 c 1
 604 844 l 1
 350 730 306 707 306 516 c 2
 306 390 l 2
 306 200 328 126 420 126 c 0
 496 126 561 184 582 226 c 1
 582 1064 l 2
 582 1281 578 1374 457 1374 c 0
 338 1374 324 1284 324 1057 c 2
 324 1015 l 1
 156 1015 l 1
 156 1056 l 2
 156 1302 177 1518 458 1518 c 0
EndSplineSet
EndChar

StartChar: aacute
Encoding: 225 225 152
Width: 891
Flags: W
LayerCount: 2
Fore
SplineSet
458 1518 m 0
 737 1518 750 1332 750 991 c 2
 750 0 l 1
 582 0 l 1
 582 118 l 1
 568 73 504 -12 383 -12 c 0
 216 -12 138 130 138 380 c 2
 138 556 l 2
 138 793 342 855 604 967 c 1
 604 844 l 1
 350 730 306 707 306 516 c 2
 306 390 l 2
 306 200 328 126 420 126 c 0
 496 126 561 184 582 226 c 1
 582 1064 l 2
 582 1281 578 1374 457 1374 c 0
 338 1374 324 1284 324 1057 c 2
 324 1015 l 1
 156 1015 l 1
 156 1056 l 2
 156 1302 177 1518 458 1518 c 0
285 1718 m 1
 690 1881 l 1
 690 1719 l 1
 285 1635 l 1
 285 1718 l 1
EndSplineSet
EndChar

StartChar: abreve
Encoding: 259 259 153
Width: 891
Flags: W
LayerCount: 2
Fore
SplineSet
458 1518 m 0
 737 1518 750 1332 750 991 c 2
 750 0 l 1
 582 0 l 1
 582 118 l 1
 568 73 504 -12 383 -12 c 0
 216 -12 138 130 138 380 c 2
 138 556 l 2
 138 793 342 855 604 967 c 1
 604 844 l 1
 350 730 306 707 306 516 c 2
 306 390 l 2
 306 200 328 126 420 126 c 0
 496 126 561 184 582 226 c 1
 582 1064 l 2
 582 1281 578 1374 457 1374 c 0
 338 1374 324 1284 324 1057 c 2
 324 1015 l 1
 156 1015 l 1
 156 1056 l 2
 156 1302 177 1518 458 1518 c 0
589 1834 m 1
 667 1834 l 1
 667 1821 l 2
 667 1698 601 1618 461 1618 c 0
 327 1618 256 1694 256 1819 c 2
 256 1834 l 1
 334 1834 l 1
 334 1740 400 1718 463 1718 c 0
 523 1718 589 1736 589 1834 c 1
EndSplineSet
EndChar

StartChar: acircumflex
Encoding: 226 226 154
Width: 891
Flags: W
LayerCount: 2
Fore
SplineSet
458 1518 m 0
 737 1518 750 1332 750 991 c 2
 750 0 l 1
 582 0 l 1
 582 118 l 1
 568 73 504 -12 383 -12 c 0
 216 -12 138 130 138 380 c 2
 138 556 l 2
 138 793 342 855 604 967 c 1
 604 844 l 1
 350 730 306 707 306 516 c 2
 306 390 l 2
 306 200 328 126 420 126 c 0
 496 126 561 184 582 226 c 1
 582 1064 l 2
 582 1281 578 1374 457 1374 c 0
 338 1374 324 1284 324 1057 c 2
 324 1015 l 1
 156 1015 l 1
 156 1056 l 2
 156 1302 177 1518 458 1518 c 0
370 1849 m 1
 558 1849 l 1
 689 1582 l 1
 550 1582 l 1
 464 1767 l 1
 378 1582 l 1
 238 1582 l 1
 370 1849 l 1
EndSplineSet
EndChar

StartChar: adieresis
Encoding: 228 228 155
Width: 891
Flags: W
LayerCount: 2
Fore
SplineSet
458 1518 m 0
 737 1518 750 1332 750 991 c 2
 750 0 l 1
 582 0 l 1
 582 118 l 1
 568 73 504 -12 383 -12 c 0
 216 -12 138 130 138 380 c 2
 138 556 l 2
 138 793 342 855 604 967 c 1
 604 844 l 1
 350 730 306 707 306 516 c 2
 306 390 l 2
 306 200 328 126 420 126 c 0
 496 126 561 184 582 226 c 1
 582 1064 l 2
 582 1281 578 1374 457 1374 c 0
 338 1374 324 1284 324 1057 c 2
 324 1015 l 1
 156 1015 l 1
 156 1056 l 2
 156 1302 177 1518 458 1518 c 0
607 1762 m 1
 805 1762 l 1
 805 1614 l 1
 607 1614 l 1
 607 1762 l 1
123 1762 m 1
 321 1762 l 1
 321 1614 l 1
 123 1614 l 1
 123 1762 l 1
EndSplineSet
EndChar

StartChar: agrave
Encoding: 224 224 156
Width: 891
Flags: W
LayerCount: 2
Fore
SplineSet
458 1518 m 0
 737 1518 750 1332 750 991 c 2
 750 0 l 1
 582 0 l 1
 582 118 l 1
 568 73 504 -12 383 -12 c 0
 216 -12 138 130 138 380 c 2
 138 556 l 2
 138 793 342 855 604 967 c 1
 604 844 l 1
 350 730 306 707 306 516 c 2
 306 390 l 2
 306 200 328 126 420 126 c 0
 496 126 561 184 582 226 c 1
 582 1064 l 2
 582 1281 578 1374 457 1374 c 0
 338 1374 324 1284 324 1057 c 2
 324 1015 l 1
 156 1015 l 1
 156 1056 l 2
 156 1302 177 1518 458 1518 c 0
295 1673 m 1
 295 1850 l 1
 640 1662 l 1
 640 1579 l 1
 295 1673 l 1
EndSplineSet
EndChar

StartChar: amacron
Encoding: 257 257 157
Width: 891
Flags: W
LayerCount: 2
Fore
SplineSet
458 1518 m 0
 737 1518 750 1332 750 991 c 2
 750 0 l 1
 582 0 l 1
 582 118 l 1
 568 73 504 -12 383 -12 c 0
 216 -12 138 130 138 380 c 2
 138 556 l 2
 138 793 342 855 604 967 c 1
 604 844 l 1
 350 730 306 707 306 516 c 2
 306 390 l 2
 306 200 328 126 420 126 c 0
 496 126 561 184 582 226 c 1
 582 1064 l 2
 582 1281 578 1374 457 1374 c 0
 338 1374 324 1284 324 1057 c 2
 324 1015 l 1
 156 1015 l 1
 156 1056 l 2
 156 1302 177 1518 458 1518 c 0
206 1710 m 1
 703 1710 l 1
 703 1591 l 1
 206 1591 l 1
 206 1710 l 1
EndSplineSet
EndChar

StartChar: aogonek
Encoding: 261 261 158
Width: 891
Flags: W
LayerCount: 2
Fore
SplineSet
458 1518 m 0
 737 1518 750 1332 750 991 c 2
 750 0 l 1
 582 0 l 1
 582 118 l 1
 568 73 504 -12 383 -12 c 0
 216 -12 138 130 138 380 c 2
 138 556 l 2
 138 793 342 855 604 967 c 1
 604 844 l 1
 350 730 306 707 306 516 c 2
 306 390 l 2
 306 200 328 126 420 126 c 0
 496 126 561 184 582 226 c 1
 582 1064 l 2
 582 1281 578 1374 457 1374 c 0
 338 1374 324 1284 324 1057 c 2
 324 1015 l 1
 156 1015 l 1
 156 1056 l 2
 156 1302 177 1518 458 1518 c 0
627 9 m 1
 698 9 l 1
 568 -115 485 -267 485 -373 c 0
 485 -451 530 -505 633 -505 c 0
 713 -505 778 -483 779 -482 c 1
 779 -582 l 1
 756 -595 678 -617 610 -617 c 0
 430 -617 349 -519 349 -396 c 0
 349 -259 450 -91 627 9 c 1
EndSplineSet
EndChar

StartChar: aring
Encoding: 229 229 159
Width: 891
Flags: W
LayerCount: 2
Fore
SplineSet
458 1518 m 0
 737 1518 750 1332 750 991 c 2
 750 0 l 1
 582 0 l 1
 582 118 l 1
 568 73 504 -12 383 -12 c 0
 216 -12 138 130 138 380 c 2
 138 556 l 2
 138 793 342 855 604 967 c 1
 604 844 l 1
 350 730 306 707 306 516 c 2
 306 390 l 2
 306 200 328 126 420 126 c 0
 496 126 561 184 582 226 c 1
 582 1064 l 2
 582 1281 578 1374 457 1374 c 0
 338 1374 324 1284 324 1057 c 2
 324 1015 l 1
 156 1015 l 1
 156 1056 l 2
 156 1302 177 1518 458 1518 c 0
463 1906 m 0
 583 1906 642 1824 642 1742 c 0
 642 1660 583 1578 463 1578 c 0
 344 1578 284 1660 284 1742 c 0
 284 1824 344 1906 463 1906 c 0
463 1849 m 0
 397 1849 363 1796 363 1743 c 0
 363 1689 397 1636 463 1636 c 0
 532 1636 566 1689 566 1743 c 0
 566 1796 532 1849 463 1849 c 0
EndSplineSet
EndChar

StartChar: atilde
Encoding: 227 227 160
Width: 891
Flags: W
LayerCount: 2
Fore
SplineSet
458 1518 m 0
 737 1518 750 1332 750 991 c 2
 750 0 l 1
 582 0 l 1
 582 118 l 1
 568 73 504 -12 383 -12 c 0
 216 -12 138 130 138 380 c 2
 138 556 l 2
 138 793 342 855 604 967 c 1
 604 844 l 1
 350 730 306 707 306 516 c 2
 306 390 l 2
 306 200 328 126 420 126 c 0
 496 126 561 184 582 226 c 1
 582 1064 l 2
 582 1281 578 1374 457 1374 c 0
 338 1374 324 1284 324 1057 c 2
 324 1015 l 1
 156 1015 l 1
 156 1056 l 2
 156 1302 177 1518 458 1518 c 0
337 1830 m 0
 418 1830 541 1756 591 1756 c 2
 595 1756 l 1
 614 1759 630 1767 651 1827 c 1
 762 1799 l 1
 753 1769 l 2
 714 1639 675 1619 607 1619 c 0
 519 1619 421 1701 338 1701 c 0
 330 1701 322 1701 315 1699 c 0
 293 1694 282 1675 264 1640 c 1
 165 1687 l 1
 204 1822 269 1830 337 1830 c 0
EndSplineSet
EndChar

StartChar: ae
Encoding: 230 230 161
Width: 1302
Flags: W
LayerCount: 2
Fore
SplineSet
893 1518 m 0
 1164 1518 1180 1300 1180 1010 c 2
 1180 749 l 1
 750 749 l 1
 750 448 l 2
 750 231 761 126 887 126 c 0
 1006 126 1012 246 1012 443 c 2
 1012 558 l 1
 1176 558 l 1
 1176 504 l 2
 1176 198 1168 -18 887 -18 c 0
 778 -18 666 53 629 130 c 1
 588 59 500 -12 383 -12 c 0
 216 -12 138 130 138 380 c 2
 138 556 l 2
 138 786 331 851 582 958 c 1
 582 1064 l 2
 582 1298 578 1374 457 1374 c 0
 338 1374 324 1284 324 1057 c 2
 324 1015 l 1
 156 1015 l 1
 156 1056 l 2
 156 1302 177 1518 458 1518 c 0
 566 1518 634 1471 677 1396 c 1
 724 1468 793 1518 893 1518 c 0
582 509 m 1
 582 834 l 1
 347 728 306 701 306 516 c 2
 306 390 l 2
 306 200 328 126 420 126 c 0
 474 126 543 162 584 240 c 1
 582 509 l 1
893 1374 m 0
 766 1374 750 1249 750 1062 c 2
 750 879 l 1
 1012 879 l 1
 1012 1070 l 2
 1012 1266 1012 1374 893 1374 c 0
EndSplineSet
EndChar

StartChar: b
Encoding: 98 98 162
Width: 901
Flags: W
LayerCount: 2
Fore
SplineSet
156 1782 m 1
 324 1782 l 1
 324 1375 l 1
 341 1457 425 1515 498 1518 c 0
 727 1527 769 1303 769 1021 c 2
 769 481 l 2
 769 200 735 -12 526 -12 c 0
 447 -12 365 21 324 118 c 1
 324 0 l 1
 156 0 l 1
 156 1782 l 1
476 1373 m 0
 382 1373 324 1336 324 1061 c 2
 324 459 l 2
 324 232 349 128 470 128 c 1
 576 129 601 226 601 465 c 2
 601 1063 l 2
 601 1250 590 1373 476 1373 c 0
EndSplineSet
EndChar

StartChar: c
Encoding: 99 99 163
Width: 841
Flags: W
LayerCount: 2
Fore
SplineSet
443 1518 m 0
 714 1518 730 1320 730 1030 c 2
 730 964 l 1
 562 964 l 1
 562 1070 l 2
 562 1266 562 1368 443 1368 c 0
 316 1368 300 1249 300 1062 c 2
 300 448 l 2
 300 231 311 132 437 132 c 0
 556 132 562 246 562 443 c 2
 562 567 l 1
 730 567 l 1
 730 504 l 2
 730 198 718 -18 437 -18 c 0
 158 -18 132 198 132 509 c 2
 132 1021 l 2
 132 1303 173 1518 443 1518 c 0
EndSplineSet
EndChar

StartChar: cacute
Encoding: 263 263 164
Width: 841
Flags: W
LayerCount: 2
Fore
SplineSet
443 1518 m 0
 714 1518 730 1320 730 1030 c 2
 730 964 l 1
 562 964 l 1
 562 1070 l 2
 562 1266 562 1368 443 1368 c 0
 316 1368 300 1249 300 1062 c 2
 300 448 l 2
 300 231 311 132 437 132 c 0
 556 132 562 246 562 443 c 2
 562 567 l 1
 730 567 l 1
 730 504 l 2
 730 198 718 -18 437 -18 c 0
 158 -18 132 198 132 509 c 2
 132 1021 l 2
 132 1303 173 1518 443 1518 c 0
265 1718 m 1
 670 1881 l 1
 670 1719 l 1
 265 1635 l 1
 265 1718 l 1
EndSplineSet
EndChar

StartChar: ccaron
Encoding: 269 269 165
Width: 841
Flags: W
LayerCount: 2
Fore
SplineSet
443 1518 m 0
 714 1518 730 1320 730 1030 c 2
 730 964 l 1
 562 964 l 1
 562 1070 l 2
 562 1266 562 1368 443 1368 c 0
 316 1368 300 1249 300 1062 c 2
 300 448 l 2
 300 231 311 132 437 132 c 0
 556 132 562 246 562 443 c 2
 562 567 l 1
 730 567 l 1
 730 504 l 2
 730 198 718 -18 437 -18 c 0
 158 -18 132 198 132 509 c 2
 132 1021 l 2
 132 1303 173 1518 443 1518 c 0
530 1849 m 1
 669 1849 l 1
 538 1582 l 1
 350 1582 l 1
 218 1849 l 1
 358 1849 l 1
 444 1664 l 1
 530 1849 l 1
EndSplineSet
EndChar

StartChar: ccedilla
Encoding: 231 231 166
Width: 841
Flags: W
LayerCount: 2
Fore
SplineSet
443 1518 m 0
 714 1518 730 1320 730 1030 c 2
 730 964 l 1
 562 964 l 1
 562 1070 l 2
 562 1266 562 1368 443 1368 c 0
 316 1368 300 1249 300 1062 c 2
 300 448 l 2
 300 231 311 132 437 132 c 0
 556 132 562 246 562 443 c 2
 562 567 l 1
 730 567 l 1
 730 504 l 2
 730 198 718 -18 437 -18 c 0
 158 -18 132 198 132 509 c 2
 132 1021 l 2
 132 1303 173 1518 443 1518 c 0
389 0 m 1
 450 0 l 1
 460 -146 l 1
 592 -208 647 -296 647 -379 c 0
 647 -497 536 -603 375 -603 c 0
 344 -603 312 -599 278 -591 c 1
 278 -501 l 1
 467 -501 509 -434 509 -359 c 0
 509 -269 431 -214 349 -196 c 1
 389 0 l 1
EndSplineSet
EndChar

StartChar: ccircumflex
Encoding: 265 265 167
Width: 841
Flags: W
LayerCount: 2
Fore
SplineSet
443 1518 m 0
 714 1518 730 1320 730 1030 c 2
 730 964 l 1
 562 964 l 1
 562 1070 l 2
 562 1266 562 1368 443 1368 c 0
 316 1368 300 1249 300 1062 c 2
 300 448 l 2
 300 231 311 132 437 132 c 0
 556 132 562 246 562 443 c 2
 562 567 l 1
 730 567 l 1
 730 504 l 2
 730 198 718 -18 437 -18 c 0
 158 -18 132 198 132 509 c 2
 132 1021 l 2
 132 1303 173 1518 443 1518 c 0
350 1849 m 1
 538 1849 l 1
 669 1582 l 1
 530 1582 l 1
 444 1767 l 1
 358 1582 l 1
 218 1582 l 1
 350 1849 l 1
EndSplineSet
EndChar

StartChar: cdotaccent
Encoding: 267 267 168
Width: 841
Flags: W
LayerCount: 2
Fore
SplineSet
443 1518 m 0
 714 1518 730 1320 730 1030 c 2
 730 964 l 1
 562 964 l 1
 562 1070 l 2
 562 1266 562 1368 443 1368 c 0
 316 1368 300 1249 300 1062 c 2
 300 448 l 2
 300 231 311 132 437 132 c 0
 556 132 562 246 562 443 c 2
 562 567 l 1
 730 567 l 1
 730 504 l 2
 730 198 718 -18 437 -18 c 0
 158 -18 132 198 132 509 c 2
 132 1021 l 2
 132 1303 173 1518 443 1518 c 0
361 1746 m 1
 538 1746 l 1
 538 1598 l 1
 361 1598 l 1
 361 1746 l 1
EndSplineSet
EndChar

StartChar: d
Encoding: 100 100 169
Width: 901
Flags: W
LayerCount: 2
Fore
SplineSet
577 1782 m 1
 745 1782 l 1
 745 0 l 1
 577 0 l 1
 577 118 l 1
 536 21 454 -12 375 -12 c 0
 166 -12 132 200 132 481 c 2
 132 1021 l 2
 132 1303 182 1518 412 1518 c 0
 485 1518 549 1461 577 1395 c 1
 577 1782 l 1
434 1372 m 1
 328 1371 301 1274 301 1035 c 2
 301 437 l 2
 301 250 314 127 428 127 c 0
 522 127 578 164 578 439 c 2
 578 1041 l 2
 578 1268 555 1372 434 1372 c 1
EndSplineSet
EndChar

StartChar: eth
Encoding: 240 240 170
Width: 940
Flags: W
LayerCount: 2
Fore
SplineSet
291 1638 m 1
 313 1780 l 1
 571 1780 784 1625 784 1262 c 2
 784 509 l 2
 784 206 724 -20 442 -20 c 0
 180 -20 110 146 110 449 c 2
 110 562 l 2
 110 955 184 1112 436 1102 c 0
 498 1100 574 1071 616 1014 c 1
 616 1257 l 2
 616 1558 418 1638 291 1638 c 1
436 961 m 0
 307 961 278 858 278 556 c 2
 278 444 l 2
 278 185 314 124 442 124 c 0
 584 124 616 236 616 497 c 2
 616 902 l 1
 599 914 527 961 436 961 c 0
313 1399 m 1
 881 1735 l 1
 936 1629 l 1
 368 1293 l 1
 313 1399 l 1
EndSplineSet
EndChar

StartChar: dcaron
Encoding: 271 271 171
Width: 901
Flags: W
LayerCount: 2
Fore
SplineSet
577 1782 m 1
 745 1782 l 1
 745 0 l 1
 577 0 l 1
 577 118 l 1
 536 21 454 -12 375 -12 c 0
 166 -12 132 200 132 481 c 2
 132 1021 l 2
 132 1303 182 1518 412 1518 c 0
 485 1518 549 1461 577 1395 c 1
 577 1782 l 1
434 1372 m 1
 328 1371 301 1274 301 1035 c 2
 301 437 l 2
 301 250 314 127 428 127 c 0
 522 127 578 164 578 439 c 2
 578 1041 l 2
 578 1268 555 1372 434 1372 c 1
877 1782 m 1
 1161 1782 l 1
 1161 1576 l 1
 1043 1148 l 1
 930 1148 l 1
 1021 1567 l 1
 877 1567 l 1
 877 1782 l 1
EndSplineSet
EndChar

StartChar: dcroat
Encoding: 273 273 172
Width: 901
Flags: W
LayerCount: 2
Fore
SplineSet
577 1782 m 1
 745 1782 l 1
 745 0 l 1
 577 0 l 1
 577 118 l 1
 536 21 454 -12 375 -12 c 0
 166 -12 132 200 132 481 c 2
 132 1021 l 2
 132 1303 182 1518 412 1518 c 0
 485 1518 549 1461 577 1395 c 1
 577 1782 l 1
434 1372 m 1
 328 1371 301 1274 301 1035 c 2
 301 437 l 2
 301 250 314 127 428 127 c 0
 522 127 578 164 578 439 c 2
 578 1041 l 2
 578 1268 555 1372 434 1372 c 1
385 1686 m 1
 882 1686 l 1
 882 1567 l 1
 385 1567 l 1
 385 1686 l 1
EndSplineSet
EndChar

StartChar: e
Encoding: 101 101 173
Width: 852
Flags: W
LayerCount: 2
Fore
SplineSet
443 1518 m 0
 714 1518 730 1300 730 1010 c 2
 730 749 l 1
 300 749 l 1
 300 448 l 2
 300 231 311 126 437 126 c 0
 556 126 562 246 562 443 c 2
 562 558 l 1
 726 558 l 1
 726 504 l 2
 726 198 718 -18 437 -18 c 0
 158 -18 132 198 132 509 c 2
 132 1021 l 2
 132 1303 173 1518 443 1518 c 0
443 1374 m 0
 316 1374 300 1249 300 1062 c 2
 300 879 l 1
 562 879 l 1
 562 1070 l 2
 562 1266 562 1374 443 1374 c 0
EndSplineSet
EndChar

StartChar: eacute
Encoding: 233 233 174
Width: 852
Flags: W
LayerCount: 2
Fore
SplineSet
443 1518 m 0
 714 1518 730 1300 730 1010 c 2
 730 749 l 1
 300 749 l 1
 300 448 l 2
 300 231 311 126 437 126 c 0
 556 126 562 246 562 443 c 2
 562 558 l 1
 726 558 l 1
 726 504 l 2
 726 198 718 -18 437 -18 c 0
 158 -18 132 198 132 509 c 2
 132 1021 l 2
 132 1303 173 1518 443 1518 c 0
443 1374 m 0
 316 1374 300 1249 300 1062 c 2
 300 879 l 1
 562 879 l 1
 562 1070 l 2
 562 1266 562 1374 443 1374 c 0
260 1718 m 1
 665 1881 l 1
 665 1719 l 1
 260 1635 l 1
 260 1718 l 1
EndSplineSet
EndChar

StartChar: ebreve
Encoding: 277 277 175
Width: 852
Flags: W
LayerCount: 2
Fore
SplineSet
443 1518 m 0
 714 1518 730 1300 730 1010 c 2
 730 749 l 1
 300 749 l 1
 300 448 l 2
 300 231 311 126 437 126 c 0
 556 126 562 246 562 443 c 2
 562 558 l 1
 726 558 l 1
 726 504 l 2
 726 198 718 -18 437 -18 c 0
 158 -18 132 198 132 509 c 2
 132 1021 l 2
 132 1303 173 1518 443 1518 c 0
443 1374 m 0
 316 1374 300 1249 300 1062 c 2
 300 879 l 1
 562 879 l 1
 562 1070 l 2
 562 1266 562 1374 443 1374 c 0
564 1834 m 1
 642 1834 l 1
 642 1821 l 2
 642 1698 576 1618 436 1618 c 0
 302 1618 231 1694 231 1819 c 2
 231 1834 l 1
 309 1834 l 1
 309 1740 375 1718 438 1718 c 0
 498 1718 564 1736 564 1834 c 1
EndSplineSet
EndChar

StartChar: ecaron
Encoding: 283 283 176
Width: 852
Flags: W
LayerCount: 2
Fore
SplineSet
443 1518 m 0
 714 1518 730 1300 730 1010 c 2
 730 749 l 1
 300 749 l 1
 300 448 l 2
 300 231 311 126 437 126 c 0
 556 126 562 246 562 443 c 2
 562 558 l 1
 726 558 l 1
 726 504 l 2
 726 198 718 -18 437 -18 c 0
 158 -18 132 198 132 509 c 2
 132 1021 l 2
 132 1303 173 1518 443 1518 c 0
443 1374 m 0
 316 1374 300 1249 300 1062 c 2
 300 879 l 1
 562 879 l 1
 562 1070 l 2
 562 1266 562 1374 443 1374 c 0
525 1849 m 1
 664 1849 l 1
 533 1582 l 1
 345 1582 l 1
 213 1849 l 1
 353 1849 l 1
 439 1664 l 1
 525 1849 l 1
EndSplineSet
EndChar

StartChar: ecircumflex
Encoding: 234 234 177
Width: 852
Flags: W
LayerCount: 2
Fore
SplineSet
443 1518 m 0
 714 1518 730 1300 730 1010 c 2
 730 749 l 1
 300 749 l 1
 300 448 l 2
 300 231 311 126 437 126 c 0
 556 126 562 246 562 443 c 2
 562 558 l 1
 726 558 l 1
 726 504 l 2
 726 198 718 -18 437 -18 c 0
 158 -18 132 198 132 509 c 2
 132 1021 l 2
 132 1303 173 1518 443 1518 c 0
443 1374 m 0
 316 1374 300 1249 300 1062 c 2
 300 879 l 1
 562 879 l 1
 562 1070 l 2
 562 1266 562 1374 443 1374 c 0
345 1849 m 1
 533 1849 l 1
 664 1582 l 1
 525 1582 l 1
 439 1767 l 1
 353 1582 l 1
 213 1582 l 1
 345 1849 l 1
EndSplineSet
EndChar

StartChar: edieresis
Encoding: 235 235 178
Width: 852
Flags: W
LayerCount: 2
Fore
SplineSet
443 1518 m 0
 714 1518 730 1300 730 1010 c 2
 730 749 l 1
 300 749 l 1
 300 448 l 2
 300 231 311 126 437 126 c 0
 556 126 562 246 562 443 c 2
 562 558 l 1
 726 558 l 1
 726 504 l 2
 726 198 718 -18 437 -18 c 0
 158 -18 132 198 132 509 c 2
 132 1021 l 2
 132 1303 173 1518 443 1518 c 0
443 1374 m 0
 316 1374 300 1249 300 1062 c 2
 300 879 l 1
 562 879 l 1
 562 1070 l 2
 562 1266 562 1374 443 1374 c 0
582 1762 m 1
 780 1762 l 1
 780 1614 l 1
 582 1614 l 1
 582 1762 l 1
98 1762 m 1
 296 1762 l 1
 296 1614 l 1
 98 1614 l 1
 98 1762 l 1
EndSplineSet
EndChar

StartChar: edotaccent
Encoding: 279 279 179
Width: 852
Flags: W
LayerCount: 2
Fore
SplineSet
443 1518 m 0
 714 1518 730 1300 730 1010 c 2
 730 749 l 1
 300 749 l 1
 300 448 l 2
 300 231 311 126 437 126 c 0
 556 126 562 246 562 443 c 2
 562 558 l 1
 726 558 l 1
 726 504 l 2
 726 198 718 -18 437 -18 c 0
 158 -18 132 198 132 509 c 2
 132 1021 l 2
 132 1303 173 1518 443 1518 c 0
443 1374 m 0
 316 1374 300 1249 300 1062 c 2
 300 879 l 1
 562 879 l 1
 562 1070 l 2
 562 1266 562 1374 443 1374 c 0
356 1746 m 1
 533 1746 l 1
 533 1598 l 1
 356 1598 l 1
 356 1746 l 1
EndSplineSet
EndChar

StartChar: egrave
Encoding: 232 232 180
Width: 852
Flags: W
LayerCount: 2
Fore
SplineSet
443 1518 m 0
 714 1518 730 1300 730 1010 c 2
 730 749 l 1
 300 749 l 1
 300 448 l 2
 300 231 311 126 437 126 c 0
 556 126 562 246 562 443 c 2
 562 558 l 1
 726 558 l 1
 726 504 l 2
 726 198 718 -18 437 -18 c 0
 158 -18 132 198 132 509 c 2
 132 1021 l 2
 132 1303 173 1518 443 1518 c 0
443 1374 m 0
 316 1374 300 1249 300 1062 c 2
 300 879 l 1
 562 879 l 1
 562 1070 l 2
 562 1266 562 1374 443 1374 c 0
270 1673 m 1
 270 1850 l 1
 615 1662 l 1
 615 1579 l 1
 270 1673 l 1
EndSplineSet
EndChar

StartChar: emacron
Encoding: 275 275 181
Width: 852
Flags: W
LayerCount: 2
Fore
SplineSet
443 1518 m 0
 714 1518 730 1300 730 1010 c 2
 730 749 l 1
 300 749 l 1
 300 448 l 2
 300 231 311 126 437 126 c 0
 556 126 562 246 562 443 c 2
 562 558 l 1
 726 558 l 1
 726 504 l 2
 726 198 718 -18 437 -18 c 0
 158 -18 132 198 132 509 c 2
 132 1021 l 2
 132 1303 173 1518 443 1518 c 0
443 1374 m 0
 316 1374 300 1249 300 1062 c 2
 300 879 l 1
 562 879 l 1
 562 1070 l 2
 562 1266 562 1374 443 1374 c 0
181 1710 m 1
 678 1710 l 1
 678 1591 l 1
 181 1591 l 1
 181 1710 l 1
EndSplineSet
EndChar

StartChar: eogonek
Encoding: 281 281 182
Width: 852
Flags: W
LayerCount: 2
Fore
SplineSet
443 1518 m 0
 714 1518 730 1300 730 1010 c 2
 730 749 l 1
 300 749 l 1
 300 448 l 2
 300 231 311 126 437 126 c 0
 556 126 562 246 562 443 c 2
 562 558 l 1
 726 558 l 1
 726 504 l 2
 726 198 718 -18 437 -18 c 0
 158 -18 132 198 132 509 c 2
 132 1021 l 2
 132 1303 173 1518 443 1518 c 0
443 1374 m 0
 316 1374 300 1249 300 1062 c 2
 300 879 l 1
 562 879 l 1
 562 1070 l 2
 562 1266 562 1374 443 1374 c 0
474 9 m 1
 545 9 l 1
 415 -115 332 -267 332 -373 c 0
 332 -451 377 -505 480 -505 c 0
 560 -505 625 -483 626 -482 c 1
 626 -582 l 1
 603 -595 525 -617 457 -617 c 0
 277 -617 196 -519 196 -396 c 0
 196 -259 297 -91 474 9 c 1
EndSplineSet
EndChar

StartChar: f
Encoding: 102 102 183
Width: 614
Flags: W
LayerCount: 2
Fore
SplineSet
436 1788 m 0
 513 1788 576 1769 576 1769 c 1
 576 1641 l 1
 545 1645 519 1647 498 1647 c 0
 394 1647 384 1600 384 1530 c 2
 384 1442 l 1
 576 1442 l 1
 576 1316 l 1
 384 1316 l 1
 384 0 l 1
 216 0 l 1
 216 1316 l 1
 80 1316 l 1
 80 1442 l 1
 216 1442 l 1
 216 1513 l 2
 216 1688 275 1788 436 1788 c 0
EndSplineSet
EndChar

StartChar: g
Encoding: 103 103 184
Width: 896
Flags: W
LayerCount: 2
Fore
SplineSet
412 1518 m 0
 485 1517 549 1485 577 1405 c 1
 577 1500 l 1
 745 1500 l 1
 745 111 l 2
 745 -18 695 -220 437 -231 c 0
 318 -236 205 -197 135 -142 c 1
 198 -19 l 1
 250 -56 326 -96 436 -92 c 0
 523 -89 577 -20 577 94 c 2
 577 251 l 1
 536 154 468 131 389 131 c 0
 180 131 132 343 132 624 c 2
 132 1021 l 2
 132 1303 206 1522 412 1518 c 0
441 1374 m 0
 314 1374 300 1245 300 1058 c 2
 300 608 l 2
 300 377 330 271 452 271 c 0
 538 271 577 329 577 611 c 2
 577 1056 l 2
 577 1270 557 1374 441 1374 c 0
EndSplineSet
EndChar

StartChar: gbreve
Encoding: 287 287 185
Width: 896
Flags: W
LayerCount: 2
Fore
SplineSet
412 1518 m 0
 485 1517 549 1485 577 1405 c 1
 577 1500 l 1
 745 1500 l 1
 745 111 l 2
 745 -18 695 -220 437 -231 c 0
 318 -236 205 -197 135 -142 c 1
 198 -19 l 1
 250 -56 326 -96 436 -92 c 0
 523 -89 577 -20 577 94 c 2
 577 251 l 1
 536 154 468 131 389 131 c 0
 180 131 132 343 132 624 c 2
 132 1021 l 2
 132 1303 206 1522 412 1518 c 0
441 1374 m 0
 314 1374 300 1245 300 1058 c 2
 300 608 l 2
 300 377 330 271 452 271 c 0
 538 271 577 329 577 611 c 2
 577 1056 l 2
 577 1270 557 1374 441 1374 c 0
595 1834 m 1
 673 1834 l 1
 673 1821 l 2
 673 1698 607 1618 467 1618 c 0
 333 1618 262 1694 262 1819 c 2
 262 1834 l 1
 340 1834 l 1
 340 1740 406 1718 469 1718 c 0
 529 1718 595 1736 595 1834 c 1
EndSplineSet
EndChar

StartChar: gcircumflex
Encoding: 285 285 186
Width: 896
Flags: W
LayerCount: 2
Fore
SplineSet
412 1518 m 0
 485 1517 549 1485 577 1405 c 1
 577 1500 l 1
 745 1500 l 1
 745 111 l 2
 745 -18 695 -220 437 -231 c 0
 318 -236 205 -197 135 -142 c 1
 198 -19 l 1
 250 -56 326 -96 436 -92 c 0
 523 -89 577 -20 577 94 c 2
 577 251 l 1
 536 154 468 131 389 131 c 0
 180 131 132 343 132 624 c 2
 132 1021 l 2
 132 1303 206 1522 412 1518 c 0
441 1374 m 0
 314 1374 300 1245 300 1058 c 2
 300 608 l 2
 300 377 330 271 452 271 c 0
 538 271 577 329 577 611 c 2
 577 1056 l 2
 577 1270 557 1374 441 1374 c 0
376 1849 m 1
 564 1849 l 1
 695 1582 l 1
 556 1582 l 1
 470 1767 l 1
 384 1582 l 1
 244 1582 l 1
 376 1849 l 1
EndSplineSet
EndChar

StartChar: gcommaaccent
Encoding: 291 291 187
Width: 896
Flags: W
LayerCount: 2
Fore
SplineSet
412 1518 m 0
 485 1517 549 1485 577 1405 c 1
 577 1500 l 1
 745 1500 l 1
 745 111 l 2
 745 -18 695 -220 437 -231 c 0
 318 -236 205 -197 135 -142 c 1
 198 -19 l 1
 250 -56 326 -96 436 -92 c 0
 523 -89 577 -20 577 94 c 2
 577 251 l 1
 536 154 468 131 389 131 c 0
 180 131 132 343 132 624 c 2
 132 1021 l 2
 132 1303 206 1522 412 1518 c 0
441 1374 m 0
 314 1374 300 1245 300 1058 c 2
 300 608 l 2
 300 377 330 271 452 271 c 0
 538 271 577 329 577 611 c 2
 577 1056 l 2
 577 1270 557 1374 441 1374 c 0
160 204 m 1
 370 204 l 1
 370 9 l 1
 289 -278 l 1
 218 -278 l 1
 263 0 l 1
 160 0 l 1
 160 204 l 1
EndSplineSet
EndChar

StartChar: gdotaccent
Encoding: 289 289 188
Width: 896
Flags: W
LayerCount: 2
Fore
SplineSet
412 1518 m 0
 485 1517 549 1485 577 1405 c 1
 577 1500 l 1
 745 1500 l 1
 745 111 l 2
 745 -18 695 -220 437 -231 c 0
 318 -236 205 -197 135 -142 c 1
 198 -19 l 1
 250 -56 326 -96 436 -92 c 0
 523 -89 577 -20 577 94 c 2
 577 251 l 1
 536 154 468 131 389 131 c 0
 180 131 132 343 132 624 c 2
 132 1021 l 2
 132 1303 206 1522 412 1518 c 0
441 1374 m 0
 314 1374 300 1245 300 1058 c 2
 300 608 l 2
 300 377 330 271 452 271 c 0
 538 271 577 329 577 611 c 2
 577 1056 l 2
 577 1270 557 1374 441 1374 c 0
387 1746 m 1
 564 1746 l 1
 564 1598 l 1
 387 1598 l 1
 387 1746 l 1
EndSplineSet
EndChar

StartChar: h
Encoding: 104 104 189
Width: 939
Flags: W
LayerCount: 2
Fore
SplineSet
156 1782 m 1
 324 1782 l 1
 324 1349 l 1
 350 1437 448 1519 566 1519 c 0
 702 1519 793 1421 793 1206 c 2
 793 0 l 1
 625 0 l 1
 625 1194 l 2
 625 1331 570 1368 492 1368 c 0
 409 1368 324 1322 324 1179 c 2
 324 0 l 1
 156 0 l 1
 156 1782 l 1
EndSplineSet
EndChar

StartChar: hbar
Encoding: 295 295 190
Width: 939
Flags: W
LayerCount: 2
Fore
SplineSet
156 1782 m 1
 324 1782 l 1
 324 1349 l 1
 350 1437 448 1519 566 1519 c 0
 702 1519 793 1421 793 1206 c 2
 793 0 l 1
 625 0 l 1
 625 1194 l 2
 625 1331 570 1368 492 1368 c 0
 409 1368 324 1322 324 1179 c 2
 324 0 l 1
 156 0 l 1
 156 1782 l 1
0 1685 m 1
 497 1685 l 1
 497 1566 l 1
 0 1566 l 1
 0 1685 l 1
EndSplineSet
EndChar

StartChar: hcircumflex
Encoding: 293 293 191
Width: 939
Flags: W
LayerCount: 2
Fore
SplineSet
156 1782 m 1
 324 1782 l 1
 324 1349 l 1
 350 1437 448 1519 566 1519 c 0
 702 1519 793 1421 793 1206 c 2
 793 0 l 1
 625 0 l 1
 625 1194 l 2
 625 1331 570 1368 492 1368 c 0
 409 1368 324 1322 324 1179 c 2
 324 0 l 1
 156 0 l 1
 156 1782 l 1
376 2109 m 1
 564 2109 l 1
 695 1842 l 1
 556 1842 l 1
 470 2027 l 1
 384 1842 l 1
 244 1842 l 1
 376 2109 l 1
EndSplineSet
EndChar

StartChar: i
Encoding: 105 105 192
Width: 484
Flags: W
LayerCount: 2
Fore
SplineSet
158 1500 m 1
 326 1500 l 1
 326 0 l 1
 158 0 l 1
 158 1500 l 1
158 1800 m 1
 326 1800 l 1
 326 1614 l 1
 158 1614 l 1
 158 1800 l 1
EndSplineSet
EndChar

StartChar: dotlessi
Encoding: 305 305 193
Width: 484
Flags: W
LayerCount: 2
Fore
SplineSet
158 1500 m 1
 326 1500 l 1
 326 0 l 1
 158 0 l 1
 158 1500 l 1
EndSplineSet
EndChar

StartChar: iacute
Encoding: 237 237 194
Width: 484
Flags: W
LayerCount: 2
Fore
SplineSet
158 1500 m 1
 326 1500 l 1
 326 0 l 1
 158 0 l 1
 158 1500 l 1
54 1718 m 1
 459 1881 l 1
 459 1719 l 1
 54 1635 l 1
 54 1718 l 1
EndSplineSet
EndChar

StartChar: ibreve
Encoding: 301 301 195
Width: 484
Flags: W
LayerCount: 2
Fore
SplineSet
158 1500 m 1
 326 1500 l 1
 326 0 l 1
 158 0 l 1
 158 1500 l 1
358 1834 m 1
 436 1834 l 1
 436 1821 l 2
 436 1698 370 1618 230 1618 c 0
 96 1618 25 1694 25 1819 c 2
 25 1834 l 1
 103 1834 l 1
 103 1740 169 1718 232 1718 c 0
 292 1718 358 1736 358 1834 c 1
EndSplineSet
EndChar

StartChar: icircumflex
Encoding: 238 238 196
Width: 484
Flags: W
LayerCount: 2
Fore
SplineSet
158 1500 m 1
 326 1500 l 1
 326 0 l 1
 158 0 l 1
 158 1500 l 1
139 1849 m 1
 327 1849 l 1
 458 1582 l 1
 319 1582 l 1
 233 1767 l 1
 147 1582 l 1
 7 1582 l 1
 139 1849 l 1
EndSplineSet
EndChar

StartChar: idieresis
Encoding: 239 239 197
Width: 484
Flags: W
LayerCount: 2
Fore
SplineSet
158 1500 m 1
 326 1500 l 1
 326 0 l 1
 158 0 l 1
 158 1500 l 1
376 1762 m 1
 574 1762 l 1
 574 1614 l 1
 376 1614 l 1
 376 1762 l 1
-108 1762 m 1
 90 1762 l 1
 90 1614 l 1
 -108 1614 l 1
 -108 1762 l 1
EndSplineSet
EndChar

StartChar: igrave
Encoding: 236 236 198
Width: 484
Flags: W
LayerCount: 2
Fore
SplineSet
158 1500 m 1
 326 1500 l 1
 326 0 l 1
 158 0 l 1
 158 1500 l 1
64 1673 m 1
 64 1850 l 1
 409 1662 l 1
 409 1579 l 1
 64 1673 l 1
EndSplineSet
EndChar

StartChar: ij
Encoding: 307 307 199
Width: 998
Flags: W
LayerCount: 2
Fore
SplineSet
158 1500 m 1
 326 1500 l 1
 326 0 l 1
 158 0 l 1
 158 1500 l 1
158 1800 m 1
 326 1800 l 1
 326 1614 l 1
 158 1614 l 1
 158 1800 l 1
674 1500 m 1
 842 1500 l 1
 842 -16 l 2
 842 -177 752 -212 704 -217 c 0
 633 -225 566 -212 566 -212 c 1
 566 -92 l 1
 566 -92 605 -96 633 -93 c 1
 665 -88 674 -63 674 -26 c 2
 674 1500 l 1
674 1800 m 1
 842 1800 l 1
 842 1614 l 1
 674 1614 l 1
 674 1800 l 1
EndSplineSet
EndChar

StartChar: imacron
Encoding: 299 299 200
Width: 484
Flags: W
LayerCount: 2
Fore
SplineSet
158 1500 m 1
 326 1500 l 1
 326 0 l 1
 158 0 l 1
 158 1500 l 1
-25 1710 m 1
 472 1710 l 1
 472 1591 l 1
 -25 1591 l 1
 -25 1710 l 1
EndSplineSet
EndChar

StartChar: iogonek
Encoding: 303 303 201
Width: 484
Flags: W
LayerCount: 2
Fore
SplineSet
158 1500 m 1
 326 1500 l 1
 326 0 l 1
 158 0 l 1
 158 1500 l 1
150 1746 m 1
 327 1746 l 1
 327 1598 l 1
 150 1598 l 1
 150 1746 l 1
232 9 m 1
 303 9 l 1
 173 -115 90 -267 90 -373 c 0
 90 -451 135 -505 238 -505 c 0
 318 -505 383 -483 384 -482 c 1
 384 -582 l 1
 361 -595 283 -617 215 -617 c 0
 35 -617 -46 -519 -46 -396 c 0
 -46 -259 55 -91 232 9 c 1
EndSplineSet
EndChar

StartChar: itilde
Encoding: 297 297 202
Width: 484
Flags: W
LayerCount: 2
Fore
SplineSet
158 1500 m 1
 326 1500 l 1
 326 0 l 1
 158 0 l 1
 158 1500 l 1
106 1830 m 0
 187 1830 310 1756 360 1756 c 2
 364 1756 l 1
 383 1759 399 1767 420 1827 c 1
 531 1799 l 1
 522 1769 l 2
 483 1639 444 1619 376 1619 c 0
 288 1619 190 1701 107 1701 c 0
 99 1701 91 1701 84 1699 c 0
 62 1694 51 1675 33 1640 c 1
 -66 1687 l 1
 -27 1822 38 1830 106 1830 c 0
EndSplineSet
EndChar

StartChar: j
Encoding: 106 106 203
Width: 514
Flags: W
LayerCount: 2
Fore
SplineSet
190 1500 m 1
 358 1500 l 1
 358 -16 l 2
 358 -177 268 -212 220 -217 c 0
 149 -225 82 -212 82 -212 c 1
 82 -92 l 1
 82 -92 121 -96 149 -93 c 1
 181 -88 190 -63 190 -26 c 2
 190 1500 l 1
190 1800 m 1
 358 1800 l 1
 358 1614 l 1
 190 1614 l 1
 190 1800 l 1
EndSplineSet
EndChar

StartChar: uni0237
Encoding: 567 567 204
Width: 522
Flags: W
LayerCount: 2
Fore
SplineSet
198 1500 m 1
 366 1500 l 1
 366 46 l 2
 366 -115 276 -150 228 -155 c 0
 157 -163 90 -150 90 -150 c 1
 90 -30 l 1
 90 -30 129 -34 157 -31 c 1
 189 -26 198 -1 198 36 c 2
 198 1500 l 1
EndSplineSet
EndChar

StartChar: jcircumflex
Encoding: 309 309 205
Width: 522
Flags: W
LayerCount: 2
Fore
SplineSet
198 1500 m 1
 366 1500 l 1
 366 46 l 2
 366 -115 276 -150 228 -155 c 0
 157 -163 90 -150 90 -150 c 1
 90 -30 l 1
 90 -30 129 -34 157 -31 c 1
 189 -26 198 -1 198 36 c 2
 198 1500 l 1
199 1849 m 1
 387 1849 l 1
 518 1582 l 1
 379 1582 l 1
 293 1767 l 1
 207 1582 l 1
 67 1582 l 1
 199 1849 l 1
EndSplineSet
EndChar

StartChar: k
Encoding: 107 107 206
Width: 821
Flags: W
LayerCount: 2
Fore
SplineSet
643 1500 m 1
 811 1500 l 1
 479 757 l 1
 829 0 l 1
 655 0 l 1
 317 753 l 1
 643 1500 l 1
156 1782 m 1
 324 1782 l 1
 324 0 l 1
 156 0 l 1
 156 1782 l 1
EndSplineSet
EndChar

StartChar: kcommaaccent
Encoding: 311 311 207
Width: 821
Flags: W
LayerCount: 2
Fore
SplineSet
643 1500 m 1
 811 1500 l 1
 479 757 l 1
 829 0 l 1
 655 0 l 1
 317 753 l 1
 643 1500 l 1
156 1782 m 1
 324 1782 l 1
 324 0 l 1
 156 0 l 1
 156 1782 l 1
290 -150 m 1
 500 -150 l 1
 500 -345 l 1
 419 -632 l 1
 348 -632 l 1
 393 -354 l 1
 290 -354 l 1
 290 -150 l 1
EndSplineSet
EndChar

StartChar: kgreenlandic
Encoding: 312 312 208
Width: 821
Flags: W
LayerCount: 2
Fore
SplineSet
643 1500 m 1
 811 1500 l 1
 479 757 l 1
 829 0 l 1
 655 0 l 1
 317 753 l 1
 643 1500 l 1
156 1500 m 1
 324 1500 l 1
 324 0 l 1
 156 0 l 1
 156 1500 l 1
EndSplineSet
EndChar

StartChar: l
Encoding: 108 108 209
Width: 480
Flags: W
LayerCount: 2
Fore
SplineSet
156 1782 m 1
 324 1782 l 1
 324 0 l 1
 156 0 l 1
 156 1782 l 1
EndSplineSet
EndChar

StartChar: lacute
Encoding: 314 314 210
Width: 480
Flags: W
LayerCount: 2
Fore
SplineSet
156 1782 m 1
 324 1782 l 1
 324 0 l 1
 156 0 l 1
 156 1782 l 1
61 1978 m 1
 466 2141 l 1
 466 1979 l 1
 61 1895 l 1
 61 1978 l 1
EndSplineSet
EndChar

StartChar: lcaron
Encoding: 318 318 211
Width: 480
Flags: W
LayerCount: 2
Fore
SplineSet
156 1782 m 1
 324 1782 l 1
 324 0 l 1
 156 0 l 1
 156 1782 l 1
EndSplineSet
EndChar

StartChar: lcommaaccent
Encoding: 316 316 212
Width: 480
Flags: W
LayerCount: 2
Fore
SplineSet
156 1782 m 1
 324 1782 l 1
 324 0 l 1
 156 0 l 1
 156 1782 l 1
119 -150 m 1
 329 -150 l 1
 329 -345 l 1
 248 -632 l 1
 177 -632 l 1
 222 -354 l 1
 119 -354 l 1
 119 -150 l 1
EndSplineSet
EndChar

StartChar: ldot
Encoding: 320 320 213
Width: 480
Flags: W
LayerCount: 2
Fore
SplineSet
156 1782 m 1
 324 1782 l 1
 324 0 l 1
 156 0 l 1
 156 1782 l 1
469 996 m 1
 649 996 l 1
 649 810 l 1
 469 810 l 1
 469 996 l 1
EndSplineSet
EndChar

StartChar: lslash
Encoding: 322 322 214
Width: 718
Flags: W
LayerCount: 2
Fore
SplineSet
91 921 m 1
 607 1153 l 1
 607 1002 l 1
 91 770 l 1
 91 921 l 1
241 1782 m 1
 409 1782 l 1
 409 0 l 1
 241 0 l 1
 241 1782 l 1
EndSplineSet
EndChar

StartChar: m
Encoding: 109 109 215
Width: 1386
Flags: W
LayerCount: 2
Fore
SplineSet
555 1519 m 0
 691 1519 782 1421 782 1206 c 2
 782 0 l 1
 614 0 l 1
 614 1214 l 2
 614 1331 562 1368 484 1368 c 0
 381 1368 324 1307 324 1195 c 2
 324 0 l 1
 156 0 l 1
 156 1500 l 1
 324 1500 l 1
 324 1349 l 1
 350 1437 437 1519 555 1519 c 0
1013 1519 m 0
 1149 1519 1240 1421 1240 1206 c 2
 1240 0 l 1
 1072 0 l 1
 1072 1214 l 2
 1072 1331 1019 1368 941 1368 c 0
 858 1368 781 1344 781 1205 c 1
 752 1352 l 1
 797 1449 895 1519 1013 1519 c 0
EndSplineSet
EndChar

StartChar: n
Encoding: 110 110 216
Width: 939
Flags: W
LayerCount: 2
Fore
SplineSet
566 1519 m 0
 702 1519 793 1421 793 1206 c 2
 793 0 l 1
 625 0 l 1
 625 1214 l 2
 625 1331 564 1374 486 1374 c 0
 403 1374 324 1334 324 1205 c 2
 324 0 l 1
 156 0 l 1
 156 1500 l 1
 324 1500 l 1
 324 1349 l 1
 350 1437 448 1519 566 1519 c 0
EndSplineSet
EndChar

StartChar: nacute
Encoding: 324 324 217
Width: 939
Flags: W
LayerCount: 2
Fore
SplineSet
566 1519 m 0
 702 1519 793 1421 793 1206 c 2
 793 0 l 1
 625 0 l 1
 625 1214 l 2
 625 1331 564 1374 486 1374 c 0
 403 1374 324 1334 324 1205 c 2
 324 0 l 1
 156 0 l 1
 156 1500 l 1
 324 1500 l 1
 324 1349 l 1
 350 1437 448 1519 566 1519 c 0
291 1718 m 1
 696 1881 l 1
 696 1719 l 1
 291 1635 l 1
 291 1718 l 1
EndSplineSet
EndChar

StartChar: ncaron
Encoding: 328 328 218
Width: 939
Flags: W
LayerCount: 2
Fore
SplineSet
566 1519 m 0
 702 1519 793 1421 793 1206 c 2
 793 0 l 1
 625 0 l 1
 625 1214 l 2
 625 1331 564 1374 486 1374 c 0
 403 1374 324 1334 324 1205 c 2
 324 0 l 1
 156 0 l 1
 156 1500 l 1
 324 1500 l 1
 324 1349 l 1
 350 1437 448 1519 566 1519 c 0
556 1849 m 1
 695 1849 l 1
 564 1582 l 1
 376 1582 l 1
 244 1849 l 1
 384 1849 l 1
 470 1664 l 1
 556 1849 l 1
EndSplineSet
EndChar

StartChar: ncommaaccent
Encoding: 326 326 219
Width: 939
Flags: W
LayerCount: 2
Fore
SplineSet
566 1519 m 0
 702 1519 793 1421 793 1206 c 2
 793 0 l 1
 625 0 l 1
 625 1214 l 2
 625 1331 564 1374 486 1374 c 0
 403 1374 324 1334 324 1205 c 2
 324 0 l 1
 156 0 l 1
 156 1500 l 1
 324 1500 l 1
 324 1349 l 1
 350 1437 448 1519 566 1519 c 0
349 -150 m 1
 559 -150 l 1
 559 -345 l 1
 478 -632 l 1
 407 -632 l 1
 452 -354 l 1
 349 -354 l 1
 349 -150 l 1
EndSplineSet
EndChar

StartChar: ntilde
Encoding: 241 241 220
Width: 939
Flags: W
LayerCount: 2
Fore
SplineSet
566 1519 m 0
 702 1519 793 1421 793 1206 c 2
 793 0 l 1
 625 0 l 1
 625 1214 l 2
 625 1331 564 1374 486 1374 c 0
 403 1374 324 1334 324 1205 c 2
 324 0 l 1
 156 0 l 1
 156 1500 l 1
 324 1500 l 1
 324 1349 l 1
 350 1437 448 1519 566 1519 c 0
343 1830 m 0
 424 1830 547 1756 597 1756 c 2
 601 1756 l 1
 620 1759 636 1767 657 1827 c 1
 768 1799 l 1
 759 1769 l 2
 720 1639 681 1619 613 1619 c 0
 525 1619 427 1701 344 1701 c 0
 336 1701 328 1701 321 1699 c 0
 299 1694 288 1675 270 1640 c 1
 171 1687 l 1
 210 1822 275 1830 343 1830 c 0
EndSplineSet
EndChar

StartChar: o
Encoding: 111 111 221
Width: 879
Flags: W
LayerCount: 2
Fore
SplineSet
442 1518 m 0
 713 1518 747 1304 747 1021 c 2
 747 509 l 2
 747 203 723 -18 442 -18 c 0
 163 -18 132 198 132 509 c 2
 132 1021 l 2
 132 1303 172 1518 442 1518 c 0
442 1374 m 0
 315 1374 300 1245 300 1058 c 2
 300 455 l 2
 300 258 316 126 442 126 c 0
 561 126 579 258 579 455 c 2
 579 1058 l 2
 579 1245 561 1374 442 1374 c 0
EndSplineSet
EndChar

StartChar: oacute
Encoding: 243 243 222
Width: 879
Flags: W
LayerCount: 2
Fore
SplineSet
442 1518 m 0
 713 1518 747 1304 747 1021 c 2
 747 509 l 2
 747 203 723 -18 442 -18 c 0
 163 -18 132 198 132 509 c 2
 132 1021 l 2
 132 1303 172 1518 442 1518 c 0
442 1374 m 0
 315 1374 300 1245 300 1058 c 2
 300 455 l 2
 300 258 316 126 442 126 c 0
 561 126 579 258 579 455 c 2
 579 1058 l 2
 579 1245 561 1374 442 1374 c 0
261 1718 m 1
 666 1881 l 1
 666 1719 l 1
 261 1635 l 1
 261 1718 l 1
EndSplineSet
EndChar

StartChar: obreve
Encoding: 335 335 223
Width: 879
Flags: W
LayerCount: 2
Fore
SplineSet
442 1518 m 0
 713 1518 747 1304 747 1021 c 2
 747 509 l 2
 747 203 723 -18 442 -18 c 0
 163 -18 132 198 132 509 c 2
 132 1021 l 2
 132 1303 172 1518 442 1518 c 0
442 1374 m 0
 315 1374 300 1245 300 1058 c 2
 300 455 l 2
 300 258 316 126 442 126 c 0
 561 126 579 258 579 455 c 2
 579 1058 l 2
 579 1245 561 1374 442 1374 c 0
565 1834 m 1
 643 1834 l 1
 643 1821 l 2
 643 1698 577 1618 437 1618 c 0
 303 1618 232 1694 232 1819 c 2
 232 1834 l 1
 310 1834 l 1
 310 1740 376 1718 439 1718 c 0
 499 1718 565 1736 565 1834 c 1
EndSplineSet
EndChar

StartChar: ocircumflex
Encoding: 244 244 224
Width: 879
Flags: W
LayerCount: 2
Fore
SplineSet
442 1518 m 0
 713 1518 747 1304 747 1021 c 2
 747 509 l 2
 747 203 723 -18 442 -18 c 0
 163 -18 132 198 132 509 c 2
 132 1021 l 2
 132 1303 172 1518 442 1518 c 0
442 1374 m 0
 315 1374 300 1245 300 1058 c 2
 300 455 l 2
 300 258 316 126 442 126 c 0
 561 126 579 258 579 455 c 2
 579 1058 l 2
 579 1245 561 1374 442 1374 c 0
346 1849 m 1
 534 1849 l 1
 665 1582 l 1
 526 1582 l 1
 440 1767 l 1
 354 1582 l 1
 214 1582 l 1
 346 1849 l 1
EndSplineSet
EndChar

StartChar: odieresis
Encoding: 246 246 225
Width: 879
Flags: W
LayerCount: 2
Fore
SplineSet
442 1518 m 0
 713 1518 747 1304 747 1021 c 2
 747 509 l 2
 747 203 723 -18 442 -18 c 0
 163 -18 132 198 132 509 c 2
 132 1021 l 2
 132 1303 172 1518 442 1518 c 0
442 1374 m 0
 315 1374 300 1245 300 1058 c 2
 300 455 l 2
 300 258 316 126 442 126 c 0
 561 126 579 258 579 455 c 2
 579 1058 l 2
 579 1245 561 1374 442 1374 c 0
583 1762 m 1
 781 1762 l 1
 781 1614 l 1
 583 1614 l 1
 583 1762 l 1
99 1762 m 1
 297 1762 l 1
 297 1614 l 1
 99 1614 l 1
 99 1762 l 1
EndSplineSet
EndChar

StartChar: ograve
Encoding: 242 242 226
Width: 879
Flags: W
LayerCount: 2
Fore
SplineSet
442 1518 m 0
 713 1518 747 1304 747 1021 c 2
 747 509 l 2
 747 203 723 -18 442 -18 c 0
 163 -18 132 198 132 509 c 2
 132 1021 l 2
 132 1303 172 1518 442 1518 c 0
442 1374 m 0
 315 1374 300 1245 300 1058 c 2
 300 455 l 2
 300 258 316 126 442 126 c 0
 561 126 579 258 579 455 c 2
 579 1058 l 2
 579 1245 561 1374 442 1374 c 0
271 1673 m 1
 271 1850 l 1
 616 1662 l 1
 616 1579 l 1
 271 1673 l 1
EndSplineSet
EndChar

StartChar: ohungarumlaut
Encoding: 337 337 227
Width: 879
Flags: W
LayerCount: 2
Fore
SplineSet
442 1518 m 0
 713 1518 747 1304 747 1021 c 2
 747 509 l 2
 747 203 723 -18 442 -18 c 0
 163 -18 132 198 132 509 c 2
 132 1021 l 2
 132 1303 172 1518 442 1518 c 0
442 1374 m 0
 315 1374 300 1245 300 1058 c 2
 300 455 l 2
 300 258 316 126 442 126 c 0
 561 126 579 258 579 455 c 2
 579 1058 l 2
 579 1245 561 1374 442 1374 c 0
477 1695 m 1
 648 2094 l 1
 822 2003 l 1
 552 1653 l 1
 477 1695 l 1
212 1695 m 1
 326 2094 l 1
 497 2013 l 1
 288 1663 l 1
 212 1695 l 1
EndSplineSet
EndChar

StartChar: omacron
Encoding: 333 333 228
Width: 879
Flags: W
LayerCount: 2
Fore
SplineSet
442 1518 m 0
 713 1518 747 1304 747 1021 c 2
 747 509 l 2
 747 203 723 -18 442 -18 c 0
 163 -18 132 198 132 509 c 2
 132 1021 l 2
 132 1303 172 1518 442 1518 c 0
442 1374 m 0
 315 1374 300 1245 300 1058 c 2
 300 455 l 2
 300 258 316 126 442 126 c 0
 561 126 579 258 579 455 c 2
 579 1058 l 2
 579 1245 561 1374 442 1374 c 0
182 1710 m 1
 679 1710 l 1
 679 1591 l 1
 182 1591 l 1
 182 1710 l 1
EndSplineSet
EndChar

StartChar: oslash
Encoding: 248 248 229
Width: 879
Flags: W
LayerCount: 2
Fore
SplineSet
142 -145 m 1
 651 1672 l 1
 752 1644 l 1
 242 -173 l 1
 142 -145 l 1
442 1518 m 0
 713 1518 747 1304 747 1021 c 2
 747 509 l 2
 747 203 723 -18 442 -18 c 0
 163 -18 132 198 132 509 c 2
 132 1021 l 2
 132 1303 172 1518 442 1518 c 0
442 1374 m 0
 315 1374 300 1245 300 1058 c 2
 300 455 l 2
 300 258 316 126 442 126 c 0
 561 126 579 258 579 455 c 2
 579 1058 l 2
 579 1245 561 1374 442 1374 c 0
EndSplineSet
EndChar

StartChar: otilde
Encoding: 245 245 230
Width: 879
Flags: W
LayerCount: 2
Fore
SplineSet
442 1518 m 0
 713 1518 747 1304 747 1021 c 2
 747 509 l 2
 747 203 723 -18 442 -18 c 0
 163 -18 132 198 132 509 c 2
 132 1021 l 2
 132 1303 172 1518 442 1518 c 0
442 1374 m 0
 315 1374 300 1245 300 1058 c 2
 300 455 l 2
 300 258 316 126 442 126 c 0
 561 126 579 258 579 455 c 2
 579 1058 l 2
 579 1245 561 1374 442 1374 c 0
313 1830 m 0
 394 1830 517 1756 567 1756 c 2
 571 1756 l 1
 590 1759 606 1767 627 1827 c 1
 738 1799 l 1
 729 1769 l 2
 690 1639 651 1619 583 1619 c 0
 495 1619 397 1701 314 1701 c 0
 306 1701 298 1701 291 1699 c 0
 269 1694 258 1675 240 1640 c 1
 141 1687 l 1
 180 1822 245 1830 313 1830 c 0
EndSplineSet
EndChar

StartChar: oe
Encoding: 339 339 231
Width: 1733
Flags: W
LayerCount: 2
Fore
SplineSet
890 1518 m 0
 1161 1518 1177 1300 1177 1010 c 2
 1177 749 l 1
 747 749 l 1
 747 448 l 2
 747 231 758 126 884 126 c 0
 1003 126 1009 246 1009 443 c 2
 1009 558 l 1
 1173 558 l 1
 1173 504 l 2
 1173 198 1165 -18 884 -18 c 0
 774 -18 704 31 659 103 c 1
 613 32 545 -18 442 -18 c 0
 163 -18 132 198 132 509 c 2
 132 1021 l 2
 132 1303 172 1518 442 1518 c 0
 549 1518 620 1469 665 1398 c 1
 712 1469 783 1518 890 1518 c 0
442 1374 m 0
 315 1374 300 1245 300 1058 c 2
 300 455 l 2
 300 258 316 126 442 126 c 0
 561 126 579 258 579 455 c 2
 579 1058 l 2
 579 1245 561 1374 442 1374 c 0
891 1374 m 0
 764 1374 748 1249 748 1062 c 2
 748 879 l 1
 1010 879 l 1
 1010 1070 l 2
 1010 1266 1010 1374 891 1374 c 0
EndSplineSet
EndChar

StartChar: p
Encoding: 112 112 232
Width: 901
Flags: W
LayerCount: 2
Fore
SplineSet
526 1512 m 0
 735 1512 769 1300 769 1019 c 2
 769 479 l 2
 769 197 719 -18 489 -18 c 0
 416 -18 352 39 324 105 c 1
 324 -268 l 1
 156 -268 l 1
 156 1500 l 1
 324 1500 l 1
 324 1382 l 1
 365 1479 447 1512 526 1512 c 0
476 1373 m 0
 382 1373 324 1336 324 1061 c 2
 324 459 l 2
 324 232 349 128 470 128 c 1
 576 129 601 226 601 465 c 2
 601 1063 l 2
 601 1250 590 1373 476 1373 c 0
EndSplineSet
EndChar

StartChar: thorn
Encoding: 254 254 233
Width: 901
Flags: W
LayerCount: 2
Fore
SplineSet
156 1782 m 1
 324 1782 l 1
 324 1382 l 1
 365 1479 447 1512 526 1512 c 0
 735 1512 769 1300 769 1019 c 2
 769 479 l 2
 769 197 719 -18 489 -18 c 0
 416 -18 352 39 324 105 c 1
 324 -268 l 1
 156 -268 l 1
 156 1782 l 1
476 1373 m 0
 382 1373 324 1336 324 1061 c 2
 324 459 l 2
 324 232 349 128 470 128 c 1
 576 129 601 226 601 465 c 2
 601 1063 l 2
 601 1250 590 1373 476 1373 c 0
EndSplineSet
EndChar

StartChar: q
Encoding: 113 113 234
Width: 894
Flags: W
LayerCount: 2
Fore
SplineSet
375 1512 m 0
 454 1512 536 1479 577 1382 c 1
 577 1500 l 1
 745 1500 l 1
 745 -268 l 1
 577 -268 l 1
 577 105 l 1
 549 39 485 -18 412 -18 c 0
 182 -18 132 197 132 479 c 2
 132 1019 l 2
 132 1300 166 1512 375 1512 c 0
430 1372 m 1
 324 1371 299 1274 299 1035 c 2
 299 437 l 2
 299 250 310 127 424 127 c 0
 518 127 576 164 576 439 c 2
 576 1041 l 2
 576 1268 551 1372 430 1372 c 1
EndSplineSet
EndChar

StartChar: r
Encoding: 114 114 235
Width: 628
Flags: W
LayerCount: 2
Fore
SplineSet
579 1518 m 0
 584 1518 582 1375 582 1375 c 1
 484 1375 398 1345 324 1237 c 1
 324 0 l 1
 156 0 l 1
 156 1500 l 1
 324 1500 l 1
 324 1333 l 1
 358 1449 446 1518 579 1518 c 0
EndSplineSet
EndChar

StartChar: racute
Encoding: 341 341 236
Width: 628
Flags: W
LayerCount: 2
Fore
SplineSet
579 1518 m 0
 584 1518 582 1375 582 1375 c 1
 484 1375 398 1345 324 1237 c 1
 324 0 l 1
 156 0 l 1
 156 1500 l 1
 324 1500 l 1
 324 1333 l 1
 358 1449 446 1518 579 1518 c 0
164 1718 m 1
 569 1881 l 1
 569 1719 l 1
 164 1635 l 1
 164 1718 l 1
EndSplineSet
EndChar

StartChar: rcaron
Encoding: 345 345 237
Width: 628
Flags: W
LayerCount: 2
Fore
SplineSet
579 1518 m 0
 584 1518 582 1375 582 1375 c 1
 484 1375 398 1345 324 1237 c 1
 324 0 l 1
 156 0 l 1
 156 1500 l 1
 324 1500 l 1
 324 1333 l 1
 358 1449 446 1518 579 1518 c 0
429 1849 m 1
 568 1849 l 1
 437 1582 l 1
 249 1582 l 1
 117 1849 l 1
 257 1849 l 1
 343 1664 l 1
 429 1849 l 1
EndSplineSet
EndChar

StartChar: rcommaaccent
Encoding: 343 343 238
Width: 628
Flags: W
LayerCount: 2
Fore
SplineSet
579 1518 m 0
 584 1518 582 1375 582 1375 c 1
 484 1375 398 1345 324 1237 c 1
 324 0 l 1
 156 0 l 1
 156 1500 l 1
 324 1500 l 1
 324 1333 l 1
 358 1449 446 1518 579 1518 c 0
146 -150 m 1
 356 -150 l 1
 356 -345 l 1
 275 -632 l 1
 204 -632 l 1
 249 -354 l 1
 146 -354 l 1
 146 -150 l 1
EndSplineSet
EndChar

StartChar: s
Encoding: 115 115 239
Width: 773
Flags: W
LayerCount: 2
Fore
SplineSet
395 1518 m 0
 581 1518 685 1401 685 1030 c 2
 685 964 l 1
 517 964 l 1
 517 1070 l 2
 517 1261 488 1368 396 1368 c 0
 307 1368 264 1324 259 1183 c 0
 256 1076 306 965 416 856 c 1
 503 772 l 1
 635 642 710 493 710 331 c 0
 710 120 616 -20 415 -20 c 0
 219 -20 108 100 108 409 c 2
 108 533 l 1
 276 533 l 1
 276 427 l 2
 276 236 312 129 404 129 c 0
 496 129 539 179 539 337 c 0
 539 447 488 560 381 667 c 0
 363 686 334 715 293 754 c 0
 164 880 92 1023 92 1175 c 0
 92 1408 213 1518 395 1518 c 0
EndSplineSet
EndChar

StartChar: sacute
Encoding: 347 347 240
Width: 773
Flags: W
LayerCount: 2
Fore
SplineSet
395 1518 m 0
 581 1518 685 1401 685 1030 c 2
 685 964 l 1
 517 964 l 1
 517 1070 l 2
 517 1261 488 1368 396 1368 c 0
 307 1368 264 1324 259 1183 c 0
 256 1076 306 965 416 856 c 1
 503 772 l 1
 635 642 710 493 710 331 c 0
 710 120 616 -20 415 -20 c 0
 219 -20 108 100 108 409 c 2
 108 533 l 1
 276 533 l 1
 276 427 l 2
 276 236 312 129 404 129 c 0
 496 129 539 179 539 337 c 0
 539 447 488 560 381 667 c 0
 363 686 334 715 293 754 c 0
 164 880 92 1023 92 1175 c 0
 92 1408 213 1518 395 1518 c 0
228 1718 m 1
 633 1881 l 1
 633 1719 l 1
 228 1635 l 1
 228 1718 l 1
EndSplineSet
EndChar

StartChar: scaron
Encoding: 353 353 241
Width: 773
Flags: W
LayerCount: 2
Fore
SplineSet
395 1518 m 0
 581 1518 685 1401 685 1030 c 2
 685 964 l 1
 517 964 l 1
 517 1070 l 2
 517 1261 488 1368 396 1368 c 0
 307 1368 264 1324 259 1183 c 0
 256 1076 306 965 416 856 c 1
 503 772 l 1
 635 642 710 493 710 331 c 0
 710 120 616 -20 415 -20 c 0
 219 -20 108 100 108 409 c 2
 108 533 l 1
 276 533 l 1
 276 427 l 2
 276 236 312 129 404 129 c 0
 496 129 539 179 539 337 c 0
 539 447 488 560 381 667 c 0
 363 686 334 715 293 754 c 0
 164 880 92 1023 92 1175 c 0
 92 1408 213 1518 395 1518 c 0
493 1849 m 1
 632 1849 l 1
 501 1582 l 1
 313 1582 l 1
 181 1849 l 1
 321 1849 l 1
 407 1664 l 1
 493 1849 l 1
EndSplineSet
EndChar

StartChar: scedilla
Encoding: 351 351 242
Width: 773
Flags: W
LayerCount: 2
Fore
SplineSet
395 1518 m 0
 581 1518 685 1401 685 1030 c 2
 685 964 l 1
 517 964 l 1
 517 1070 l 2
 517 1261 488 1368 396 1368 c 0
 307 1368 264 1324 259 1183 c 0
 256 1076 306 965 416 856 c 1
 503 772 l 1
 635 642 710 493 710 331 c 0
 710 120 616 -20 415 -20 c 0
 219 -20 108 100 108 409 c 2
 108 533 l 1
 276 533 l 1
 276 427 l 2
 276 236 312 129 404 129 c 0
 496 129 539 179 539 337 c 0
 539 447 488 560 381 667 c 0
 363 686 334 715 293 754 c 0
 164 880 92 1023 92 1175 c 0
 92 1408 213 1518 395 1518 c 0
355 0 m 1
 416 0 l 1
 426 -146 l 1
 558 -208 613 -296 613 -379 c 0
 613 -497 502 -603 341 -603 c 0
 310 -603 278 -599 244 -591 c 1
 244 -501 l 1
 433 -501 475 -434 475 -359 c 0
 475 -269 397 -214 315 -196 c 1
 355 0 l 1
EndSplineSet
EndChar

StartChar: scircumflex
Encoding: 349 349 243
Width: 773
Flags: W
LayerCount: 2
Fore
SplineSet
395 1518 m 0
 581 1518 685 1401 685 1030 c 2
 685 964 l 1
 517 964 l 1
 517 1070 l 2
 517 1261 488 1368 396 1368 c 0
 307 1368 264 1324 259 1183 c 0
 256 1076 306 965 416 856 c 1
 503 772 l 1
 635 642 710 493 710 331 c 0
 710 120 616 -20 415 -20 c 0
 219 -20 108 100 108 409 c 2
 108 533 l 1
 276 533 l 1
 276 427 l 2
 276 236 312 129 404 129 c 0
 496 129 539 179 539 337 c 0
 539 447 488 560 381 667 c 0
 363 686 334 715 293 754 c 0
 164 880 92 1023 92 1175 c 0
 92 1408 213 1518 395 1518 c 0
313 1849 m 1
 501 1849 l 1
 632 1582 l 1
 493 1582 l 1
 407 1767 l 1
 321 1582 l 1
 181 1582 l 1
 313 1849 l 1
EndSplineSet
EndChar

StartChar: scommaaccent
Encoding: 537 537 244
Width: 773
Flags: W
LayerCount: 2
Fore
SplineSet
395 1518 m 0
 581 1518 685 1401 685 1030 c 2
 685 964 l 1
 517 964 l 1
 517 1070 l 2
 517 1261 488 1368 396 1368 c 0
 307 1368 264 1324 259 1183 c 0
 256 1076 306 965 416 856 c 1
 503 772 l 1
 635 642 710 493 710 331 c 0
 710 120 616 -20 415 -20 c 0
 219 -20 108 100 108 409 c 2
 108 533 l 1
 276 533 l 1
 276 427 l 2
 276 236 312 129 404 129 c 0
 496 129 539 179 539 337 c 0
 539 447 488 560 381 667 c 0
 363 686 334 715 293 754 c 0
 164 880 92 1023 92 1175 c 0
 92 1408 213 1518 395 1518 c 0
266 -150 m 1
 476 -150 l 1
 476 -345 l 1
 395 -632 l 1
 324 -632 l 1
 369 -354 l 1
 266 -354 l 1
 266 -150 l 1
EndSplineSet
EndChar

StartChar: germandbls
Encoding: 223 223 245
Width: 949
Flags: W
LayerCount: 2
Fore
SplineSet
451 1781 m 0
 719 1781 791 1698 791 1417 c 2
 791 1220 l 2
 791 1050 753 987 624 945 c 1
 799 903 851 813 851 553 c 2
 851 476 l 2
 851 177 830 0 530 0 c 2
 426 0 l 1
 426 141 l 1
 655 141 685 170 685 395 c 2
 685 656 l 2
 685 816 628 863 435 863 c 1
 435 1011 l 1
 579 1011 629 1047 629 1170 c 2
 629 1490 l 2
 629 1627 591 1667 463 1667 c 0
 355 1667 316 1627 316 1490 c 2
 316 0 l 1
 150 0 l 1
 150 1417 l 2
 150 1660 168 1781 451 1781 c 0
EndSplineSet
EndChar

StartChar: t
Encoding: 116 116 246
Width: 592
Flags: W
LayerCount: 2
Fore
SplineSet
191 1760 m 1
 359 1760 l 1
 359 1500 l 1
 531 1500 l 1
 531 1372 l 1
 359 1372 l 1
 359 220 l 2
 359 141 371 130 531 130 c 1
 531 -9 l 1
 415 -9 l 2
 222 -9 191 50 191 219 c 2
 191 1372 l 1
 45 1372 l 1
 45 1500 l 1
 191 1500 l 1
 191 1760 l 1
EndSplineSet
EndChar

StartChar: tcaron
Encoding: 357 357 247
Width: 592
Flags: W
LayerCount: 2
Fore
SplineSet
191 1760 m 1
 359 1760 l 1
 359 1500 l 1
 531 1500 l 1
 531 1372 l 1
 359 1372 l 1
 359 220 l 2
 359 141 371 130 531 130 c 1
 531 -9 l 1
 415 -9 l 2
 222 -9 191 50 191 219 c 2
 191 1372 l 1
 45 1372 l 1
 45 1500 l 1
 191 1500 l 1
 191 1760 l 1
626 1760 m 1
 910 1760 l 1
 910 1554 l 1
 792 1126 l 1
 679 1126 l 1
 770 1545 l 1
 626 1545 l 1
 626 1760 l 1
EndSplineSet
EndChar

StartChar: u
Encoding: 117 117 248
Width: 939
Flags: W
LayerCount: 2
Fore
SplineSet
615 1500 m 1
 783 1500 l 1
 783 0 l 1
 615 0 l 1
 615 151 l 1
 589 63 506 -20 388 -20 c 0
 280 -20 146 56 146 294 c 2
 146 1500 l 1
 314 1500 l 1
 314 306 l 2
 314 189 365 132 455 132 c 0
 558 132 615 205 615 315 c 2
 615 1500 l 1
EndSplineSet
EndChar

StartChar: uacute
Encoding: 250 250 249
Width: 939
Flags: W
LayerCount: 2
Fore
SplineSet
615 1500 m 1
 783 1500 l 1
 783 0 l 1
 615 0 l 1
 615 151 l 1
 589 63 506 -20 388 -20 c 0
 280 -20 146 56 146 294 c 2
 146 1500 l 1
 314 1500 l 1
 314 306 l 2
 314 189 365 132 455 132 c 0
 558 132 615 205 615 315 c 2
 615 1500 l 1
309 1718 m 1
 714 1881 l 1
 714 1719 l 1
 309 1635 l 1
 309 1718 l 1
EndSplineSet
EndChar

StartChar: ubreve
Encoding: 365 365 250
Width: 939
Flags: W
LayerCount: 2
Fore
SplineSet
615 1500 m 1
 783 1500 l 1
 783 0 l 1
 615 0 l 1
 615 151 l 1
 589 63 506 -20 388 -20 c 0
 280 -20 146 56 146 294 c 2
 146 1500 l 1
 314 1500 l 1
 314 306 l 2
 314 189 365 132 455 132 c 0
 558 132 615 205 615 315 c 2
 615 1500 l 1
613 1834 m 1
 691 1834 l 1
 691 1821 l 2
 691 1698 625 1618 485 1618 c 0
 351 1618 280 1694 280 1819 c 2
 280 1834 l 1
 358 1834 l 1
 358 1740 424 1718 487 1718 c 0
 547 1718 613 1736 613 1834 c 1
EndSplineSet
EndChar

StartChar: ucircumflex
Encoding: 251 251 251
Width: 939
Flags: W
LayerCount: 2
Fore
SplineSet
615 1500 m 1
 783 1500 l 1
 783 0 l 1
 615 0 l 1
 615 151 l 1
 589 63 506 -20 388 -20 c 0
 280 -20 146 56 146 294 c 2
 146 1500 l 1
 314 1500 l 1
 314 306 l 2
 314 189 365 132 455 132 c 0
 558 132 615 205 615 315 c 2
 615 1500 l 1
394 1849 m 1
 582 1849 l 1
 713 1582 l 1
 574 1582 l 1
 488 1767 l 1
 402 1582 l 1
 262 1582 l 1
 394 1849 l 1
EndSplineSet
EndChar

StartChar: udieresis
Encoding: 252 252 252
Width: 939
Flags: W
LayerCount: 2
Fore
SplineSet
615 1500 m 1
 783 1500 l 1
 783 0 l 1
 615 0 l 1
 615 151 l 1
 589 63 506 -20 388 -20 c 0
 280 -20 146 56 146 294 c 2
 146 1500 l 1
 314 1500 l 1
 314 306 l 2
 314 189 365 132 455 132 c 0
 558 132 615 205 615 315 c 2
 615 1500 l 1
631 1762 m 1
 829 1762 l 1
 829 1614 l 1
 631 1614 l 1
 631 1762 l 1
147 1762 m 1
 345 1762 l 1
 345 1614 l 1
 147 1614 l 1
 147 1762 l 1
EndSplineSet
EndChar

StartChar: ugrave
Encoding: 249 249 253
Width: 939
Flags: W
LayerCount: 2
Fore
SplineSet
615 1500 m 1
 783 1500 l 1
 783 0 l 1
 615 0 l 1
 615 151 l 1
 589 63 506 -20 388 -20 c 0
 280 -20 146 56 146 294 c 2
 146 1500 l 1
 314 1500 l 1
 314 306 l 2
 314 189 365 132 455 132 c 0
 558 132 615 205 615 315 c 2
 615 1500 l 1
319 1673 m 1
 319 1850 l 1
 664 1662 l 1
 664 1579 l 1
 319 1673 l 1
EndSplineSet
EndChar

StartChar: uhungarumlaut
Encoding: 369 369 254
Width: 939
Flags: W
LayerCount: 2
Fore
SplineSet
615 1500 m 1
 783 1500 l 1
 783 0 l 1
 615 0 l 1
 615 151 l 1
 589 63 506 -20 388 -20 c 0
 280 -20 146 56 146 294 c 2
 146 1500 l 1
 314 1500 l 1
 314 306 l 2
 314 189 365 132 455 132 c 0
 558 132 615 205 615 315 c 2
 615 1500 l 1
525 1695 m 1
 696 2094 l 1
 870 2003 l 1
 600 1653 l 1
 525 1695 l 1
260 1695 m 1
 374 2094 l 1
 545 2013 l 1
 336 1663 l 1
 260 1695 l 1
EndSplineSet
EndChar

StartChar: umacron
Encoding: 363 363 255
Width: 939
Flags: W
LayerCount: 2
Fore
SplineSet
615 1500 m 1
 783 1500 l 1
 783 0 l 1
 615 0 l 1
 615 151 l 1
 589 63 506 -20 388 -20 c 0
 280 -20 146 56 146 294 c 2
 146 1500 l 1
 314 1500 l 1
 314 306 l 2
 314 189 365 132 455 132 c 0
 558 132 615 205 615 315 c 2
 615 1500 l 1
230 1710 m 1
 727 1710 l 1
 727 1591 l 1
 230 1591 l 1
 230 1710 l 1
EndSplineSet
EndChar

StartChar: uni01C6
Encoding: 454 454 256
Width: 1551
Flags: W
LayerCount: 2
Fore
SplineSet
577 1782 m 1
 745 1782 l 1
 745 0 l 1
 577 0 l 1
 577 118 l 1
 536 21 454 -12 375 -12 c 0
 166 -12 132 200 132 481 c 2
 132 1021 l 2
 132 1303 182 1518 412 1518 c 0
 485 1518 549 1461 577 1395 c 1
 577 1782 l 1
434 1372 m 1
 328 1371 301 1274 301 1035 c 2
 301 437 l 2
 301 250 314 127 428 127 c 0
 522 127 578 164 578 439 c 2
 578 1041 l 2
 578 1268 555 1372 434 1372 c 1
1006 1500 m 1
 1487 1500 l 1
 1487 1391 l 1
 1154 145 l 1
 1468 145 l 1
 1468 0 l 1
 981 0 l 1
 981 123 l 1
 1310 1355 l 1
 1006 1355 l 1
 1006 1500 l 1
1359 1849 m 1
 1498 1849 l 1
 1367 1582 l 1
 1179 1582 l 1
 1047 1849 l 1
 1187 1849 l 1
 1273 1664 l 1
 1359 1849 l 1
EndSplineSet
EndChar

StartChar: uni01C9
Encoding: 457 457 257
Width: 994
Flags: W
LayerCount: 2
Fore
SplineSet
156 1782 m 1
 324 1782 l 1
 324 0 l 1
 156 0 l 1
 156 1782 l 1
670 1500 m 1
 838 1500 l 1
 838 -16 l 2
 838 -177 748 -212 700 -217 c 0
 629 -225 562 -212 562 -212 c 1
 562 -92 l 1
 562 -92 601 -96 629 -93 c 1
 661 -88 670 -63 670 -26 c 2
 670 1500 l 1
670 1800 m 1
 838 1800 l 1
 838 1614 l 1
 670 1614 l 1
 670 1800 l 1
EndSplineSet
EndChar

StartChar: uni01CC
Encoding: 460 460 258
Width: 1453
Flags: W
LayerCount: 2
Fore
SplineSet
566 1519 m 0
 702 1519 793 1421 793 1206 c 2
 793 0 l 1
 625 0 l 1
 625 1214 l 2
 625 1331 564 1374 486 1374 c 0
 403 1374 324 1334 324 1205 c 2
 324 0 l 1
 156 0 l 1
 156 1500 l 1
 324 1500 l 1
 324 1349 l 1
 350 1437 448 1519 566 1519 c 0
1129 1500 m 1
 1297 1500 l 1
 1297 -16 l 2
 1297 -177 1207 -212 1159 -217 c 0
 1088 -225 1021 -212 1021 -212 c 1
 1021 -92 l 1
 1021 -92 1060 -96 1088 -93 c 1
 1120 -88 1129 -63 1129 -26 c 2
 1129 1500 l 1
1129 1800 m 1
 1297 1800 l 1
 1297 1614 l 1
 1129 1614 l 1
 1129 1800 l 1
EndSplineSet
EndChar

StartChar: uni01F3
Encoding: 499 499 259
Width: 1551
Flags: W
LayerCount: 2
Fore
SplineSet
577 1782 m 1
 745 1782 l 1
 745 0 l 1
 577 0 l 1
 577 118 l 1
 536 21 454 -12 375 -12 c 0
 166 -12 132 200 132 481 c 2
 132 1021 l 2
 132 1303 182 1518 412 1518 c 0
 485 1518 549 1461 577 1395 c 1
 577 1782 l 1
434 1372 m 1
 328 1371 301 1274 301 1035 c 2
 301 437 l 2
 301 250 314 127 428 127 c 0
 522 127 578 164 578 439 c 2
 578 1041 l 2
 578 1268 555 1372 434 1372 c 1
1006 1500 m 1
 1487 1500 l 1
 1487 1391 l 1
 1154 145 l 1
 1468 145 l 1
 1468 0 l 1
 981 0 l 1
 981 123 l 1
 1310 1355 l 1
 1006 1355 l 1
 1006 1500 l 1
EndSplineSet
EndChar

StartChar: uni01F5
Encoding: 501 501 260
Width: 896
Flags: W
LayerCount: 2
Fore
SplineSet
412 1518 m 0
 485 1517 549 1485 577 1405 c 1
 577 1500 l 1
 745 1500 l 1
 745 111 l 2
 745 -18 695 -220 437 -231 c 0
 318 -236 205 -197 135 -142 c 1
 198 -19 l 1
 250 -56 326 -96 436 -92 c 0
 523 -89 577 -20 577 94 c 2
 577 251 l 1
 536 154 468 131 389 131 c 0
 180 131 132 343 132 624 c 2
 132 1021 l 2
 132 1303 206 1522 412 1518 c 0
441 1374 m 0
 314 1374 300 1245 300 1058 c 2
 300 608 l 2
 300 377 330 271 452 271 c 0
 538 271 577 329 577 611 c 2
 577 1056 l 2
 577 1270 557 1374 441 1374 c 0
291 1718 m 1
 696 1881 l 1
 696 1719 l 1
 291 1635 l 1
 291 1718 l 1
EndSplineSet
EndChar

StartChar: uni0201
Encoding: 513 513 261
Width: 891
Flags: W
LayerCount: 2
Fore
SplineSet
458 1518 m 0
 737 1518 750 1332 750 991 c 2
 750 0 l 1
 582 0 l 1
 582 118 l 1
 568 73 504 -12 383 -12 c 0
 216 -12 138 130 138 380 c 2
 138 556 l 2
 138 793 342 855 604 967 c 1
 604 844 l 1
 350 730 306 707 306 516 c 2
 306 390 l 2
 306 200 328 126 420 126 c 0
 496 126 561 184 582 226 c 1
 582 1064 l 2
 582 1281 578 1374 457 1374 c 0
 338 1374 324 1284 324 1057 c 2
 324 1015 l 1
 156 1015 l 1
 156 1056 l 2
 156 1302 177 1518 458 1518 c 0
60 1927 m 1
 204 2025 l 1
 395 1686 l 1
 319 1638 l 1
 60 1927 l 1
373 1927 m 1
 513 2025 l 1
 667 1686 l 1
 591 1638 l 1
 373 1927 l 1
EndSplineSet
EndChar

StartChar: uni0203
Encoding: 515 515 262
Width: 891
Flags: W
LayerCount: 2
Fore
SplineSet
458 1518 m 0
 737 1518 750 1332 750 991 c 2
 750 0 l 1
 582 0 l 1
 582 118 l 1
 568 73 504 -12 383 -12 c 0
 216 -12 138 130 138 380 c 2
 138 556 l 2
 138 793 342 855 604 967 c 1
 604 844 l 1
 350 730 306 707 306 516 c 2
 306 390 l 2
 306 200 328 126 420 126 c 0
 496 126 561 184 582 226 c 1
 582 1064 l 2
 582 1281 578 1374 457 1374 c 0
 338 1374 324 1284 324 1057 c 2
 324 1015 l 1
 156 1015 l 1
 156 1056 l 2
 156 1302 177 1518 458 1518 c 0
456 1825 m 1
 590 1829 663 1755 666 1630 c 1
 666 1615 l 1
 588 1613 l 1
 586 1707 519 1727 456 1725 c 0
 397 1724 331 1704 333 1606 c 1
 255 1604 l 1
 255 1617 l 1
 252 1740 316 1822 456 1825 c 1
EndSplineSet
EndChar

StartChar: uni0205
Encoding: 517 517 263
Width: 852
Flags: W
LayerCount: 2
Fore
SplineSet
443 1518 m 0
 714 1518 730 1300 730 1010 c 2
 730 749 l 1
 300 749 l 1
 300 448 l 2
 300 231 311 126 437 126 c 0
 556 126 562 246 562 443 c 2
 562 558 l 1
 726 558 l 1
 726 504 l 2
 726 198 718 -18 437 -18 c 0
 158 -18 132 198 132 509 c 2
 132 1021 l 2
 132 1303 173 1518 443 1518 c 0
443 1374 m 0
 316 1374 300 1249 300 1062 c 2
 300 879 l 1
 562 879 l 1
 562 1070 l 2
 562 1266 562 1374 443 1374 c 0
35 1927 m 1
 179 2025 l 1
 370 1686 l 1
 294 1638 l 1
 35 1927 l 1
348 1927 m 1
 488 2025 l 1
 642 1686 l 1
 566 1638 l 1
 348 1927 l 1
EndSplineSet
EndChar

StartChar: uni0207
Encoding: 519 519 264
Width: 852
Flags: W
LayerCount: 2
Fore
SplineSet
443 1518 m 0
 714 1518 730 1300 730 1010 c 2
 730 749 l 1
 300 749 l 1
 300 448 l 2
 300 231 311 126 437 126 c 0
 556 126 562 246 562 443 c 2
 562 558 l 1
 726 558 l 1
 726 504 l 2
 726 198 718 -18 437 -18 c 0
 158 -18 132 198 132 509 c 2
 132 1021 l 2
 132 1303 173 1518 443 1518 c 0
443 1374 m 0
 316 1374 300 1249 300 1062 c 2
 300 879 l 1
 562 879 l 1
 562 1070 l 2
 562 1266 562 1374 443 1374 c 0
431 1825 m 1
 565 1829 638 1755 641 1630 c 1
 641 1615 l 1
 563 1613 l 1
 561 1707 494 1727 431 1725 c 0
 372 1724 306 1704 308 1606 c 1
 230 1604 l 1
 230 1617 l 1
 227 1740 291 1822 431 1825 c 1
EndSplineSet
EndChar

StartChar: uni0209
Encoding: 521 521 265
Width: 484
Flags: W
LayerCount: 2
Fore
SplineSet
-139 1927 m 1
 5 2025 l 1
 196 1686 l 1
 120 1638 l 1
 -139 1927 l 1
174 1927 m 1
 314 2025 l 1
 468 1686 l 1
 392 1638 l 1
 174 1927 l 1
158 1500 m 1
 326 1500 l 1
 326 0 l 1
 158 0 l 1
 158 1500 l 1
EndSplineSet
EndChar

StartChar: uni020B
Encoding: 523 523 266
Width: 484
Flags: W
LayerCount: 2
Fore
SplineSet
236 1825 m 1
 370 1829 443 1755 446 1630 c 1
 446 1615 l 1
 368 1613 l 1
 366 1707 299 1727 236 1725 c 0
 177 1724 111 1704 113 1606 c 1
 35 1604 l 1
 35 1617 l 1
 32 1740 96 1822 236 1825 c 1
158 1500 m 1
 326 1500 l 1
 326 0 l 1
 158 0 l 1
 158 1500 l 1
EndSplineSet
EndChar

StartChar: uni020D
Encoding: 525 525 267
Width: 879
Flags: W
LayerCount: 2
Fore
SplineSet
442 1518 m 0
 713 1518 747 1304 747 1021 c 2
 747 509 l 2
 747 203 723 -18 442 -18 c 0
 163 -18 132 198 132 509 c 2
 132 1021 l 2
 132 1303 172 1518 442 1518 c 0
442 1374 m 0
 315 1374 300 1245 300 1058 c 2
 300 455 l 2
 300 258 316 126 442 126 c 0
 561 126 579 258 579 455 c 2
 579 1058 l 2
 579 1245 561 1374 442 1374 c 0
36 1927 m 1
 180 2025 l 1
 371 1686 l 1
 295 1638 l 1
 36 1927 l 1
349 1927 m 1
 489 2025 l 1
 643 1686 l 1
 567 1638 l 1
 349 1927 l 1
EndSplineSet
EndChar

StartChar: uni020F
Encoding: 527 527 268
Width: 879
Flags: W
LayerCount: 2
Fore
SplineSet
442 1518 m 0
 713 1518 747 1304 747 1021 c 2
 747 509 l 2
 747 203 723 -18 442 -18 c 0
 163 -18 132 198 132 509 c 2
 132 1021 l 2
 132 1303 172 1518 442 1518 c 0
442 1374 m 0
 315 1374 300 1245 300 1058 c 2
 300 455 l 2
 300 258 316 126 442 126 c 0
 561 126 579 258 579 455 c 2
 579 1058 l 2
 579 1245 561 1374 442 1374 c 0
432 1825 m 1
 566 1829 639 1755 642 1630 c 1
 642 1615 l 1
 564 1613 l 1
 562 1707 495 1727 432 1725 c 0
 373 1724 307 1704 309 1606 c 1
 231 1604 l 1
 231 1617 l 1
 228 1740 292 1822 432 1825 c 1
EndSplineSet
EndChar

StartChar: uni0211
Encoding: 529 529 269
Width: 628
Flags: W
LayerCount: 2
Fore
SplineSet
579 1518 m 0
 584 1518 582 1375 582 1375 c 1
 484 1375 398 1345 324 1237 c 1
 324 0 l 1
 156 0 l 1
 156 1500 l 1
 324 1500 l 1
 324 1333 l 1
 358 1449 446 1518 579 1518 c 0
-61 1927 m 1
 83 2025 l 1
 274 1686 l 1
 198 1638 l 1
 -61 1927 l 1
252 1927 m 1
 392 2025 l 1
 546 1686 l 1
 470 1638 l 1
 252 1927 l 1
EndSplineSet
EndChar

StartChar: uni0213
Encoding: 531 531 270
Width: 628
Flags: W
LayerCount: 2
Fore
SplineSet
579 1518 m 0
 584 1518 582 1375 582 1375 c 1
 484 1375 398 1345 324 1237 c 1
 324 0 l 1
 156 0 l 1
 156 1500 l 1
 324 1500 l 1
 324 1333 l 1
 358 1449 446 1518 579 1518 c 0
335 1825 m 1
 469 1829 542 1755 545 1630 c 1
 545 1615 l 1
 467 1613 l 1
 465 1707 398 1727 335 1725 c 0
 276 1724 210 1704 212 1606 c 1
 134 1604 l 1
 134 1617 l 1
 131 1740 195 1822 335 1825 c 1
EndSplineSet
EndChar

StartChar: uni0215
Encoding: 533 533 271
Width: 939
Flags: W
LayerCount: 2
Fore
SplineSet
615 1500 m 1
 783 1500 l 1
 783 0 l 1
 615 0 l 1
 615 151 l 1
 589 63 506 -20 388 -20 c 0
 280 -20 146 56 146 294 c 2
 146 1500 l 1
 314 1500 l 1
 314 306 l 2
 314 189 365 132 455 132 c 0
 558 132 615 205 615 315 c 2
 615 1500 l 1
84 1927 m 1
 228 2025 l 1
 419 1686 l 1
 343 1638 l 1
 84 1927 l 1
397 1927 m 1
 537 2025 l 1
 691 1686 l 1
 615 1638 l 1
 397 1927 l 1
EndSplineSet
EndChar

StartChar: uni0217
Encoding: 535 535 272
Width: 939
Flags: W
LayerCount: 2
Fore
SplineSet
615 1500 m 1
 783 1500 l 1
 783 0 l 1
 615 0 l 1
 615 151 l 1
 589 63 506 -20 388 -20 c 0
 280 -20 146 56 146 294 c 2
 146 1500 l 1
 314 1500 l 1
 314 306 l 2
 314 189 365 132 455 132 c 0
 558 132 615 205 615 315 c 2
 615 1500 l 1
480 1825 m 1
 614 1829 687 1755 690 1630 c 1
 690 1615 l 1
 612 1613 l 1
 610 1707 543 1727 480 1725 c 0
 421 1724 355 1704 357 1606 c 1
 279 1604 l 1
 279 1617 l 1
 276 1740 340 1822 480 1825 c 1
EndSplineSet
EndChar

StartChar: uni021B
Encoding: 539 539 273
Width: 592
Flags: W
LayerCount: 2
Fore
SplineSet
191 1760 m 1
 359 1760 l 1
 359 1500 l 1
 531 1500 l 1
 531 1372 l 1
 359 1372 l 1
 359 220 l 2
 359 141 371 130 531 130 c 1
 531 -9 l 1
 415 -9 l 2
 222 -9 191 50 191 219 c 2
 191 1372 l 1
 45 1372 l 1
 45 1500 l 1
 191 1500 l 1
 191 1760 l 1
274 -150 m 1
 484 -150 l 1
 484 -345 l 1
 403 -632 l 1
 332 -632 l 1
 377 -354 l 1
 274 -354 l 1
 274 -150 l 1
EndSplineSet
EndChar

StartChar: uni1E03
Encoding: 7683 7683 274
Width: 901
Flags: W
LayerCount: 2
Fore
SplineSet
156 1782 m 1
 324 1782 l 1
 324 1375 l 1
 341 1457 425 1515 498 1518 c 0
 727 1527 769 1303 769 1021 c 2
 769 481 l 2
 769 200 735 -12 526 -12 c 0
 447 -12 365 21 324 118 c 1
 324 0 l 1
 156 0 l 1
 156 1782 l 1
476 1373 m 0
 382 1373 324 1336 324 1061 c 2
 324 459 l 2
 324 232 349 128 470 128 c 1
 576 129 601 226 601 465 c 2
 601 1063 l 2
 601 1250 590 1373 476 1373 c 0
433 2006 m 1
 610 2006 l 1
 610 1858 l 1
 433 1858 l 1
 433 2006 l 1
EndSplineSet
EndChar

StartChar: uni1E0B
Encoding: 7691 7691 275
Width: 901
Flags: W
LayerCount: 2
Fore
SplineSet
577 1782 m 1
 745 1782 l 1
 745 0 l 1
 577 0 l 1
 577 118 l 1
 536 21 454 -12 375 -12 c 0
 166 -12 132 200 132 481 c 2
 132 1021 l 2
 132 1303 182 1518 412 1518 c 0
 485 1518 549 1461 577 1395 c 1
 577 1782 l 1
434 1372 m 1
 328 1371 301 1274 301 1035 c 2
 301 437 l 2
 301 250 314 127 428 127 c 0
 522 127 578 164 578 439 c 2
 578 1041 l 2
 578 1268 555 1372 434 1372 c 1
375 2006 m 1
 552 2006 l 1
 552 1858 l 1
 375 1858 l 1
 375 2006 l 1
EndSplineSet
EndChar

StartChar: uni1E1F
Encoding: 7711 7711 276
Width: 614
Flags: W
LayerCount: 2
Fore
SplineSet
436 1788 m 0
 513 1788 576 1769 576 1769 c 1
 576 1641 l 1
 545 1645 519 1647 498 1647 c 0
 394 1647 384 1600 384 1530 c 2
 384 1442 l 1
 576 1442 l 1
 576 1316 l 1
 384 1316 l 1
 384 0 l 1
 216 0 l 1
 216 1316 l 1
 80 1316 l 1
 80 1442 l 1
 216 1442 l 1
 216 1513 l 2
 216 1688 275 1788 436 1788 c 0
203 246 m 1
 380 246 l 1
 380 98 l 1
 203 98 l 1
 203 246 l 1
EndSplineSet
EndChar

StartChar: uni1E41
Encoding: 7745 7745 277
Width: 1386
Flags: W
LayerCount: 2
Fore
SplineSet
555 1519 m 0
 691 1519 782 1421 782 1206 c 2
 782 0 l 1
 614 0 l 1
 614 1214 l 2
 614 1331 562 1368 484 1368 c 0
 381 1368 324 1307 324 1195 c 2
 324 0 l 1
 156 0 l 1
 156 1500 l 1
 324 1500 l 1
 324 1349 l 1
 350 1437 437 1519 555 1519 c 0
1013 1519 m 0
 1149 1519 1240 1421 1240 1206 c 2
 1240 0 l 1
 1072 0 l 1
 1072 1214 l 2
 1072 1331 1019 1368 941 1368 c 0
 858 1368 781 1344 781 1205 c 1
 752 1352 l 1
 797 1449 895 1519 1013 1519 c 0
664 1746 m 1
 841 1746 l 1
 841 1598 l 1
 664 1598 l 1
 664 1746 l 1
EndSplineSet
EndChar

StartChar: uni1E57
Encoding: 7767 7767 278
Width: 901
Flags: W
LayerCount: 2
Fore
SplineSet
526 1512 m 0
 735 1512 769 1300 769 1019 c 2
 769 479 l 2
 769 197 719 -18 489 -18 c 0
 416 -18 352 39 324 105 c 1
 324 -268 l 1
 156 -268 l 1
 156 1500 l 1
 324 1500 l 1
 324 1382 l 1
 365 1479 447 1512 526 1512 c 0
476 1373 m 0
 382 1373 324 1336 324 1061 c 2
 324 459 l 2
 324 232 349 128 470 128 c 1
 576 129 601 226 601 465 c 2
 601 1063 l 2
 601 1250 590 1373 476 1373 c 0
203 246 m 1
 380 246 l 1
 380 98 l 1
 203 98 l 1
 203 246 l 1
EndSplineSet
EndChar

StartChar: uni1E61
Encoding: 7777 7777 279
Width: 773
Flags: W
LayerCount: 2
Fore
SplineSet
395 1518 m 0
 581 1518 685 1401 685 1030 c 2
 685 964 l 1
 517 964 l 1
 517 1070 l 2
 517 1261 488 1368 396 1368 c 0
 307 1368 264 1324 259 1183 c 0
 256 1076 306 965 416 856 c 1
 503 772 l 1
 635 642 710 493 710 331 c 0
 710 120 616 -20 415 -20 c 0
 219 -20 108 100 108 409 c 2
 108 533 l 1
 276 533 l 1
 276 427 l 2
 276 236 312 129 404 129 c 0
 496 129 539 179 539 337 c 0
 539 447 488 560 381 667 c 0
 363 686 334 715 293 754 c 0
 164 880 92 1023 92 1175 c 0
 92 1408 213 1518 395 1518 c 0
324 1746 m 1
 501 1746 l 1
 501 1598 l 1
 324 1598 l 1
 324 1746 l 1
EndSplineSet
EndChar

StartChar: uni1E6B
Encoding: 7787 7787 280
Width: 592
Flags: W
LayerCount: 2
Fore
SplineSet
191 1760 m 1
 359 1760 l 1
 359 1500 l 1
 531 1500 l 1
 531 1372 l 1
 359 1372 l 1
 359 220 l 2
 359 141 371 130 531 130 c 1
 531 -9 l 1
 415 -9 l 2
 222 -9 191 50 191 219 c 2
 191 1372 l 1
 45 1372 l 1
 45 1500 l 1
 191 1500 l 1
 191 1760 l 1
203 246 m 1
 380 246 l 1
 380 98 l 1
 203 98 l 1
 203 246 l 1
EndSplineSet
EndChar

StartChar: uogonek
Encoding: 371 371 281
Width: 939
Flags: W
LayerCount: 2
Fore
SplineSet
615 1500 m 1
 783 1500 l 1
 783 0 l 1
 615 0 l 1
 615 151 l 1
 589 63 506 -20 388 -20 c 0
 280 -20 146 56 146 294 c 2
 146 1500 l 1
 314 1500 l 1
 314 306 l 2
 314 189 365 132 455 132 c 0
 558 132 615 205 615 315 c 2
 615 1500 l 1
670 9 m 1
 741 9 l 1
 611 -115 528 -267 528 -373 c 0
 528 -451 573 -505 676 -505 c 0
 756 -505 821 -483 822 -482 c 1
 822 -582 l 1
 799 -595 721 -617 653 -617 c 0
 473 -617 392 -519 392 -396 c 0
 392 -259 493 -91 670 9 c 1
EndSplineSet
EndChar

StartChar: uring
Encoding: 367 367 282
Width: 939
Flags: W
LayerCount: 2
Fore
SplineSet
615 1500 m 1
 783 1500 l 1
 783 0 l 1
 615 0 l 1
 615 151 l 1
 589 63 506 -20 388 -20 c 0
 280 -20 146 56 146 294 c 2
 146 1500 l 1
 314 1500 l 1
 314 306 l 2
 314 189 365 132 455 132 c 0
 558 132 615 205 615 315 c 2
 615 1500 l 1
487 1906 m 0
 607 1906 666 1824 666 1742 c 0
 666 1660 607 1578 487 1578 c 0
 368 1578 308 1660 308 1742 c 0
 308 1824 368 1906 487 1906 c 0
487 1849 m 0
 421 1849 387 1796 387 1743 c 0
 387 1689 421 1636 487 1636 c 0
 556 1636 590 1689 590 1743 c 0
 590 1796 556 1849 487 1849 c 0
EndSplineSet
EndChar

StartChar: utilde
Encoding: 361 361 283
Width: 939
Flags: W
LayerCount: 2
Fore
SplineSet
615 1500 m 1
 783 1500 l 1
 783 0 l 1
 615 0 l 1
 615 151 l 1
 589 63 506 -20 388 -20 c 0
 280 -20 146 56 146 294 c 2
 146 1500 l 1
 314 1500 l 1
 314 306 l 2
 314 189 365 132 455 132 c 0
 558 132 615 205 615 315 c 2
 615 1500 l 1
361 1830 m 0
 442 1830 565 1756 615 1756 c 2
 619 1756 l 1
 638 1759 654 1767 675 1827 c 1
 786 1799 l 1
 777 1769 l 2
 738 1639 699 1619 631 1619 c 0
 543 1619 445 1701 362 1701 c 0
 354 1701 346 1701 339 1699 c 0
 317 1694 306 1675 288 1640 c 1
 189 1687 l 1
 228 1822 293 1830 361 1830 c 0
EndSplineSet
EndChar

StartChar: v
Encoding: 118 118 284
Width: 702
Flags: W
LayerCount: 2
Fore
SplineSet
504 1500 m 1
 658 1500 l 1
 443 0 l 1
 255 0 l 1
 44 1500 l 1
 199 1500 l 1
 314 626 l 1
 350 306 l 1
 368 306 l 1
 398 627 l 1
 504 1500 l 1
EndSplineSet
EndChar

StartChar: w
Encoding: 119 119 285
Width: 1103
Flags: W
LayerCount: 2
Fore
SplineSet
481 1500 m 1
 594 1500 l 1
 390 0 l 1
 235 0 l 1
 55 1500 l 1
 206 1500 l 1
 298 654 l 1
 327 341 l 1
 338 341 l 1
 365 655 l 1
 481 1500 l 1
901 1500 m 1
 1047 1500 l 1
 871 0 l 1
 709 0 l 1
 532 1500 l 1
 625 1500 l 1
 756 684 l 1
 796 341 l 1
 806 341 l 1
 827 685 l 1
 901 1500 l 1
EndSplineSet
EndChar

StartChar: wacute
Encoding: 7811 7811 286
Width: 1103
Flags: W
LayerCount: 2
Fore
SplineSet
481 1500 m 1
 594 1500 l 1
 390 0 l 1
 235 0 l 1
 55 1500 l 1
 206 1500 l 1
 298 654 l 1
 327 341 l 1
 338 341 l 1
 365 655 l 1
 481 1500 l 1
901 1500 m 1
 1047 1500 l 1
 871 0 l 1
 709 0 l 1
 532 1500 l 1
 625 1500 l 1
 756 684 l 1
 796 341 l 1
 806 341 l 1
 827 685 l 1
 901 1500 l 1
381 1718 m 1
 786 1881 l 1
 786 1719 l 1
 381 1635 l 1
 381 1718 l 1
EndSplineSet
EndChar

StartChar: wcircumflex
Encoding: 373 373 287
Width: 1103
Flags: W
LayerCount: 2
Fore
SplineSet
481 1500 m 1
 594 1500 l 1
 390 0 l 1
 235 0 l 1
 55 1500 l 1
 206 1500 l 1
 298 654 l 1
 327 341 l 1
 338 341 l 1
 365 655 l 1
 481 1500 l 1
901 1500 m 1
 1047 1500 l 1
 871 0 l 1
 709 0 l 1
 532 1500 l 1
 625 1500 l 1
 756 684 l 1
 796 341 l 1
 806 341 l 1
 827 685 l 1
 901 1500 l 1
466 1849 m 1
 654 1849 l 1
 785 1582 l 1
 646 1582 l 1
 560 1767 l 1
 474 1582 l 1
 334 1582 l 1
 466 1849 l 1
EndSplineSet
EndChar

StartChar: wdieresis
Encoding: 7813 7813 288
Width: 1103
Flags: W
LayerCount: 2
Fore
SplineSet
481 1500 m 1
 594 1500 l 1
 390 0 l 1
 235 0 l 1
 55 1500 l 1
 206 1500 l 1
 298 654 l 1
 327 341 l 1
 338 341 l 1
 365 655 l 1
 481 1500 l 1
901 1500 m 1
 1047 1500 l 1
 871 0 l 1
 709 0 l 1
 532 1500 l 1
 625 1500 l 1
 756 684 l 1
 796 341 l 1
 806 341 l 1
 827 685 l 1
 901 1500 l 1
703 1762 m 1
 901 1762 l 1
 901 1614 l 1
 703 1614 l 1
 703 1762 l 1
219 1762 m 1
 417 1762 l 1
 417 1614 l 1
 219 1614 l 1
 219 1762 l 1
EndSplineSet
EndChar

StartChar: wgrave
Encoding: 7809 7809 289
Width: 1103
Flags: W
LayerCount: 2
Fore
SplineSet
481 1500 m 1
 594 1500 l 1
 390 0 l 1
 235 0 l 1
 55 1500 l 1
 206 1500 l 1
 298 654 l 1
 327 341 l 1
 338 341 l 1
 365 655 l 1
 481 1500 l 1
901 1500 m 1
 1047 1500 l 1
 871 0 l 1
 709 0 l 1
 532 1500 l 1
 625 1500 l 1
 756 684 l 1
 796 341 l 1
 806 341 l 1
 827 685 l 1
 901 1500 l 1
391 1673 m 1
 391 1850 l 1
 736 1662 l 1
 736 1579 l 1
 391 1673 l 1
EndSplineSet
EndChar

StartChar: x
Encoding: 120 120 290
Width: 694
Flags: W
LayerCount: 2
Fore
SplineSet
501 1500 m 1
 658 1500 l 1
 410 737 l 1
 392 737 l 1
 181 0 l 1
 31 0 l 1
 278 780 l 1
 295 780 l 1
 501 1500 l 1
49 1500 m 1
 196 1500 l 1
 664 0 l 1
 508 0 l 1
 49 1500 l 1
EndSplineSet
EndChar

StartChar: y
Encoding: 121 121 291
Width: 752
Flags: W
LayerCount: 2
Fore
SplineSet
547 1500 m 1
 712 1500 l 1
 470 -8 l 1
 443 -183 424 -242 273 -242 c 2
 123 -242 l 1
 123 -105 l 1
 183 -105 l 2
 240 -105 293 -102 304 -90 c 0
 324 -68 316 -17 306 43 c 2
 58 1500 l 1
 224 1500 l 1
 340 711 l 1
 386 304 l 1
 401 304 l 1
 443 711 l 1
 547 1500 l 1
EndSplineSet
EndChar

StartChar: yacute
Encoding: 253 253 292
Width: 752
Flags: W
LayerCount: 2
Fore
SplineSet
547 1500 m 1
 712 1500 l 1
 470 -8 l 1
 443 -183 424 -242 273 -242 c 2
 123 -242 l 1
 123 -105 l 1
 183 -105 l 2
 240 -105 293 -102 304 -90 c 0
 324 -68 316 -17 306 43 c 2
 58 1500 l 1
 224 1500 l 1
 340 711 l 1
 386 304 l 1
 401 304 l 1
 443 711 l 1
 547 1500 l 1
207 1718 m 1
 612 1881 l 1
 612 1719 l 1
 207 1635 l 1
 207 1718 l 1
EndSplineSet
EndChar

StartChar: ycircumflex
Encoding: 375 375 293
Width: 752
Flags: W
LayerCount: 2
Fore
SplineSet
547 1500 m 1
 712 1500 l 1
 470 -8 l 1
 443 -183 424 -242 273 -242 c 2
 123 -242 l 1
 123 -105 l 1
 183 -105 l 2
 240 -105 293 -102 304 -90 c 0
 324 -68 316 -17 306 43 c 2
 58 1500 l 1
 224 1500 l 1
 340 711 l 1
 386 304 l 1
 401 304 l 1
 443 711 l 1
 547 1500 l 1
292 1849 m 1
 480 1849 l 1
 611 1582 l 1
 472 1582 l 1
 386 1767 l 1
 300 1582 l 1
 160 1582 l 1
 292 1849 l 1
EndSplineSet
EndChar

StartChar: ydieresis
Encoding: 255 255 294
Width: 752
Flags: W
LayerCount: 2
Fore
SplineSet
547 1500 m 1
 712 1500 l 1
 470 -8 l 1
 443 -183 424 -242 273 -242 c 2
 123 -242 l 1
 123 -105 l 1
 183 -105 l 2
 240 -105 293 -102 304 -90 c 0
 324 -68 316 -17 306 43 c 2
 58 1500 l 1
 224 1500 l 1
 340 711 l 1
 386 304 l 1
 401 304 l 1
 443 711 l 1
 547 1500 l 1
529 1762 m 1
 727 1762 l 1
 727 1614 l 1
 529 1614 l 1
 529 1762 l 1
45 1762 m 1
 243 1762 l 1
 243 1614 l 1
 45 1614 l 1
 45 1762 l 1
EndSplineSet
EndChar

StartChar: ygrave
Encoding: 7923 7923 295
Width: 752
Flags: W
LayerCount: 2
Fore
SplineSet
547 1500 m 1
 712 1500 l 1
 470 -8 l 1
 443 -183 424 -242 273 -242 c 2
 123 -242 l 1
 123 -105 l 1
 183 -105 l 2
 240 -105 293 -102 304 -90 c 0
 324 -68 316 -17 306 43 c 2
 58 1500 l 1
 224 1500 l 1
 340 711 l 1
 386 304 l 1
 401 304 l 1
 443 711 l 1
 547 1500 l 1
217 1673 m 1
 217 1850 l 1
 562 1662 l 1
 562 1579 l 1
 217 1673 l 1
EndSplineSet
EndChar

StartChar: z
Encoding: 122 122 296
Width: 650
Flags: W
LayerCount: 2
Fore
SplineSet
105 1500 m 1
 586 1500 l 1
 586 1391 l 1
 253 145 l 1
 567 145 l 1
 567 0 l 1
 80 0 l 1
 80 123 l 1
 409 1355 l 1
 105 1355 l 1
 105 1500 l 1
EndSplineSet
EndChar

StartChar: zacute
Encoding: 378 378 297
Width: 650
Flags: W
LayerCount: 2
Fore
SplineSet
105 1500 m 1
 586 1500 l 1
 586 1391 l 1
 253 145 l 1
 567 145 l 1
 567 0 l 1
 80 0 l 1
 80 123 l 1
 409 1355 l 1
 105 1355 l 1
 105 1500 l 1
193 1718 m 1
 598 1881 l 1
 598 1719 l 1
 193 1635 l 1
 193 1718 l 1
EndSplineSet
EndChar

StartChar: zcaron
Encoding: 382 382 298
Width: 650
Flags: W
LayerCount: 2
Fore
SplineSet
105 1500 m 1
 586 1500 l 1
 586 1391 l 1
 253 145 l 1
 567 145 l 1
 567 0 l 1
 80 0 l 1
 80 123 l 1
 409 1355 l 1
 105 1355 l 1
 105 1500 l 1
458 1849 m 1
 597 1849 l 1
 466 1582 l 1
 278 1582 l 1
 146 1849 l 1
 286 1849 l 1
 372 1664 l 1
 458 1849 l 1
EndSplineSet
EndChar

StartChar: zdotaccent
Encoding: 380 380 299
Width: 650
Flags: W
LayerCount: 2
Fore
SplineSet
105 1500 m 1
 586 1500 l 1
 586 1391 l 1
 253 145 l 1
 567 145 l 1
 567 0 l 1
 80 0 l 1
 80 123 l 1
 409 1355 l 1
 105 1355 l 1
 105 1500 l 1
289 1746 m 1
 466 1746 l 1
 466 1598 l 1
 289 1598 l 1
 289 1746 l 1
EndSplineSet
EndChar

StartChar: uniFB01
Encoding: 64257 64257 300
Width: 1239
Flags: W
LayerCount: 2
Fore
SplineSet
413 1788 m 0
 490 1788 554 1768 600 1749 c 1
 600 1548 l 1
 588 1550 572 1551 557 1551 c 0
 522 1551 486 1541 486 1493 c 2
 486 1440 l 1
 1124 1440 l 1
 1124 0 l 1
 768 0 l 1
 768 1190 l 1
 486 1190 l 1
 486 0 l 1
 130 0 l 1
 130 1190 l 1
 34 1190 l 1
 34 1440 l 1
 130 1440 l 1
 130 1536 l 2
 130 1697 252 1788 413 1788 c 0
768 1800 m 1
 1124 1800 l 1
 1124 1600 l 1
 768 1600 l 1
 768 1800 l 1
EndSplineSet
EndChar

StartChar: uniFB02
Encoding: 64258 64258 301
Width: 1247
Flags: W
LayerCount: 2
Fore
SplineSet
590 1781 m 0
 779 1781 987 1748 1132 1709 c 1
 1132 0 l 1
 768 0 l 1
 768 1550 l 1
 711 1556 656 1563 609 1563 c 0
 510 1563 486 1535 486 1440 c 1
 600 1440 l 1
 600 1190 l 1
 486 1190 l 1
 486 0 l 1
 130 0 l 1
 130 1190 l 1
 34 1190 l 1
 34 1440 l 1
 130 1440 l 1
 130 1716 271 1781 590 1781 c 0
EndSplineSet
EndChar

StartChar: uniFB00
Encoding: 64256 64256 302
Width: 1306
Flags: W
LayerCount: 2
Fore
SplineSet
1066 1788 m 0
 1143 1788 1207 1768 1253 1749 c 1
 1253 1548 l 1
 1241 1550 1225 1551 1210 1551 c 0
 1175 1551 1139 1541 1139 1493 c 2
 1139 1440 l 1
 1253 1440 l 1
 1253 1190 l 1
 1139 1190 l 1
 1139 0 l 1
 783 0 l 1
 783 1190 l 1
 486 1190 l 1
 486 0 l 1
 130 0 l 1
 130 1190 l 1
 34 1190 l 1
 34 1440 l 1
 130 1440 l 1
 130 1536 l 2
 130 1697 252 1788 413 1788 c 0
 490 1788 554 1768 600 1749 c 1
 600 1548 l 1
 588 1550 572 1551 557 1551 c 0
 522 1551 486 1541 486 1493 c 2
 486 1440 l 1
 783 1440 l 1
 783 1536 l 2
 783 1697 905 1788 1066 1788 c 0
EndSplineSet
EndChar

StartChar: uniFB03
Encoding: 64259 64259 303
Width: 1892
Flags: W
LayerCount: 2
Fore
SplineSet
1066 1788 m 0
 1143 1788 1207 1768 1253 1749 c 1
 1253 1548 l 1
 1241 1550 1225 1551 1210 1551 c 0
 1175 1551 1139 1541 1139 1493 c 2
 1139 1440 l 1
 1777 1440 l 1
 1777 0 l 1
 1421 0 l 1
 1421 1190 l 1
 1139 1190 l 1
 1139 0 l 1
 783 0 l 1
 783 1190 l 1
 486 1190 l 1
 486 0 l 1
 130 0 l 1
 130 1190 l 1
 34 1190 l 1
 34 1440 l 1
 130 1440 l 1
 130 1536 l 2
 130 1697 252 1788 413 1788 c 0
 490 1788 554 1768 600 1749 c 1
 600 1548 l 1
 588 1550 572 1551 557 1551 c 0
 522 1551 486 1541 486 1493 c 2
 486 1440 l 1
 783 1440 l 1
 783 1536 l 2
 783 1697 905 1788 1066 1788 c 0
1421 1800 m 1
 1777 1800 l 1
 1777 1600 l 1
 1421 1600 l 1
 1421 1800 l 1
EndSplineSet
EndChar

StartChar: uniFB04
Encoding: 64260 64260 304
Width: 1900
Flags: W
LayerCount: 2
Fore
SplineSet
413 1788 m 0
 490 1788 554 1768 600 1749 c 1
 600 1548 l 1
 588 1550 572 1551 557 1551 c 0
 522 1551 486 1541 486 1493 c 2
 486 1440 l 1
 783 1440 l 1
 783 1701 968 1781 1255 1781 c 0
 1407 1781 1588 1758 1785 1729 c 1
 1785 0 l 1
 1421 0 l 1
 1421 1550 l 1
 1395 1553 1349 1560 1303 1560 c 0
 1223 1560 1139 1539 1139 1440 c 1
 1253 1440 l 1
 1253 1190 l 1
 1139 1190 l 1
 1139 0 l 1
 783 0 l 1
 783 1190 l 1
 486 1190 l 1
 486 0 l 1
 130 0 l 1
 130 1190 l 1
 34 1190 l 1
 34 1440 l 1
 130 1440 l 1
 130 1536 l 2
 130 1697 252 1788 413 1788 c 0
EndSplineSet
EndChar

StartChar: Delta
Encoding: 916 916 305
Width: 921
Flags: W
LayerCount: 2
Fore
SplineSet
217 1353 m 1
 708 1353 l 1
 887 0 l 1
 34 0 l 1
 217 1353 l 1
542 230 m 1
 475 1044 l 1
 443 1044 l 1
 376 230 l 1
 542 230 l 1
EndSplineSet
EndChar

StartChar: uni03A9
Encoding: 937 937 306
Width: 992
Flags: W
LayerCount: 2
Fore
SplineSet
496 1607 m 0
 774 1607 920 1462 920 1189 c 2
 920 710 l 2
 920 499 888 345 823 246 c 1
 945 246 l 1
 945 0 l 1
 529 0 l 1
 529 247 l 1
 604 285 581 431 581 581 c 2
 581 1211 l 2
 581 1281 565 1335 496 1335 c 0
 427 1335 411 1281 411 1211 c 2
 411 581 l 2
 411 441 399 282 463 247 c 1
 463 0 l 1
 47 0 l 1
 47 246 l 1
 169 246 l 1
 104 345 72 499 72 710 c 2
 72 1189 l 2
 72 1462 218 1607 496 1607 c 0
EndSplineSet
EndChar

StartChar: mu
Encoding: 956 956 307
Width: 939
Flags: W
LayerCount: 2
Fore
SplineSet
615 1500 m 1
 783 1500 l 1
 783 0 l 1
 615 0 l 1
 615 151 l 1
 589 63 506 -20 388 -20 c 0
 364 -20 338 -16 313 -7 c 1
 313 -186 l 1
 146 -186 l 1
 146 1500 l 1
 314 1500 l 1
 314 184 l 2
 314 180 365 132 455 132 c 0
 558 132 615 205 615 315 c 2
 615 1500 l 1
EndSplineSet
EndChar

StartChar: ordfeminine
Encoding: 170 170 309
Width: 927
Flags: W
LayerCount: 2
Fore
SplineSet
479 1608 m 0
 703 1608 714 1458 714 1185 c 2
 714 390 l 1
 579 390 l 1
 579 485 l 1
 568 449 516 380 419 380 c 0
 285 380 223 494 223 695 c 2
 223 836 l 2
 223 1026 386 1076 596 1166 c 1
 596 1067 l 1
 393 976 357 957 357 804 c 2
 357 703 l 2
 357 550 375 491 449 491 c 0
 510 491 562 538 579 571 c 1
 579 1243 l 2
 579 1418 576 1492 479 1492 c 0
 383 1492 372 1420 372 1238 c 2
 372 1204 l 1
 237 1204 l 1
 237 1237 l 2
 237 1434 254 1608 479 1608 c 0
EndSplineSet
EndChar

StartChar: ordmasculine
Encoding: 186 186 310
Width: 908
Flags: W
LayerCount: 2
Fore
SplineSet
475 1607 m 0
 692 1607 719 1435 719 1208 c 2
 719 797 l 2
 719 552 700 375 475 375 c 0
 251 375 226 548 226 797 c 2
 226 1208 l 2
 226 1434 258 1607 475 1607 c 0
475 1491 m 0
 373 1491 361 1388 361 1238 c 2
 361 754 l 2
 361 596 373 490 475 490 c 0
 570 490 584 596 584 754 c 2
 584 1238 l 2
 584 1388 570 1491 475 1491 c 0
EndSplineSet
EndChar

StartChar: zero
Encoding: 48 48 311
Width: 856
Flags: W
LayerCount: 2
Fore
SplineSet
426 1781 m 0
 708 1781 756 1619 756 1316 c 2
 756 475 l 2
 756 162 714 -21 426 -21 c 0
 138 -21 100 162 100 475 c 2
 100 1316 l 2
 100 1619 144 1781 426 1781 c 0
424 1640 m 0
 356 1640 268 1639 268 1328 c 2
 268 470 l 2
 268 119 342 119 424 119 c 0
 501 119 588 119 588 470 c 2
 588 1327 l 2
 588 1639 494 1640 424 1640 c 0
EndSplineSet
EndChar

StartChar: one
Encoding: 49 49 312
Width: 626
Flags: W
LayerCount: 2
Fore
SplineSet
329 1761 m 1
 437 1761 l 1
 437 0 l 1
 269 0 l 1
 269 1517 l 1
 221 1460 125 1431 51 1431 c 1
 51 1541 l 1
 157 1556 273 1629 329 1761 c 1
EndSplineSet
EndChar

StartChar: two
Encoding: 50 50 313
Width: 856
Flags: W
LayerCount: 2
Fore
SplineSet
488 1780 m 0
 711 1780 744 1521 744 1293 c 0
 744 823 402 574 349 120 c 1
 720 120 l 1
 720 0 l 1
 182 0 l 1
 182 94 l 2
 182 220 283 467 390 689 c 2
 512 942 l 2
 553 1026 583 1191 583 1313 c 0
 583 1590 532 1638 468 1638 c 0
 402 1638 344 1592 344 1297 c 2
 344 1065 l 1
 176 1065 l 1
 176 1173 l 2
 176 1553 191 1780 488 1780 c 0
EndSplineSet
EndChar

StartChar: three
Encoding: 51 51 314
Width: 876
Flags: W
LayerCount: 2
Fore
SplineSet
437 1780 m 0
 669 1780 764 1623 764 1320 c 0
 764 1120 715 966 588 918 c 1
 715 861 767 671 767 474 c 0
 767 141 667 -20 435 -20 c 0
 203 -20 119 141 119 474 c 2
 119 529 l 1
 287 529 l 1
 287 473 l 2
 287 201 307 121 437 121 c 0
 565 121 599 215 599 477 c 0
 599 765 540 850 393 850 c 2
 348 850 l 1
 348 990 l 1
 391 990 l 2
 535 990 596 1030 596 1321 c 0
 596 1593 525 1638 435 1638 c 0
 347 1638 293 1579 293 1317 c 2
 293 1283 l 1
 125 1283 l 1
 125 1320 l 2
 125 1623 205 1780 437 1780 c 0
EndSplineSet
EndChar

StartChar: four
Encoding: 52 52 315
Width: 856
Flags: W
LayerCount: 2
Fore
SplineSet
493 1761 m 1
 660 1761 l 1
 660 477 l 1
 811 477 l 1
 811 345 l 1
 660 345 l 1
 660 -1 l 1
 504 -1 l 1
 504 345 l 1
 100 345 l 1
 100 458 l 1
 493 1761 l 1
504 477 m 1
 504 1423 l 1
 247 477 l 1
 504 477 l 1
EndSplineSet
EndChar

StartChar: five
Encoding: 53 53 316
Width: 856
Flags: W
LayerCount: 2
Fore
SplineSet
154 1760 m 1
 645 1760 l 1
 645 1607 l 1
 307 1607 l 1
 307 1163 l 1
 327 1202 388 1225 445 1225 c 0
 595 1225 684 1148 684 668 c 0
 684 149 666 -20 412 -20 c 0
 187 -20 132 138 132 299 c 2
 132 476 l 1
 300 476 l 1
 300 280 l 2
 300 188 327 119 412 119 c 0
 488 119 524 175 524 291 c 2
 524 863 l 2
 524 1009 497 1080 414 1080 c 0
 347 1080 296 1018 296 882 c 1
 154 902 l 1
 154 1760 l 1
EndSplineSet
EndChar

StartChar: six
Encoding: 54 54 317
Width: 856
Flags: W
LayerCount: 2
Fore
SplineSet
441 1780 m 0
 699 1780 735 1614 735 1251 c 1
 567 1251 l 1
 567 1553 562 1638 433 1638 c 0
 306 1638 278 1558 278 1257 c 2
 278 1014 l 1
 320 1071 396 1100 458 1102 c 0
 710 1112 784 955 784 562 c 2
 784 449 l 2
 784 146 714 -20 452 -20 c 0
 170 -20 110 206 110 509 c 2
 110 1262 l 2
 110 1625 183 1780 441 1780 c 0
458 961 m 0
 367 961 295 914 278 902 c 1
 278 497 l 2
 278 236 310 124 452 124 c 0
 580 124 616 185 616 444 c 2
 616 556 l 2
 616 858 587 961 458 961 c 0
EndSplineSet
EndChar

StartChar: seven
Encoding: 55 55 318
Width: 856
Flags: W
LayerCount: 2
Fore
SplineSet
118 1761 m 1
 774 1761 l 1
 774 1639 l 1
 774 1639 487 892 430 1 c 1
 253 1 l 1
 329 955 621 1625 621 1625 c 1
 118 1625 l 1
 118 1761 l 1
EndSplineSet
EndChar

StartChar: eight
Encoding: 56 56 319
Width: 856
Flags: W
LayerCount: 2
Fore
SplineSet
435 1780 m 0
 667 1780 742 1649 742 1346 c 0
 742 1146 703 1008 597 936 c 1
 689 869 746 651 746 454 c 0
 746 121 665 -20 433 -20 c 0
 201 -20 110 121 110 454 c 0
 110 654 166 866 264 932 c 1
 160 1006 126 1149 126 1346 c 0
 126 1649 203 1780 435 1780 c 0
435 867 m 0
 358 867 278 744 278 453 c 0
 278 201 305 120 435 120 c 0
 563 120 578 198 578 457 c 0
 578 745 517 867 435 867 c 0
433 1640 m 0
 345 1640 294 1605 294 1343 c 0
 294 1055 351 990 433 990 c 0
 510 990 574 1056 574 1347 c 0
 574 1619 523 1640 433 1640 c 0
EndSplineSet
EndChar

StartChar: nine
Encoding: 57 57 320
Width: 856
Flags: W
LayerCount: 2
Fore
SplineSet
381 1780 m 0
 663 1780 691 1554 691 1251 c 2
 691 540 l 2
 691 177 651 -20 393 -20 c 0
 165 -20 105 147 105 510 c 1
 266 510 l 1
 266 178 288 120 407 120 c 0
 530 120 523 238 523 519 c 2
 523 710 l 1
 488 678 427 662 365 662 c 0
 122 662 67 856 67 1219 c 2
 67 1251 l 2
 67 1554 99 1780 381 1780 c 0
381 1636 m 0
 253 1636 235 1509 235 1264 c 2
 235 1198 l 2
 235 896 256 793 385 793 c 0
 459 793 504 813 523 830 c 1
 523 1263 l 2
 523 1510 503 1636 381 1636 c 0
EndSplineSet
EndChar

StartChar: fraction
Encoding: 8260 8260 321
Width: 829
Flags: W
LayerCount: 2
Fore
SplineSet
534 1768 m 1
 685 1768 l 1
 238 0 l 1
 88 0 l 1
 534 1768 l 1
EndSplineSet
EndChar

StartChar: onehalf
Encoding: 189 189 322
Width: 1620
Flags: W
LayerCount: 2
Fore
SplineSet
944 1768 m 1
 1075 1768 l 1
 608 0 l 1
 478 0 l 1
 944 1768 l 1
307 1761 m 1
 388 1761 l 1
 388 438 l 1
 262 438 l 1
 262 1578 l 1
 226 1535 154 1513 98 1513 c 1
 98 1596 l 1
 178 1607 265 1662 307 1761 c 1
1350 1338 m 0
 1517 1338 1542 1144 1542 972 c 0
 1542 619 1285 432 1245 91 c 1
 1524 91 l 1
 1524 1 l 1
 1120 1 l 1
 1120 72 l 2
 1120 166 1196 352 1276 519 c 2
 1368 709 l 2
 1398 772 1421 896 1421 987 c 0
 1421 1196 1383 1232 1335 1232 c 0
 1285 1232 1241 1197 1241 975 c 2
 1241 801 l 1
 1115 801 l 1
 1115 882 l 2
 1115 1168 1127 1338 1350 1338 c 0
EndSplineSet
EndChar

StartChar: onequarter
Encoding: 188 188 323
Width: 1535
Flags: W
LayerCount: 2
Fore
SplineSet
944 1768 m 1
 1075 1768 l 1
 608 0 l 1
 478 0 l 1
 944 1768 l 1
307 1761 m 1
 388 1761 l 1
 388 438 l 1
 262 438 l 1
 262 1578 l 1
 226 1535 154 1513 98 1513 c 1
 98 1596 l 1
 178 1607 265 1662 307 1761 c 1
1183 1204 m 1
 1297 1204 l 1
 1297 327 l 1
 1400 327 l 1
 1400 237 l 1
 1297 237 l 1
 1297 0 l 1
 1190 0 l 1
 1190 237 l 1
 914 237 l 1
 914 314 l 1
 1183 1204 l 1
1190 327 m 1
 1190 973 l 1
 1015 327 l 1
 1190 327 l 1
EndSplineSet
EndChar

StartChar: threequarters
Encoding: 190 190 324
Width: 1555
Flags: W
LayerCount: 2
Fore
SplineSet
1007 1768 m 1
 1138 1768 l 1
 671 0 l 1
 541 0 l 1
 1007 1768 l 1
1203 1204 m 1
 1317 1204 l 1
 1317 327 l 1
 1420 327 l 1
 1420 237 l 1
 1317 237 l 1
 1317 0 l 1
 1210 0 l 1
 1210 237 l 1
 934 237 l 1
 934 314 l 1
 1203 1204 l 1
1210 327 m 1
 1210 973 l 1
 1035 327 l 1
 1210 327 l 1
358 1781 m 0
 517 1781 582 1674 582 1467 c 0
 582 1330 548 1225 462 1192 c 1
 548 1153 584 1023 584 889 c 0
 584 661 516 551 357 551 c 0
 199 551 141 661 141 889 c 2
 141 926 l 1
 256 926 l 1
 256 888 l 2
 256 702 270 648 358 648 c 0
 446 648 469 712 469 891 c 0
 469 1088 429 1146 328 1146 c 2
 298 1146 l 1
 298 1241 l 1
 327 1241 l 2
 425 1241 467 1269 467 1467 c 0
 467 1653 419 1684 357 1684 c 0
 297 1684 260 1643 260 1465 c 2
 260 1441 l 1
 145 1441 l 1
 145 1467 l 2
 145 1674 200 1781 358 1781 c 0
EndSplineSet
EndChar

StartChar: uni00B9
Encoding: 185 185 325
Width: 626
Flags: W
LayerCount: 2
Fore
SplineSet
307 1761 m 1
 388 1761 l 1
 388 438 l 1
 262 438 l 1
 262 1578 l 1
 226 1535 154 1513 98 1513 c 1
 98 1596 l 1
 178 1607 265 1662 307 1761 c 1
EndSplineSet
EndChar

StartChar: uni00B2
Encoding: 178 178 326
Width: 856
Flags: W
LayerCount: 2
Fore
SplineSet
482 1780 m 0
 649 1780 674 1586 674 1414 c 0
 674 1061 417 874 377 533 c 1
 656 533 l 1
 656 443 l 1
 252 443 l 1
 252 514 l 2
 252 608 328 794 408 961 c 2
 500 1151 l 2
 530 1214 553 1338 553 1429 c 0
 553 1638 515 1674 467 1674 c 0
 417 1674 373 1639 373 1417 c 2
 373 1243 l 1
 247 1243 l 1
 247 1324 l 2
 247 1610 259 1780 482 1780 c 0
EndSplineSet
EndChar

StartChar: uni00B3
Encoding: 179 179 327
Width: 876
Flags: W
LayerCount: 2
Fore
SplineSet
438 1781 m 0
 597 1781 662 1674 662 1467 c 0
 662 1330 628 1225 542 1192 c 1
 628 1153 664 1023 664 889 c 0
 664 661 596 551 437 551 c 0
 279 551 221 661 221 889 c 2
 221 926 l 1
 336 926 l 1
 336 888 l 2
 336 702 350 648 438 648 c 0
 526 648 549 712 549 891 c 0
 549 1088 509 1146 408 1146 c 2
 378 1146 l 1
 378 1241 l 1
 407 1241 l 2
 505 1241 547 1269 547 1467 c 0
 547 1653 499 1684 437 1684 c 0
 377 1684 340 1643 340 1465 c 2
 340 1441 l 1
 225 1441 l 1
 225 1467 l 2
 225 1674 280 1781 438 1781 c 0
EndSplineSet
EndChar

StartChar: uni2074
Encoding: 8308 8308 328
Width: 856
Flags: W
LayerCount: 2
Fore
SplineSet
481 1761 m 1
 595 1761 l 1
 595 884 l 1
 698 884 l 1
 698 794 l 1
 595 794 l 1
 595 557 l 1
 488 557 l 1
 488 794 l 1
 212 794 l 1
 212 871 l 1
 481 1761 l 1
488 884 m 1
 488 1530 l 1
 313 884 l 1
 488 884 l 1
EndSplineSet
EndChar

StartChar: asterisk
Encoding: 42 42 329
Width: 960
Flags: W
LayerCount: 2
Fore
SplineSet
409 1760 m 1
 551 1760 l 1
 530 1491 l 1
 755 1663 l 1
 827 1539 l 1
 575 1409 l 1
 827 1271 l 1
 755 1147 l 1
 530 1324 l 1
 551 1050 l 1
 409 1050 l 1
 435 1328 l 1
 212 1155 l 1
 140 1280 l 1
 385 1409 l 1
 133 1530 l 1
 205 1654 l 1
 435 1489 l 1
 409 1760 l 1
EndSplineSet
EndChar

StartChar: backslash
Encoding: 92 92 330
Width: 868
Flags: W
LayerCount: 2
Fore
SplineSet
127 1761 m 1
 273 1761 l 1
 683 0 l 1
 538 0 l 1
 127 1761 l 1
EndSplineSet
EndChar

StartChar: bullet
Encoding: 8226 8226 331
Width: 861
Flags: W
LayerCount: 2
Fore
SplineSet
430 979 m 0
 571 979 644 897 644 741 c 0
 644 585 571 503 430 503 c 0
 290 503 217 585 217 741 c 0
 217 897 290 979 430 979 c 0
EndSplineSet
EndChar

StartChar: colon
Encoding: 58 58 332
Width: 555
Flags: W
LayerCount: 2
Fore
SplineSet
112 1307 m 1
 443 1307 l 1
 443 1009 l 1
 112 1009 l 1
 112 1307 l 1
112 568 m 1
 443 568 l 1
 443 270 l 1
 112 270 l 1
 112 568 l 1
EndSplineSet
EndChar

StartChar: comma
Encoding: 44 44 333
Width: 445
Flags: W
LayerCount: 2
Fore
SplineSet
120 214 m 1
 360 214 l 1
 360 9 l 1
 259 -348 l 1
 168 -348 l 1
 243 0 l 1
 120 0 l 1
 120 214 l 1
EndSplineSet
EndChar

StartChar: ellipsis
Encoding: 8230 8230 334
Width: 1450
Flags: W
LayerCount: 2
Fore
SplineSet
625 168 m 1
 768 168 l 1
 768 0 l 1
 625 0 l 1
 625 168 l 1
1056 168 m 1
 1199 168 l 1
 1199 0 l 1
 1056 0 l 1
 1056 168 l 1
185 168 m 1
 328 168 l 1
 328 0 l 1
 185 0 l 1
 185 168 l 1
EndSplineSet
EndChar

StartChar: exclam
Encoding: 33 33 335
Width: 536
Flags: W
LayerCount: 2
Fore
SplineSet
166 1760 m 1
 370 1760 l 1
 301 377 l 1
 233 377 l 1
 166 1760 l 1
167 211 m 1
 365 211 l 1
 365 0 l 1
 167 0 l 1
 167 211 l 1
EndSplineSet
EndChar

StartChar: exclamdown
Encoding: 161 161 336
Width: 558
Flags: W
LayerCount: 2
Fore
SplineSet
406 -212 m 1
 202 -212 l 1
 271 1171 l 1
 339 1171 l 1
 406 -212 l 1
405 1337 m 1
 207 1337 l 1
 207 1548 l 1
 405 1548 l 1
 405 1337 l 1
EndSplineSet
EndChar

StartChar: numbersign
Encoding: 35 35 337
Width: 1288
Flags: W
LayerCount: 2
Fore
SplineSet
908 1761 m 1
 1052 1761 l 1
 931 1149 l 1
 1088 1149 l 1
 1088 1039 l 1
 909 1039 l 1
 855 765 l 1
 1041 765 l 1
 1041 655 l 1
 833 655 l 1
 703 0 l 1
 560 0 l 1
 688 655 l 1
 476 655 l 1
 348 0 l 1
 205 0 l 1
 334 655 l 1
 174 655 l 1
 174 765 l 1
 356 765 l 1
 410 1039 l 1
 221 1039 l 1
 221 1149 l 1
 432 1149 l 1
 553 1761 l 1
 697 1761 l 1
 574 1149 l 1
 785 1149 l 1
 908 1761 l 1
712 763 m 1
 765 1034 l 1
 551 1034 l 1
 497 763 l 1
 712 763 l 1
EndSplineSet
EndChar

StartChar: period
Encoding: 46 46 338
Width: 532
Flags: W
LayerCount: 2
Fore
SplineSet
185 168 m 1
 328 168 l 1
 328 0 l 1
 185 0 l 1
 185 168 l 1
EndSplineSet
EndChar

StartChar: periodcentered
Encoding: 183 183 339
Width: 480
Flags: W
LayerCount: 2
Fore
SplineSet
158 966 m 1
 338 966 l 1
 338 780 l 1
 158 780 l 1
 158 966 l 1
EndSplineSet
EndChar

StartChar: question
Encoding: 63 63 340
Width: 738
Flags: W
LayerCount: 2
Fore
SplineSet
404 1782 m 0
 653 1782 654 1592 654 1309 c 0
 654 963 595 801 375 739 c 1
 375 494 l 1
 232 494 l 1
 232 810 l 1
 486 898 486 1029 486 1373 c 0
 486 1571 488 1638 408 1638 c 0
 321 1638 320 1578 320 1369 c 2
 320 1160 l 1
 152 1160 l 1
 152 1367 l 2
 152 1523 133 1782 404 1782 c 0
232 299 m 1
 375 299 l 1
 375 1 l 1
 232 1 l 1
 232 299 l 1
EndSplineSet
EndChar

StartChar: questiondown
Encoding: 191 191 341
Width: 1044
Flags: W
LayerCount: 2
Fore
SplineSet
488 -287 m 0
 239 -287 238 -97 238 186 c 0
 238 532 297 694 517 756 c 1
 517 1001 l 1
 660 1001 l 1
 660 685 l 1
 406 597 406 466 406 122 c 0
 406 -76 404 -143 484 -143 c 0
 571 -143 572 -83 572 126 c 2
 572 335 l 1
 740 335 l 1
 740 128 l 2
 740 -28 759 -287 488 -287 c 0
660 1196 m 1
 517 1196 l 1
 517 1494 l 1
 660 1494 l 1
 660 1196 l 1
EndSplineSet
EndChar

StartChar: quotedbl
Encoding: 34 34 342
Width: 944
Flags: W
LayerCount: 2
Fore
SplineSet
535 1761 m 1
 706 1761 l 1
 641 1125 l 1
 595 1125 l 1
 535 1761 l 1
251 1761 m 1
 422 1761 l 1
 357 1125 l 1
 311 1125 l 1
 251 1761 l 1
EndSplineSet
EndChar

StartChar: quotesingle
Encoding: 39 39 343
Width: 407
Flags: W
LayerCount: 2
Fore
SplineSet
120 1761 m 1
 291 1761 l 1
 226 1125 l 1
 180 1125 l 1
 120 1761 l 1
EndSplineSet
EndChar

StartChar: semicolon
Encoding: 59 59 344
Width: 561
Flags: W
LayerCount: 2
Fore
SplineSet
150 534 m 1
 424 534 l 1
 424 308 l 1
 306 -100 l 1
 193 -100 l 1
 284 299 l 1
 150 299 l 1
 150 534 l 1
137 1224 m 1
 406 1224 l 1
 406 960 l 1
 137 960 l 1
 137 1224 l 1
EndSplineSet
EndChar

StartChar: slash
Encoding: 47 47 345
Width: 756
Flags: W
LayerCount: 2
Fore
SplineSet
534 1768 m 1
 685 1768 l 1
 238 0 l 1
 88 0 l 1
 534 1768 l 1
EndSplineSet
EndChar

StartChar: underscore
Encoding: 95 95 346
Width: 748
Flags: W
LayerCount: 2
Fore
SplineSet
48 -58 m 1
 699 -58 l 1
 699 -189 l 1
 48 -189 l 1
 48 -58 l 1
EndSplineSet
EndChar

StartChar: braceleft
Encoding: 123 123 347
Width: 798
Flags: W
LayerCount: 2
Fore
SplineSet
570 1781 m 2
 630 1781 l 1
 630 1634 l 1
 507 1634 491 1611 491 1430 c 2
 491 1184 l 2
 491 915 472 875 321 830 c 1
 472 785 491 745 491 476 c 2
 491 230 l 2
 491 49 507 26 630 26 c 1
 630 -121 l 1
 570 -121 l 2
 380 -121 324 -44 324 217 c 2
 324 492 l 2
 324 699 308 726 185 726 c 1
 185 934 l 1
 308 934 324 961 324 1168 c 2
 324 1443 l 2
 324 1704 380 1781 570 1781 c 2
EndSplineSet
EndChar

StartChar: braceright
Encoding: 125 125 348
Width: 798
Flags: W
LayerCount: 2
Fore
SplineSet
185 1781 m 1
 245 1781 l 2
 435 1781 491 1704 491 1443 c 2
 491 1168 l 2
 491 961 507 934 630 934 c 1
 630 726 l 1
 507 726 491 699 491 492 c 2
 491 217 l 2
 491 -44 435 -121 245 -121 c 2
 185 -121 l 1
 185 26 l 1
 308 26 324 49 324 230 c 2
 324 476 l 2
 324 745 343 785 494 830 c 1
 343 875 324 915 324 1184 c 2
 324 1430 l 2
 324 1611 308 1634 185 1634 c 1
 185 1781 l 1
EndSplineSet
EndChar

StartChar: bracketleft
Encoding: 91 91 349
Width: 764
Flags: W
LayerCount: 2
Fore
SplineSet
241 1761 m 1
 621 1761 l 1
 621 1631 l 1
 409 1631 l 1
 409 130 l 1
 621 130 l 1
 621 0 l 1
 241 0 l 1
 241 1761 l 1
EndSplineSet
EndChar

StartChar: bracketright
Encoding: 93 93 350
Width: 764
Flags: W
LayerCount: 2
Fore
SplineSet
186 1761 m 1
 566 1761 l 1
 566 0 l 1
 186 0 l 1
 186 130 l 1
 398 130 l 1
 398 1631 l 1
 186 1631 l 1
 186 1761 l 1
EndSplineSet
EndChar

StartChar: parenleft
Encoding: 40 40 351
Width: 535
Flags: W
LayerCount: 2
Fore
SplineSet
439 1804 m 1
 439 1677 l 1
 319 1677 300 1676 300 1390 c 2
 300 309 l 2
 300 23 319 22 439 22 c 1
 439 -105 l 1
 192 -105 132 -50 132 313 c 2
 132 1386 l 2
 132 1749 192 1804 439 1804 c 1
EndSplineSet
EndChar

StartChar: parenright
Encoding: 41 41 352
Width: 535
Flags: W
LayerCount: 2
Fore
SplineSet
96 1677 m 1
 96 1804 l 1
 343 1804 403 1749 403 1386 c 2
 403 313 l 2
 403 -50 343 -105 96 -105 c 1
 96 22 l 1
 216 22 235 23 235 309 c 2
 235 1390 l 2
 235 1676 216 1677 96 1677 c 1
EndSplineSet
EndChar

StartChar: emdash
Encoding: 8212 8212 353
Width: 1153
Flags: W
LayerCount: 2
Fore
SplineSet
60 741 m 1
 1092 741 l 1
 1092 509 l 1
 60 509 l 1
 60 741 l 1
EndSplineSet
EndChar

StartChar: endash
Encoding: 8211 8211 354
Width: 756
Flags: W
LayerCount: 2
Fore
SplineSet
120 741 m 1
 636 741 l 1
 636 509 l 1
 120 509 l 1
 120 741 l 1
EndSplineSet
EndChar

StartChar: hyphen
Encoding: 45 45 355
Width: 696
Flags: W
LayerCount: 2
Fore
SplineSet
88 938 m 1
 524 938 l 1
 524 826 l 1
 88 826 l 1
 88 938 l 1
EndSplineSet
EndChar

StartChar: uni00AD
Encoding: 173 173 356
Width: 696
Flags: W
LayerCount: 2
Fore
SplineSet
90 741 m 1
 606 741 l 1
 606 509 l 1
 90 509 l 1
 90 741 l 1
EndSplineSet
EndChar

StartChar: guillemotleft
Encoding: 171 171 357
Width: 1304
Flags: W
LayerCount: 2
Fore
SplineSet
606 809 m 1
 1076 1080 l 1
 1076 911 l 1
 764 749 l 1
 1076 578 l 1
 1076 400 l 1
 606 685 l 1
 606 809 l 1
78 809 m 1
 548 1080 l 1
 548 911 l 1
 236 749 l 1
 548 578 l 1
 548 400 l 1
 78 685 l 1
 78 809 l 1
EndSplineSet
EndChar

StartChar: guillemotright
Encoding: 187 187 358
Width: 1304
Flags: W
LayerCount: 2
Fore
SplineSet
714 911 m 1
 714 1080 l 1
 1184 809 l 1
 1184 685 l 1
 714 400 l 1
 714 578 l 1
 1026 749 l 1
 714 911 l 1
186 911 m 1
 186 1080 l 1
 656 809 l 1
 656 685 l 1
 186 400 l 1
 186 578 l 1
 498 749 l 1
 186 911 l 1
EndSplineSet
EndChar

StartChar: guilsinglleft
Encoding: 8249 8249 359
Width: 606
Flags: W
LayerCount: 2
Fore
SplineSet
78 809 m 1
 548 1080 l 1
 548 911 l 1
 236 749 l 1
 548 578 l 1
 548 400 l 1
 78 685 l 1
 78 809 l 1
EndSplineSet
EndChar

StartChar: guilsinglright
Encoding: 8250 8250 360
Width: 727
Flags: W
LayerCount: 2
Fore
SplineSet
162 911 m 1
 162 1080 l 1
 632 809 l 1
 632 685 l 1
 162 400 l 1
 162 578 l 1
 474 749 l 1
 162 911 l 1
EndSplineSet
EndChar

StartChar: quotedblbase
Encoding: 8222 8222 361
Width: 1016
Flags: W
LayerCount: 2
Fore
SplineSet
626 215 m 1
 910 215 l 1
 910 9 l 1
 792 -419 l 1
 679 -419 l 1
 770 0 l 1
 626 0 l 1
 626 215 l 1
176 215 m 1
 460 215 l 1
 460 9 l 1
 342 -419 l 1
 229 -419 l 1
 320 0 l 1
 176 0 l 1
 176 215 l 1
EndSplineSet
EndChar

StartChar: quotedblleft
Encoding: 8220 8220 362
Width: 1030
Flags: W
LayerCount: 2
Fore
SplineSet
738 1782 m 1
 851 1782 l 1
 760 1363 l 1
 904 1363 l 1
 904 1148 l 1
 620 1148 l 1
 620 1354 l 1
 738 1782 l 1
288 1782 m 1
 401 1782 l 1
 310 1363 l 1
 454 1363 l 1
 454 1148 l 1
 170 1148 l 1
 170 1354 l 1
 288 1782 l 1
EndSplineSet
EndChar

StartChar: quotedblright
Encoding: 8221 8221 363
Width: 1077
Flags: W
LayerCount: 2
Fore
SplineSet
635 1782 m 1
 919 1782 l 1
 919 1576 l 1
 801 1148 l 1
 688 1148 l 1
 779 1567 l 1
 635 1567 l 1
 635 1782 l 1
185 1782 m 1
 469 1782 l 1
 469 1576 l 1
 351 1148 l 1
 238 1148 l 1
 329 1567 l 1
 185 1567 l 1
 185 1782 l 1
EndSplineSet
EndChar

StartChar: quoteleft
Encoding: 8216 8216 364
Width: 595
Flags: W
LayerCount: 2
Fore
SplineSet
277 1782 m 1
 390 1782 l 1
 299 1363 l 1
 443 1363 l 1
 443 1148 l 1
 159 1148 l 1
 159 1354 l 1
 277 1782 l 1
EndSplineSet
EndChar

StartChar: quoteright
Encoding: 8217 8217 365
Width: 595
Flags: W
LayerCount: 2
Fore
SplineSet
179 1782 m 1
 463 1782 l 1
 463 1576 l 1
 345 1148 l 1
 232 1148 l 1
 323 1567 l 1
 179 1567 l 1
 179 1782 l 1
EndSplineSet
EndChar

StartChar: quotesinglbase
Encoding: 8218 8218 366
Width: 484
Flags: W
LayerCount: 2
Fore
SplineSet
108 215 m 1
 392 215 l 1
 392 9 l 1
 274 -419 l 1
 161 -419 l 1
 252 0 l 1
 108 0 l 1
 108 215 l 1
EndSplineSet
EndChar

StartChar: florin
Encoding: 402 402 369
Width: 767
Flags: W
LayerCount: 2
Fore
SplineSet
492 1786 m 0
 537 1786 591 1775 652 1752 c 1
 652 1621 l 1
 607 1635 571 1643 544 1643 c 0
 483 1643 462 1604 462 1515 c 2
 462 1253 l 1
 665 1253 l 1
 665 1131 l 1
 462 1131 l 1
 462 221 l 2
 462 67 398 -13 258 -13 c 0
 217 -13 170 -6 115 8 c 1
 115 139 l 1
 135 138 153 137 169 137 c 0
 289 137 306 169 306 305 c 2
 306 1131 l 1
 107 1131 l 1
 107 1253 l 1
 306 1253 l 1
 306 1539 l 2
 306 1703 369 1786 492 1786 c 0
EndSplineSet
EndChar

StartChar: cent
Encoding: 162 162 370
Width: 788
Flags: W
LayerCount: 2
Fore
SplineSet
348 1768 m 1
 461 1768 l 1
 461 1511 l 1
 348 1513 l 1
 348 1768 l 1
348 6 m 1
 461 6 l 1
 461 -249 l 1
 348 -249 l 1
 348 6 l 1
443 1518 m 0
 714 1518 730 1320 730 1030 c 2
 730 964 l 1
 562 964 l 1
 562 1070 l 2
 562 1266 562 1368 443 1368 c 0
 316 1368 300 1249 300 1062 c 2
 300 448 l 2
 300 231 311 132 437 132 c 0
 556 132 562 246 562 443 c 2
 562 567 l 1
 730 567 l 1
 730 504 l 2
 730 198 718 -18 437 -18 c 0
 158 -18 132 198 132 509 c 2
 132 1021 l 2
 132 1303 173 1518 443 1518 c 0
EndSplineSet
EndChar

StartChar: currency
Encoding: 164 164 371
Width: 1159
Flags: W
LayerCount: 2
Fore
SplineSet
797 1331 m 1
 884 1418 l 1
 1034 1269 l 1
 944 1179 l 1
 980 1114 998 1043 998 964 c 0
 998 885 980 813 944 748 c 1
 1034 658 l 1
 884 509 l 1
 795 597 l 1
 733 562 661 545 579 545 c 0
 496 545 424 563 363 598 c 1
 274 509 l 1
 125 659 l 1
 216 750 l 1
 181 815 163 887 163 964 c 0
 163 1042 180 1113 215 1178 c 1
 125 1268 l 1
 274 1418 l 1
 361 1330 l 1
 426 1367 498 1385 579 1385 c 0
 659 1385 732 1367 797 1331 c 1
579 1186 m 0
 453 1186 371 1087 371 964 c 0
 371 840 452 741 579 741 c 0
 706 741 788 842 788 966 c 0
 788 1092 708 1186 579 1186 c 0
EndSplineSet
EndChar

StartChar: dollar
Encoding: 36 36 372
Width: 867
Flags: W
LayerCount: 2
Fore
SplineSet
380 1760 m 1
 493 1760 l 1
 493 1474 l 1
 380 1474 l 1
 380 1760 l 1
399 23 m 1
 512 23 l 1
 512 -263 l 1
 399 -263 l 1
 399 23 l 1
395 1520 m 0
 581 1520 685 1403 685 1032 c 2
 685 966 l 1
 517 966 l 1
 517 1072 l 2
 517 1263 488 1370 396 1370 c 0
 307 1370 264 1326 259 1185 c 0
 256 1078 306 967 416 858 c 1
 503 774 l 1
 635 644 710 495 710 333 c 0
 710 122 616 -18 415 -18 c 0
 219 -18 108 102 108 411 c 2
 108 535 l 1
 276 535 l 1
 276 429 l 2
 276 238 312 131 404 131 c 0
 496 131 539 181 539 339 c 0
 539 449 488 562 381 669 c 0
 363 688 334 717 293 756 c 0
 164 882 92 1025 92 1177 c 0
 92 1410 213 1520 395 1520 c 0
EndSplineSet
EndChar

StartChar: sterling
Encoding: 163 163 373
Width: 1077
Flags: W
LayerCount: 2
Fore
SplineSet
584 1781 m 0
 787 1781 923 1653 923 1381 c 2
 923 1246 l 1
 772 1246 l 1
 772 1393 l 2
 772 1541 711 1640 581 1640 c 0
 433 1640 334 1586 334 1414 c 0
 334 1409 378 1258 470 942 c 1
 831 942 l 1
 831 825 l 1
 502 825 l 1
 510 765 516 699 516 642 c 0
 516 391 468 200 316 126 c 1
 914 126 l 1
 914 0 l 1
 82 0 l 1
 82 105 l 1
 246 177 356 323 356 633 c 0
 356 695 350 765 338 825 c 1
 97 825 l 1
 97 942 l 1
 308 942 l 1
 228 1217 174 1400 174 1399 c 1
 174 1628 272 1781 584 1781 c 0
EndSplineSet
EndChar

StartChar: yen
Encoding: 165 165 374
Width: 828
Flags: W
LayerCount: 2
Fore
SplineSet
80 815 m 1
 756 815 l 1
 756 721 l 1
 479 721 l 1
 479 532 l 1
 756 532 l 1
 756 438 l 1
 80 438 l 1
 80 532 l 1
 400 532 l 1
 400 721 l 1
 80 721 l 1
 80 815 l 1
628 1760 m 1
 798 1760 l 1
 512 762 l 1
 512 0 l 1
 344 0 l 1
 344 761 l 1
 30 1760 l 1
 197 1760 l 1
 427 1001 l 1
 430 1001 l 1
 628 1760 l 1
EndSplineSet
EndChar

StartChar: approxequal
Encoding: 8776 8776 375
Width: 1117
Flags: W
LayerCount: 2
Fore
SplineSet
843 1167 m 1
 993 1125 l 1
 950 955 874 866 773 866 c 0
 659 866 464 950 358 950 c 0
 322 950 289 918 263 857 c 1
 128 933 l 1
 179 1064 254 1132 347 1132 c 0
 451 1132 681 1050 745 1050 c 1
 787 1055 821 1095 843 1167 c 1
843 750 m 1
 993 708 l 1
 950 538 874 449 773 449 c 0
 659 449 464 533 358 533 c 0
 322 533 289 501 263 440 c 1
 128 516 l 1
 179 647 254 715 347 715 c 0
 451 715 681 633 745 633 c 1
 787 638 821 678 843 750 c 1
EndSplineSet
EndChar

StartChar: asciitilde
Encoding: 126 126 376
Width: 1117
Flags: W
LayerCount: 2
Fore
SplineSet
833 1147 m 1
 983 1105 l 1
 940 935 864 846 763 846 c 0
 649 846 454 930 348 930 c 0
 312 930 279 898 253 837 c 1
 118 913 l 1
 169 1044 244 1112 337 1112 c 0
 441 1112 671 1030 735 1030 c 1
 777 1035 811 1075 833 1147 c 1
EndSplineSet
EndChar

StartChar: divide
Encoding: 247 247 377
Width: 804
Flags: W
LayerCount: 2
Fore
SplineSet
94 870 m 1
 710 870 l 1
 710 638 l 1
 94 638 l 1
 94 870 l 1
253 535 m 1
 551 535 l 1
 551 237 l 1
 253 237 l 1
 253 535 l 1
253 1274 m 1
 551 1274 l 1
 551 976 l 1
 253 976 l 1
 253 1274 l 1
EndSplineSet
EndChar

StartChar: equal
Encoding: 61 61 378
Width: 722
Flags: W
LayerCount: 2
Fore
SplineSet
104 1033 m 1
 618 1033 l 1
 618 892 l 1
 104 892 l 1
 104 1033 l 1
104 734 m 1
 618 734 l 1
 618 593 l 1
 104 593 l 1
 104 734 l 1
EndSplineSet
EndChar

StartChar: greater
Encoding: 62 62 379
Width: 730
Flags: W
LayerCount: 2
Fore
SplineSet
85 1048 m 1
 85 1226 l 1
 663 831 l 1
 663 671 l 1
 85 280 l 1
 85 465 l 1
 541 749 l 1
 85 1048 l 1
EndSplineSet
EndChar

StartChar: greaterequal
Encoding: 8805 8805 380
Width: 781
Flags: W
LayerCount: 2
Fore
SplineSet
101 1041 m 1
 101 1226 l 1
 679 835 l 1
 679 675 l 1
 101 280 l 1
 101 458 l 1
 557 757 l 1
 101 1041 l 1
96 122 m 1
 642 122 l 1
 642 0 l 1
 96 0 l 1
 96 122 l 1
EndSplineSet
EndChar

StartChar: infinity
Encoding: 8734 8734 381
Width: 1300
Flags: W
LayerCount: 2
Fore
SplineSet
912 1041 m 0
 1088 1041 1182 927 1182 744 c 0
 1182 559 1090 439 912 439 c 0
 787 439 696 512 639 585 c 1
 583 522 482 452 370 452 c 0
 196 452 108 564 108 744 c 0
 108 920 200 1028 370 1028 c 0
 465 1028 554 980 639 885 c 1
 723 989 814 1041 912 1041 c 0
433 810 m 0
 374 810 344 787 344 740 c 0
 344 693 374 669 433 669 c 0
 480 669 528 693 577 740 c 1
 529 787 481 810 433 810 c 0
853 811 m 0
 802 811 752 787 701 740 c 1
 748 693 799 669 853 669 c 0
 916 669 948 693 948 740 c 0
 948 787 916 811 853 811 c 0
EndSplineSet
EndChar

StartChar: integral
Encoding: 8747 8747 382
Width: 767
Flags: W
LayerCount: 2
Fore
SplineSet
492 1786 m 0
 537 1786 591 1775 652 1752 c 1
 652 1621 l 1
 607 1635 571 1643 544 1643 c 0
 483 1643 462 1604 462 1515 c 2
 462 221 l 2
 462 67 398 -13 258 -13 c 0
 217 -13 170 -6 115 8 c 1
 115 139 l 1
 135 138 153 137 169 137 c 0
 289 137 306 169 306 305 c 2
 306 1539 l 2
 306 1703 369 1786 492 1786 c 0
EndSplineSet
EndChar

StartChar: less
Encoding: 60 60 383
Width: 730
Flags: W
LayerCount: 2
Fore
SplineSet
63 835 m 1
 641 1226 l 1
 641 1041 l 1
 185 757 l 1
 641 458 l 1
 641 280 l 1
 63 675 l 1
 63 835 l 1
EndSplineSet
EndChar

StartChar: lessequal
Encoding: 8804 8804 384
Width: 781
Flags: W
LayerCount: 2
Fore
SplineSet
63 835 m 1
 641 1226 l 1
 641 1041 l 1
 185 757 l 1
 641 458 l 1
 641 280 l 1
 63 675 l 1
 63 835 l 1
96 122 m 1
 642 122 l 1
 642 0 l 1
 96 0 l 1
 96 122 l 1
EndSplineSet
EndChar

StartChar: logicalnot
Encoding: 172 172 385
Width: 947
Flags: W
LayerCount: 2
Fore
SplineSet
97 979 m 1
 826 979 l 1
 826 439 l 1
 602 439 l 1
 602 743 l 1
 97 743 l 1
 97 979 l 1
EndSplineSet
EndChar

StartChar: minus
Encoding: 8722 8722 386
Width: 637
Flags: W
LayerCount: 2
Fore
SplineSet
60 741 m 1
 576 741 l 1
 576 509 l 1
 60 509 l 1
 60 741 l 1
EndSplineSet
EndChar

StartChar: multiply
Encoding: 215 215 387
Width: 710
Flags: W
LayerCount: 2
Fore
SplineSet
355 789 m 1
 502 936 l 1
 666 772 l 1
 519 625 l 1
 666 478 l 1
 502 314 l 1
 355 461 l 1
 208 314 l 1
 44 478 l 1
 191 625 l 1
 44 772 l 1
 208 936 l 1
 355 789 l 1
EndSplineSet
EndChar

StartChar: notequal
Encoding: 8800 8800 388
Width: 884
Flags: W
LayerCount: 2
Fore
SplineSet
454 1765 m 1
 763 1765 l 1
 651 1166 l 1
 782 1166 l 1
 782 942 l 1
 609 942 l 1
 580 791 l 1
 782 791 l 1
 782 559 l 1
 537 559 l 1
 432 0 l 1
 134 0 l 1
 235 559 l 1
 103 559 l 1
 103 791 l 1
 277 791 l 1
 305 942 l 1
 103 942 l 1
 103 1166 l 1
 345 1166 l 1
 454 1765 l 1
EndSplineSet
EndChar

StartChar: partialdiff
Encoding: 8706 8706 389
Width: 1072
Flags: W
LayerCount: 2
Fore
SplineSet
619 1681 m 0
 928 1681 1030 1479 1030 1159 c 0
 1030 1074 977 354 890 196 c 0
 811 54 669 -21 446 -21 c 0
 158 -21 37 127 37 413 c 0
 37 735 123 1086 445 1086 c 0
 508 1086 577 1073 654 1047 c 1
 661 1093 665 1132 665 1164 c 0
 665 1306 626 1415 507 1415 c 0
 432 1415 334 1396 283 1376 c 1
 229 1607 l 1
 383 1656 513 1681 619 1681 c 0
534 794 m 0
 481 794 450 744 440 645 c 2
 423 475 l 2
 419 439 417 411 417 391 c 0
 417 332 432 293 490 293 c 0
 556 293 585 349 591 419 c 2
 622 759 l 1
 589 782 560 794 534 794 c 0
EndSplineSet
EndChar

StartChar: percent
Encoding: 37 37 390
Width: 2158
Flags: W
LayerCount: 2
Fore
SplineSet
1368 1760 m 1
 1518 1760 l 1
 804 0 l 1
 645 0 l 1
 1368 1760 l 1
465 1782 m 0
 691 1782 758 1686 758 1364 c 2
 758 1011 l 2
 758 679 691 581 465 581 c 0
 239 581 172 679 172 1011 c 2
 172 1364 l 2
 172 1686 239 1782 465 1782 c 0
465 1638 m 0
 362 1638 332 1592 332 1435 c 2
 332 936 l 2
 332 774 362 726 465 726 c 0
 568 726 598 774 598 936 c 2
 598 1435 l 2
 598 1592 568 1638 465 1638 c 0
1693 1181 m 0
 1919 1181 1986 1085 1986 763 c 2
 1986 410 l 2
 1986 78 1919 -20 1693 -20 c 0
 1467 -20 1400 78 1400 410 c 2
 1400 763 l 2
 1400 1085 1467 1181 1693 1181 c 0
1693 1037 m 0
 1590 1037 1560 991 1560 834 c 2
 1560 335 l 2
 1560 173 1590 125 1693 125 c 0
 1796 125 1826 173 1826 335 c 2
 1826 834 l 2
 1826 991 1796 1037 1693 1037 c 0
EndSplineSet
EndChar

StartChar: perthousand
Encoding: 8240 8240 391
Width: 3206
Flags: W
LayerCount: 2
Fore
SplineSet
1368 1760 m 1
 1518 1760 l 1
 804 0 l 1
 645 0 l 1
 1368 1760 l 1
465 1782 m 0
 691 1782 758 1686 758 1364 c 2
 758 1011 l 2
 758 679 691 581 465 581 c 0
 239 581 172 679 172 1011 c 2
 172 1364 l 2
 172 1686 239 1782 465 1782 c 0
465 1638 m 0
 362 1638 332 1592 332 1435 c 2
 332 936 l 2
 332 774 362 726 465 726 c 0
 568 726 598 774 598 936 c 2
 598 1435 l 2
 598 1592 568 1638 465 1638 c 0
1715 1181 m 0
 1941 1181 2008 1085 2008 763 c 2
 2008 410 l 2
 2008 78 1941 -20 1715 -20 c 0
 1489 -20 1422 78 1422 410 c 2
 1422 763 l 2
 1422 1085 1489 1181 1715 1181 c 0
1715 1037 m 0
 1612 1037 1582 991 1582 834 c 2
 1582 335 l 2
 1582 173 1612 125 1715 125 c 0
 1818 125 1848 173 1848 335 c 2
 1848 834 l 2
 1848 991 1818 1037 1715 1037 c 0
2536 1181 m 0
 2762 1181 2829 1085 2829 763 c 2
 2829 410 l 2
 2829 78 2762 -20 2536 -20 c 0
 2310 -20 2243 78 2243 410 c 2
 2243 763 l 2
 2243 1085 2310 1181 2536 1181 c 0
2536 1037 m 0
 2433 1037 2403 991 2403 834 c 2
 2403 335 l 2
 2403 173 2433 125 2536 125 c 0
 2639 125 2669 173 2669 335 c 2
 2669 834 l 2
 2669 991 2639 1037 2536 1037 c 0
EndSplineSet
EndChar

StartChar: plus
Encoding: 43 43 392
Width: 808
Flags: W
LayerCount: 2
Fore
SplineSet
337 1184 m 1
 465 1184 l 1
 465 929 l 1
 697 929 l 1
 697 812 l 1
 465 812 l 1
 465 551 l 1
 337 551 l 1
 337 812 l 1
 109 812 l 1
 109 929 l 1
 337 929 l 1
 337 1184 l 1
EndSplineSet
EndChar

StartChar: plusminus
Encoding: 177 177 393
Width: 854
Flags: W
LayerCount: 2
Fore
SplineSet
363 1174 m 1
 491 1174 l 1
 491 919 l 1
 723 919 l 1
 723 802 l 1
 491 802 l 1
 491 541 l 1
 363 541 l 1
 363 802 l 1
 135 802 l 1
 135 919 l 1
 363 919 l 1
 363 1174 l 1
170 364 m 1
 686 364 l 1
 686 235 l 1
 170 235 l 1
 170 364 l 1
EndSplineSet
EndChar

StartChar: product
Encoding: 8719 8719 394
Width: 949
Flags: W
LayerCount: 2
Fore
SplineSet
629 1760 m 1
 797 1760 l 1
 797 0 l 1
 629 0 l 1
 629 875 l 1
 320 875 l 1
 320 0 l 1
 152 0 l 1
 152 1760 l 1
 320 1760 l 1
 320 1006 l 1
 629 1006 l 1
 629 1760 l 1
EndSplineSet
EndChar

StartChar: radical
Encoding: 8730 8730 395
Width: 1537
Flags: W
LayerCount: 2
Fore
SplineSet
609 1500 m 1
 1442 1500 l 1
 1442 1269 l 1
 878 1269 l 1
 682 0 l 1
 308 0 l 1
 89 741 l 1
 358 741 l 1
 472 338 l 1
 609 1500 l 1
EndSplineSet
EndChar

StartChar: summation
Encoding: 8721 8721 396
Width: 814
Flags: W
LayerCount: 2
Fore
SplineSet
102 1761 m 1
 719 1761 l 1
 719 1501 l 1
 466 1501 l 1
 674 880 l 1
 466 275 l 1
 719 275 l 1
 719 0 l 1
 102 0 l 1
 102 271 l 1
 317 881 l 1
 102 1505 l 1
 102 1761 l 1
EndSplineSet
EndChar

StartChar: ampersand
Encoding: 38 38 397
Width: 937
Flags: W
LayerCount: 2
Fore
SplineSet
473 1782 m 0
 699 1782 752 1654 752 1434 c 0
 752 1025 254 804 227 379 c 0
 217 229 258 122 391 122 c 0
 593 122 603 491 871 809 c 1
 946 690 l 1
 698 385 736 -20 369 -20 c 0
 192 -20 62 100 62 357 c 0
 62 875 605 1016 605 1450 c 0
 605 1584 588 1653 479 1653 c 0
 332 1653 343 1515 343 1441 c 0
 343 1200 779 358 935 0 c 1
 791 0 l 1
 685 256 181 1190 181 1441 c 0
 181 1668 283 1782 473 1782 c 0
EndSplineSet
EndChar

StartChar: asciicircum
Encoding: 94 94 398
Width: 1030
Flags: W
LayerCount: 2
Fore
SplineSet
402 1500 m 1
 626 1500 l 1
 867 577 l 1
 701 577 l 1
 515 1372 l 1
 329 577 l 1
 161 577 l 1
 402 1500 l 1
EndSplineSet
EndChar

StartChar: at
Encoding: 64 64 399
Width: 1352
Flags: W
LayerCount: 2
Fore
SplineSet
733 1781 m 0
 1119 1781 1266 1428 1266 910 c 0
 1266 612 1203 378 1042 378 c 0
 962 378 898 491 881 587 c 1
 857 454 773 361 675 361 c 0
 532 361 386 471 386 808 c 0
 386 1091 473 1283 639 1283 c 0
 755 1283 823 1199 862 1140 c 1
 892 1262 l 1
 973 1262 l 1
 973 697 l 2
 973 571 990 502 1045 502 c 0
 1115 502 1139 634 1139 942 c 0
 1139 1286 1100 1653 720 1653 c 0
 345 1653 229 1315 229 833 c 0
 229 269 375 68 665 68 c 0
 720 68 789 74 862 96 c 1
 881 -25 l 1
 789 -44 731 -54 662 -54 c 0
 284 -54 92 249 92 836 c 0
 92 1390 254 1781 733 1781 c 0
854 759 m 2
 854 1062 l 1
 629 1231 504 1175 504 814 c 0
 504 563 572 485 680 485 c 0
 777 485 854 597 854 759 c 2
EndSplineSet
EndChar

StartChar: bar
Encoding: 124 124 400
Width: 537
Flags: W
LayerCount: 2
Fore
SplineSet
191 1683 m 1
 359 1683 l 1
 359 -84 l 1
 191 -84 l 1
 191 1683 l 1
EndSplineSet
EndChar

StartChar: brokenbar
Encoding: 166 166 401
Width: 530
Flags: W
LayerCount: 2
Fore
SplineSet
122 1761 m 1
 408 1761 l 1
 408 931 l 1
 122 931 l 1
 122 1761 l 1
122 724 m 1
 408 724 l 1
 408 -84 l 1
 122 -84 l 1
 122 724 l 1
EndSplineSet
EndChar

StartChar: copyright
Encoding: 169 169 402
Width: 1466
Flags: W
LayerCount: 2
Fore
SplineSet
733 1519 m 0
 1106 1519 1390 1235 1390 862 c 0
 1390 489 1106 205 733 205 c 0
 360 205 76 489 76 862 c 0
 76 1235 360 1519 733 1519 c 0
736 1305 m 0
 870 1305 947 1239 947 1105 c 2
 947 952 l 1
 782 952 l 1
 782 1053 l 2
 782 1104 767 1130 736 1130 c 0
 699 1130 692 1104 692 1066 c 2
 692 657 l 2
 692 627 708 592 736 592 c 0
 767 592 782 614 782 657 c 2
 782 806 l 1
 951 806 l 1
 951 643 l 2
 951 497 894 424 732 424 c 0
 593 424 497 507 497 648 c 2
 497 1049 l 2
 497 1217 571 1305 736 1305 c 0
733 1390 m 0
 444 1390 235 1153 235 862 c 0
 235 571 444 334 733 334 c 0
 1022 334 1231 571 1231 862 c 0
 1231 1153 1022 1390 733 1390 c 0
EndSplineSet
EndChar

StartChar: dagger
Encoding: 8224 8224 403
Width: 909
Flags: W
LayerCount: 2
Fore
SplineSet
372 1592 m 1
 540 1592 l 1
 540 1182 l 1
 818 1182 l 1
 818 1050 l 1
 540 1050 l 1
 540 0 l 1
 372 0 l 1
 372 1050 l 1
 91 1050 l 1
 91 1182 l 1
 372 1182 l 1
 372 1592 l 1
EndSplineSet
EndChar

StartChar: daggerdbl
Encoding: 8225 8225 404
Width: 927
Flags: W
LayerCount: 2
Fore
SplineSet
283 1592 m 1
 647 1592 l 1
 647 1236 l 1
 827 1236 l 1
 827 940 l 1
 647 940 l 1
 647 646 l 1
 827 646 l 1
 827 350 l 1
 647 350 l 1
 647 0 l 1
 283 0 l 1
 283 350 l 1
 100 350 l 1
 100 646 l 1
 283 646 l 1
 283 940 l 1
 100 940 l 1
 100 1236 l 1
 283 1236 l 1
 283 1592 l 1
EndSplineSet
EndChar

StartChar: degree
Encoding: 176 176 405
Width: 915
Flags: W
LayerCount: 2
Fore
SplineSet
457 1607 m 0
 671 1607 811 1480 811 1269 c 0
 811 1058 671 931 457 931 c 0
 243 931 104 1057 104 1269 c 0
 104 1480 243 1607 457 1607 c 0
458 1426 m 0
 369 1426 316 1356 316 1269 c 0
 316 1182 369 1112 458 1112 c 0
 547 1112 600 1182 600 1269 c 0
 600 1356 547 1426 458 1426 c 0
EndSplineSet
EndChar

StartChar: paragraph
Encoding: 182 182 406
Width: 1119
Flags: W
LayerCount: 2
Fore
SplineSet
662 1761 m 2
 947 1761 l 1
 947 0 l 1
 779 0 l 1
 779 1605 l 1
 636 1605 l 1
 636 0 l 1
 468 0 l 1
 468 1165 l 1
 260 1188 151 1292 151 1468 c 0
 151 1694 268 1761 662 1761 c 2
EndSplineSet
EndChar

StartChar: registered
Encoding: 174 174 407
Width: 1502
Flags: W
LayerCount: 2
Fore
SplineSet
751 1519 m 0
 1124 1519 1408 1235 1408 862 c 0
 1408 489 1124 205 751 205 c 0
 378 205 94 489 94 862 c 0
 94 1235 378 1519 751 1519 c 0
751 1390 m 0
 462 1390 253 1153 253 862 c 0
 253 571 462 334 751 334 c 0
 1040 334 1249 571 1249 862 c 0
 1249 1153 1040 1390 751 1390 c 0
529 1282 m 1
 818 1282 l 2
 963 1282 989 1187 989 1043 c 0
 989 951 968 896 896 873 c 1
 949 863 975 822 975 751 c 2
 975 430 l 1
 791 430 l 1
 791 762 l 2
 791 812 769 818 719 818 c 1
 719 430 l 1
 529 430 l 1
 529 1282 l 1
720 1124 m 1
 720 965 l 1
 768 965 l 2
 793 965 805 991 805 1043 c 0
 805 1114 790 1124 720 1124 c 1
EndSplineSet
EndChar

StartChar: section
Encoding: 167 167 408
Width: 950
Flags: W
LayerCount: 2
Fore
SplineSet
487 1781 m 0
 725 1781 853 1667 853 1372 c 1
 580 1372 l 1
 580 1502 560 1542 497 1542 c 0
 435 1542 412 1509 412 1451 c 0
 412 1368 594 1252 640 1221 c 1
 742 1156 852 1044 852 879 c 0
 852 781 782 674 700 598 c 1
 794 511 855 430 855 293 c 0
 855 91 714 -20 488 -20 c 0
 243 -20 107 90 107 391 c 1
 406 391 l 1
 406 244 445 220 497 220 c 0
 543 220 566 240 566 303 c 0
 566 388 454 457 336 542 c 0
 238 612 125 697 125 862 c 0
 125 960 166 1067 248 1143 c 1
 166 1218 125 1328 125 1433 c 0
 125 1662 292 1781 487 1781 c 0
426 1017 m 1
 396 974 381 935 381 902 c 0
 381 822 467 764 541 735 c 1
 565 775 586 822 586 856 c 0
 586 906 546 967 426 1017 c 1
EndSplineSet
EndChar

StartChar: Euro
Encoding: 8364 8364 409
Width: 1076
Flags: W
LayerCount: 2
Fore
SplineSet
547 1781 m 0
 797 1781 979 1645 979 1368 c 2
 979 1231 l 1
 631 1231 l 1
 631 1324 l 2
 631 1429 607 1466 551 1466 c 0
 482 1466 474 1404 474 1326 c 2
 474 1106 l 1
 838 1106 l 1
 838 966 l 1
 474 966 l 1
 474 869 l 1
 838 869 l 1
 838 721 l 1
 474 721 l 1
 474 414 l 2
 474 339 490 294 544 294 c 0
 604 294 631 341 631 420 c 2
 631 548 l 1
 987 548 l 1
 987 425 l 2
 987 116 819 -21 539 -21 c 0
 284 -21 114 151 114 436 c 2
 114 721 l 1
 23 721 l 1
 23 869 l 1
 114 869 l 1
 114 966 l 1
 23 966 l 1
 23 1106 l 1
 114 1106 l 1
 114 1254 l 2
 114 1595 242 1781 547 1781 c 0
EndSplineSet
EndChar

StartChar: uni2215
Encoding: 8725 8725 410
Width: 829
Flags: W
LayerCount: 2
Fore
SplineSet
534 1768 m 1
 685 1768 l 1
 238 0 l 1
 88 0 l 1
 534 1768 l 1
EndSplineSet
EndChar

StartChar: trademark
Encoding: 8482 8482 411
Width: 1450
Flags: W
LayerCount: 2
Fore
SplineSet
1164 1761 m 1
 1320 1761 l 1
 1320 457 l 1
 1210 457 l 1
 1210 1004 l 1
 1225 1516 l 1
 1047 457 l 1
 921 457 l 1
 736 1516 l 1
 752 1004 l 1
 752 457 l 1
 641 457 l 1
 641 1761 l 1
 798 1761 l 1
 984 614 l 1
 1164 1761 l 1
116 1761 m 1
 505 1761 l 1
 505 1661 l 1
 379 1661 l 1
 379 457 l 1
 255 457 l 1
 255 1661 l 1
 116 1661 l 1
 116 1761 l 1
EndSplineSet
EndChar

StartChar: lozenge
Encoding: 9674 9674 413
Width: 921
Flags: W
LayerCount: 2
Fore
SplineSet
277 1436 m 1
 648 1436 l 1
 887 713 l 1
 648 0 l 1
 277 0 l 1
 34 713 l 1
 277 1436 l 1
609 713 m 1
 475 1247 l 1
 443 1247 l 1
 309 713 l 1
 443 179 l 1
 475 179 l 1
 609 713 l 1
EndSplineSet
EndChar

StartChar: uni0307
Encoding: 775 775 414
Width: 572
Flags: W
LayerCount: 2
Fore
SplineSet
107 445 m 1
 465 445 l 1
 465 147 l 1
 107 147 l 1
 107 445 l 1
EndSplineSet
EndChar

StartChar: dblgravecmb
Encoding: 783 783 415
Width: 825
Flags: W
LayerCount: 2
Fore
SplineSet
8 1927 m 1
 152 2025 l 1
 343 1686 l 1
 267 1638 l 1
 8 1927 l 1
321 1927 m 1
 461 2025 l 1
 615 1686 l 1
 539 1638 l 1
 321 1927 l 1
EndSplineSet
EndChar

StartChar: uni0311
Encoding: 785 785 416
Width: 1016
Flags: W
LayerCount: 2
Fore
SplineSet
500 1825 m 1
 634 1829 707 1755 710 1630 c 1
 710 1615 l 1
 632 1613 l 1
 630 1707 563 1727 500 1725 c 0
 441 1724 375 1704 377 1606 c 1
 299 1604 l 1
 299 1617 l 1
 296 1740 360 1822 500 1825 c 1
EndSplineSet
EndChar

StartChar: commaaccentcomb
Encoding: 806 806 417
Width: 528
Flags: W
LayerCount: 2
Fore
SplineSet
160 204 m 1
 370 204 l 1
 370 9 l 1
 289 -278 l 1
 218 -278 l 1
 263 0 l 1
 160 0 l 1
 160 204 l 1
EndSplineSet
EndChar

StartChar: uni02C9
Encoding: 713 713 418
Width: 696
Flags: W
LayerCount: 2
Fore
SplineSet
90 741 m 1
 606 741 l 1
 606 509 l 1
 90 509 l 1
 90 741 l 1
EndSplineSet
EndChar

StartChar: acute
Encoding: 180 180 419
Width: 650
Flags: W
LayerCount: 2
Fore
SplineSet
100 1978 m 1
 505 2141 l 1
 505 1979 l 1
 100 1895 l 1
 100 1978 l 1
EndSplineSet
EndChar

StartChar: breve
Encoding: 728 728 420
Width: 1016
Flags: W
LayerCount: 2
Fore
SplineSet
633 1834 m 1
 711 1834 l 1
 711 1821 l 2
 711 1698 645 1618 505 1618 c 0
 371 1618 300 1694 300 1819 c 2
 300 1834 l 1
 378 1834 l 1
 378 1740 444 1718 507 1718 c 0
 567 1718 633 1736 633 1834 c 1
EndSplineSet
EndChar

StartChar: caron
Encoding: 711 711 421
Width: 970
Flags: W
LayerCount: 2
Fore
SplineSet
571 1849 m 1
 710 1849 l 1
 579 1582 l 1
 391 1582 l 1
 259 1849 l 1
 399 1849 l 1
 485 1664 l 1
 571 1849 l 1
EndSplineSet
EndChar

StartChar: cedilla
Encoding: 184 184 422
Width: 1015
Flags: W
LayerCount: 2
Fore
SplineSet
483 0 m 1
 544 0 l 1
 554 -146 l 1
 686 -208 741 -296 741 -379 c 0
 741 -497 630 -603 469 -603 c 0
 438 -603 406 -599 372 -591 c 1
 372 -501 l 1
 561 -501 603 -434 603 -359 c 0
 603 -269 525 -214 443 -196 c 1
 483 0 l 1
EndSplineSet
EndChar

StartChar: circumflex
Encoding: 710 710 423
Width: 970
Flags: W
LayerCount: 2
Fore
SplineSet
391 1849 m 1
 579 1849 l 1
 710 1582 l 1
 571 1582 l 1
 485 1767 l 1
 399 1582 l 1
 259 1582 l 1
 391 1849 l 1
EndSplineSet
EndChar

StartChar: dieresis
Encoding: 168 168 424
Width: 976
Flags: W
LayerCount: 2
Fore
SplineSet
631 262 m 1
 829 262 l 1
 829 114 l 1
 631 114 l 1
 631 262 l 1
147 262 m 1
 345 262 l 1
 345 114 l 1
 147 114 l 1
 147 262 l 1
EndSplineSet
EndChar

StartChar: dotaccent
Encoding: 729 729 425
Width: 572
Flags: W
LayerCount: 2
Fore
SplineSet
203 246 m 1
 380 246 l 1
 380 98 l 1
 203 98 l 1
 203 246 l 1
EndSplineSet
EndChar

StartChar: grave
Encoding: 96 96 426
Width: 650
Flags: W
LayerCount: 2
Fore
SplineSet
131 173 m 1
 131 350 l 1
 476 162 l 1
 476 79 l 1
 131 173 l 1
EndSplineSet
EndChar

StartChar: hungarumlaut
Encoding: 733 733 427
Width: 1300
Flags: W
LayerCount: 2
Fore
SplineSet
698 195 m 1
 869 594 l 1
 1043 503 l 1
 773 153 l 1
 698 195 l 1
433 195 m 1
 547 594 l 1
 718 513 l 1
 509 163 l 1
 433 195 l 1
EndSplineSet
EndChar

StartChar: macron
Encoding: 175 175 428
Width: 696
Flags: W
LayerCount: 2
Fore
SplineSet
90 210 m 1
 587 210 l 1
 587 91 l 1
 90 91 l 1
 90 210 l 1
EndSplineSet
EndChar

StartChar: ogonek
Encoding: 731 731 429
Width: 1015
Flags: W
LayerCount: 2
Fore
SplineSet
660 0 m 1
 731 0 l 1
 601 -124 518 -276 518 -382 c 0
 518 -460 563 -514 666 -514 c 0
 746 -514 811 -492 812 -491 c 1
 812 -591 l 1
 789 -604 711 -626 643 -626 c 0
 463 -626 382 -528 382 -405 c 0
 382 -268 483 -100 660 0 c 1
EndSplineSet
EndChar

StartChar: ring
Encoding: 730 730 430
Width: 923
Flags: W
LayerCount: 2
Fore
SplineSet
461 406 m 0
 581 406 640 324 640 242 c 0
 640 160 581 78 461 78 c 0
 342 78 282 160 282 242 c 0
 282 324 342 406 461 406 c 0
461 349 m 0
 395 349 361 296 361 243 c 0
 361 189 395 136 461 136 c 0
 530 136 564 189 564 243 c 0
 564 296 530 349 461 349 c 0
EndSplineSet
EndChar

StartChar: tilde
Encoding: 732 732 431
Width: 1117
Flags: W
LayerCount: 2
Fore
SplineSet
431 330 m 0
 512 330 635 256 685 256 c 2
 689 256 l 1
 708 259 724 267 745 327 c 1
 856 299 l 1
 847 269 l 2
 808 139 769 119 701 119 c 0
 613 119 515 201 432 201 c 0
 424 201 416 201 409 199 c 0
 387 194 376 175 358 140 c 1
 259 187 l 1
 298 322 363 330 431 330 c 0
EndSplineSet
EndChar
